<ttFont>
    <TTGlyph name=".notdef" xMin="96" yMin="-220" xMax="612" yMax="1030">
      <contour>
        <pt x="96" y="1030" on="1"/>
        <pt x="612" y="1030" on="1"/>
        <pt x="612" y="-220" on="1"/>
        <pt x="96" y="-220" on="1"/>
      </contour>
      <contour>
        <pt x="552" y="-162" on="1"/>
        <pt x="552" y="973" on="1"/>
        <pt x="156" y="973" on="1"/>
        <pt x="156" y="-162" on="1"/>
      </contour>
    </TTGlyph>
    <TTGlyph name="A" xMin="8" yMin="0" xMax="614" yMax="740">
      <contour>
        <pt x="8" y="6" on="1"/>
        <pt x="263" y="740" on="1"/>
        <pt x="359" y="740" on="1"/>
        <pt x="614" y="6" on="1"/>
        <pt x="614" y="0" on="1"/>
        <pt x="551" y="0" on="1"/>
        <pt x="469" y="233" on="1"/>
        <pt x="153" y="233" on="1"/>
        <pt x="72" y="0" on="1"/>
        <pt x="8" y="0" on="1"/>
      </contour>
      <contour>
        <pt x="451" y="290" on="1"/>
        <pt x="355" y="566" on="1"/>
        <pt x="314" y="686" on="1"/>
        <pt x="308" y="686" on="1"/>
        <pt x="268" y="566" on="1"/>
        <pt x="171" y="290" on="1"/>
      </contour>
    </TTGlyph>
    <TTGlyph name="A.sc" xMin="14" yMin="0" xMax="547" yMax="577">
      <contour>
        <pt x="14" y="5" on="1"/>
        <pt x="234" y="577" on="1"/>
        <pt x="328" y="577" on="1"/>
        <pt x="547" y="5" on="1"/>
        <pt x="547" y="0" on="1"/>
        <pt x="486" y="0" on="1"/>
        <pt x="417" y="174" on="1"/>
        <pt x="144" y="174" on="1"/>
        <pt x="76" y="0" on="1"/>
        <pt x="14" y="0" on="1"/>
      </contour>
      <contour>
        <pt x="401" y="223" on="1"/>
        <pt x="319" y="436" on="1"/>
        <pt x="283" y="528" on="1"/>
        <pt x="277" y="528" on="1"/>
        <pt x="243" y="435" on="1"/>
        <pt x="159" y="223" on="1"/>
      </contour>
    </TTGlyph>
    <TTGlyph name="AE" xMin="8" yMin="0" xMax="776" yMax="740">
      <contour>
        <pt x="8" y="7" on="1"/>
        <pt x="289" y="740" on="1"/>
        <pt x="766" y="740" on="1"/>
        <pt x="766" y="683" on="1"/>
        <pt x="445" y="683" on="1"/>
        <pt x="458" y="403" on="1"/>
        <pt x="737" y="403" on="1"/>
        <pt x="737" y="347" on="1"/>
        <pt x="461" y="347" on="1"/>
        <pt x="475" y="57" on="1"/>
        <pt x="776" y="57" on="1"/>
        <pt x="776" y="0" on="1"/>
        <pt x="410" y="0" on="1"/>
        <pt x="400" y="232" on="1"/>
        <pt x="160" y="232" on="1"/>
        <pt x="71" y="0" on="1"/>
        <pt x="8" y="0" on="1"/>
      </contour>
      <contour>
        <pt x="183" y="290" on="1"/>
        <pt x="398" y="290" on="1"/>
        <pt x="382" y="685" on="1"/>
        <pt x="335" y="685" on="1"/>
      </contour>
    </TTGlyph>
    <TTGlyph name="AE.sc" xMin="17" yMin="0" xMax="691" yMax="577">
      <contour>
        <pt x="17" y="6" on="1"/>
        <pt x="261" y="577" on="1"/>
        <pt x="682" y="577" on="1"/>
        <pt x="682" y="525" on="1"/>
        <pt x="406" y="525" on="1"/>
        <pt x="416" y="317" on="1"/>
        <pt x="658" y="317" on="1"/>
        <pt x="658" y="267" on="1"/>
        <pt x="420" y="267" on="1"/>
        <pt x="431" y="53" on="1"/>
        <pt x="691" y="53" on="1"/>
        <pt x="691" y="0" on="1"/>
        <pt x="369" y="0" on="1"/>
        <pt x="361" y="174" on="1"/>
        <pt x="153" y="174" on="1"/>
        <pt x="79" y="0" on="1"/>
        <pt x="17" y="0" on="1"/>
      </contour>
      <contour>
        <pt x="175" y="224" on="1"/>
        <pt x="359" y="224" on="1"/>
        <pt x="345" y="527" on="1"/>
        <pt x="306" y="527" on="1"/>
      </contour>
    </TTGlyph>
    <TTGlyph name="AEacute" xMin="8" yMin="0" xMax="776" yMax="933">
      <contour>
        <pt x="461" y="800" on="1"/>
        <pt x="537" y="933" on="1"/>
        <pt x="605" y="933" on="1"/>
        <pt x="513" y="795" on="1"/>
      </contour>
      <contour>
        <pt x="8" y="7" on="1"/>
        <pt x="289" y="740" on="1"/>
        <pt x="766" y="740" on="1"/>
        <pt x="766" y="683" on="1"/>
        <pt x="445" y="683" on="1"/>
        <pt x="458" y="403" on="1"/>
        <pt x="737" y="403" on="1"/>
        <pt x="737" y="347" on="1"/>
        <pt x="461" y="347" on="1"/>
        <pt x="475" y="57" on="1"/>
        <pt x="776" y="57" on="1"/>
        <pt x="776" y="0" on="1"/>
        <pt x="410" y="0" on="1"/>
        <pt x="400" y="232" on="1"/>
        <pt x="160" y="232" on="1"/>
        <pt x="71" y="0" on="1"/>
        <pt x="8" y="0" on="1"/>
      </contour>
      <contour>
        <pt x="183" y="290" on="1"/>
        <pt x="398" y="290" on="1"/>
        <pt x="382" y="685" on="1"/>
        <pt x="335" y="685" on="1"/>
      </contour>
    </TTGlyph>
    <TTGlyph name="AEacute.sc" xMin="17" yMin="0" xMax="691" yMax="734">
      <contour>
        <pt x="17" y="6" on="1"/>
        <pt x="261" y="577" on="1"/>
        <pt x="682" y="577" on="1"/>
        <pt x="682" y="525" on="1"/>
        <pt x="406" y="525" on="1"/>
        <pt x="416" y="317" on="1"/>
        <pt x="658" y="317" on="1"/>
        <pt x="658" y="267" on="1"/>
        <pt x="420" y="267" on="1"/>
        <pt x="431" y="53" on="1"/>
        <pt x="691" y="53" on="1"/>
        <pt x="691" y="0" on="1"/>
        <pt x="369" y="0" on="1"/>
        <pt x="361" y="174" on="1"/>
        <pt x="153" y="174" on="1"/>
        <pt x="79" y="0" on="1"/>
        <pt x="17" y="0" on="1"/>
      </contour>
      <contour>
        <pt x="359" y="224" on="1"/>
        <pt x="345" y="527" on="1"/>
        <pt x="306" y="527" on="1"/>
        <pt x="175" y="224" on="1"/>
      </contour>
      <contour>
        <pt x="409" y="626" on="1"/>
        <pt x="474" y="734" on="1"/>
        <pt x="540" y="734" on="1"/>
        <pt x="458" y="621" on="1"/>
      </contour>
    </TTGlyph>
    <TTGlyph name="Aacute" xMin="8" yMin="0" xMax="614" yMax="933">
      <contour>
        <pt x="8" y="6" on="1"/>
        <pt x="263" y="740" on="1"/>
        <pt x="359" y="740" on="1"/>
        <pt x="614" y="6" on="1"/>
        <pt x="614" y="0" on="1"/>
        <pt x="551" y="0" on="1"/>
        <pt x="469" y="233" on="1"/>
        <pt x="153" y="233" on="1"/>
        <pt x="72" y="0" on="1"/>
        <pt x="8" y="0" on="1"/>
      </contour>
      <contour>
        <pt x="451" y="290" on="1"/>
        <pt x="355" y="566" on="1"/>
        <pt x="314" y="686" on="1"/>
        <pt x="308" y="686" on="1"/>
        <pt x="268" y="566" on="1"/>
        <pt x="171" y="290" on="1"/>
      </contour>
      <contour>
        <pt x="281" y="800" on="1"/>
        <pt x="357" y="933" on="1"/>
        <pt x="425" y="933" on="1"/>
        <pt x="333" y="795" on="1"/>
      </contour>
    </TTGlyph>
    <TTGlyph name="Aacute.sc" xMin="14" yMin="0" xMax="547" yMax="734">
      <contour>
        <pt x="14" y="5" on="1"/>
        <pt x="234" y="577" on="1"/>
        <pt x="328" y="577" on="1"/>
        <pt x="547" y="5" on="1"/>
        <pt x="547" y="0" on="1"/>
        <pt x="486" y="0" on="1"/>
        <pt x="417" y="174" on="1"/>
        <pt x="144" y="174" on="1"/>
        <pt x="76" y="0" on="1"/>
        <pt x="14" y="0" on="1"/>
      </contour>
      <contour>
        <pt x="401" y="224" on="1"/>
        <pt x="319" y="436" on="1"/>
        <pt x="283" y="528" on="1"/>
        <pt x="277" y="528" on="1"/>
        <pt x="243" y="435" on="1"/>
        <pt x="160" y="224" on="1"/>
      </contour>
      <contour>
        <pt x="252" y="626" on="1"/>
        <pt x="317" y="734" on="1"/>
        <pt x="382" y="734" on="1"/>
        <pt x="302" y="621" on="1"/>
      </contour>
    </TTGlyph>
    <TTGlyph name="Abreve" xMin="8" yMin="0" xMax="614" yMax="955">
      <contour>
        <pt x="8" y="6" on="1"/>
        <pt x="263" y="740" on="1"/>
        <pt x="359" y="740" on="1"/>
        <pt x="614" y="6" on="1"/>
        <pt x="614" y="0" on="1"/>
        <pt x="551" y="0" on="1"/>
        <pt x="469" y="233" on="1"/>
        <pt x="153" y="233" on="1"/>
        <pt x="72" y="0" on="1"/>
        <pt x="8" y="0" on="1"/>
      </contour>
      <contour>
        <pt x="451" y="290" on="1"/>
        <pt x="355" y="566" on="1"/>
        <pt x="314" y="686" on="1"/>
        <pt x="308" y="686" on="1"/>
        <pt x="268" y="566" on="1"/>
        <pt x="171" y="290" on="1"/>
      </contour>
      <contour>
        <pt x="312" y="813" on="1"/>
        <pt x="233" y="813" on="0"/>
        <pt x="150" y="889" on="0"/>
        <pt x="150" y="955" on="1"/>
        <pt x="201" y="955" on="1"/>
        <pt x="201" y="909" on="0"/>
        <pt x="258" y="858" on="0"/>
        <pt x="312" y="858" on="1"/>
        <pt x="366" y="858" on="0"/>
        <pt x="423" y="909" on="0"/>
        <pt x="423" y="955" on="1"/>
        <pt x="475" y="955" on="1"/>
        <pt x="475" y="889" on="0"/>
        <pt x="390" y="813" on="0"/>
      </contour>
    </TTGlyph>
    <TTGlyph name="Abreve.sc" xMin="14" yMin="0" xMax="547" yMax="749">
      <contour>
        <pt x="282" y="633" on="1"/>
        <pt x="211" y="633" on="0"/>
        <pt x="137" y="696" on="0"/>
        <pt x="137" y="749" on="1"/>
        <pt x="186" y="749" on="1"/>
        <pt x="186" y="673" on="0"/>
        <pt x="282" y="673" on="1"/>
        <pt x="377" y="673" on="0"/>
        <pt x="377" y="749" on="1"/>
        <pt x="425" y="749" on="1"/>
        <pt x="425" y="695" on="0"/>
        <pt x="352" y="633" on="0"/>
      </contour>
      <contour>
        <pt x="14" y="5" on="1"/>
        <pt x="234" y="577" on="1"/>
        <pt x="328" y="577" on="1"/>
        <pt x="547" y="5" on="1"/>
        <pt x="547" y="0" on="1"/>
        <pt x="486" y="0" on="1"/>
        <pt x="417" y="174" on="1"/>
        <pt x="144" y="174" on="1"/>
        <pt x="76" y="0" on="1"/>
        <pt x="14" y="0" on="1"/>
      </contour>
      <contour>
        <pt x="401" y="224" on="1"/>
        <pt x="319" y="436" on="1"/>
        <pt x="283" y="528" on="1"/>
        <pt x="277" y="528" on="1"/>
        <pt x="243" y="435" on="1"/>
        <pt x="160" y="224" on="1"/>
      </contour>
    </TTGlyph>
    <TTGlyph name="Acircumflex" xMin="8" yMin="0" xMax="614" yMax="944">
      <contour>
        <pt x="8" y="6" on="1"/>
        <pt x="263" y="740" on="1"/>
        <pt x="359" y="740" on="1"/>
        <pt x="614" y="6" on="1"/>
        <pt x="614" y="0" on="1"/>
        <pt x="551" y="0" on="1"/>
        <pt x="469" y="233" on="1"/>
        <pt x="153" y="233" on="1"/>
        <pt x="72" y="0" on="1"/>
        <pt x="8" y="0" on="1"/>
      </contour>
      <contour>
        <pt x="451" y="290" on="1"/>
        <pt x="355" y="566" on="1"/>
        <pt x="314" y="686" on="1"/>
        <pt x="308" y="686" on="1"/>
        <pt x="268" y="566" on="1"/>
        <pt x="171" y="290" on="1"/>
      </contour>
      <contour>
        <pt x="165" y="872" on="1"/>
        <pt x="312" y="944" on="1"/>
        <pt x="460" y="872" on="1"/>
        <pt x="460" y="814" on="1"/>
        <pt x="312" y="887" on="1"/>
        <pt x="165" y="814" on="1"/>
      </contour>
    </TTGlyph>
    <TTGlyph name="Acircumflex.sc" xMin="14" yMin="0" xMax="547" yMax="742">
      <contour>
        <pt x="14" y="5" on="1"/>
        <pt x="234" y="577" on="1"/>
        <pt x="328" y="577" on="1"/>
        <pt x="547" y="5" on="1"/>
        <pt x="547" y="0" on="1"/>
        <pt x="486" y="0" on="1"/>
        <pt x="417" y="174" on="1"/>
        <pt x="144" y="174" on="1"/>
        <pt x="76" y="0" on="1"/>
        <pt x="14" y="0" on="1"/>
      </contour>
      <contour>
        <pt x="401" y="224" on="1"/>
        <pt x="319" y="436" on="1"/>
        <pt x="283" y="528" on="1"/>
        <pt x="277" y="528" on="1"/>
        <pt x="243" y="435" on="1"/>
        <pt x="160" y="224" on="1"/>
      </contour>
      <contour>
        <pt x="151" y="684" on="1"/>
        <pt x="282" y="742" on="1"/>
        <pt x="412" y="684" on="1"/>
        <pt x="412" y="633" on="1"/>
        <pt x="281" y="690" on="1"/>
        <pt x="151" y="633" on="1"/>
      </contour>
    </TTGlyph>
    <TTGlyph name="Adblgrave" xMin="8" yMin="0" xMax="614" yMax="929">
      <contour>
        <pt x="8" y="6" on="1"/>
        <pt x="263" y="740" on="1"/>
        <pt x="359" y="740" on="1"/>
        <pt x="614" y="6" on="1"/>
        <pt x="614" y="0" on="1"/>
        <pt x="551" y="0" on="1"/>
        <pt x="469" y="233" on="1"/>
        <pt x="153" y="233" on="1"/>
        <pt x="72" y="0" on="1"/>
        <pt x="8" y="0" on="1"/>
      </contour>
      <contour>
        <pt x="451" y="290" on="1"/>
        <pt x="355" y="566" on="1"/>
        <pt x="314" y="686" on="1"/>
        <pt x="308" y="686" on="1"/>
        <pt x="268" y="566" on="1"/>
        <pt x="171" y="290" on="1"/>
      </contour>
      <contour>
        <pt x="216" y="791" on="1"/>
        <pt x="124" y="929" on="1"/>
        <pt x="188" y="929" on="1"/>
        <pt x="265" y="804" on="1"/>
      </contour>
      <contour>
        <pt x="360" y="791" on="1"/>
        <pt x="268" y="929" on="1"/>
        <pt x="332" y="929" on="1"/>
        <pt x="408" y="804" on="1"/>
      </contour>
    </TTGlyph>
    <TTGlyph name="Adblgrave.sc" xMin="14" yMin="0" xMax="547" yMax="731">
      <contour>
        <pt x="14" y="5" on="1"/>
        <pt x="234" y="577" on="1"/>
        <pt x="328" y="577" on="1"/>
        <pt x="547" y="5" on="1"/>
        <pt x="547" y="0" on="1"/>
        <pt x="486" y="0" on="1"/>
        <pt x="417" y="174" on="1"/>
        <pt x="144" y="174" on="1"/>
        <pt x="76" y="0" on="1"/>
        <pt x="14" y="0" on="1"/>
      </contour>
      <contour>
        <pt x="401" y="224" on="1"/>
        <pt x="319" y="436" on="1"/>
        <pt x="283" y="528" on="1"/>
        <pt x="277" y="528" on="1"/>
        <pt x="243" y="435" on="1"/>
        <pt x="160" y="224" on="1"/>
      </contour>
      <contour>
        <pt x="114" y="731" on="1"/>
        <pt x="176" y="731" on="1"/>
        <pt x="240" y="628" on="1"/>
        <pt x="195" y="618" on="1"/>
      </contour>
      <contour>
        <pt x="241" y="731" on="1"/>
        <pt x="303" y="731" on="1"/>
        <pt x="368" y="628" on="1"/>
        <pt x="323" y="618" on="1"/>
      </contour>
    </TTGlyph>
    <TTGlyph name="Adieresis" xMin="8" yMin="0" xMax="614" yMax="908">
      <contour>
        <pt x="8" y="6" on="1"/>
        <pt x="263" y="740" on="1"/>
        <pt x="359" y="740" on="1"/>
        <pt x="614" y="6" on="1"/>
        <pt x="614" y="0" on="1"/>
        <pt x="551" y="0" on="1"/>
        <pt x="469" y="233" on="1"/>
        <pt x="153" y="233" on="1"/>
        <pt x="72" y="0" on="1"/>
        <pt x="8" y="0" on="1"/>
      </contour>
      <contour>
        <pt x="451" y="290" on="1"/>
        <pt x="355" y="566" on="1"/>
        <pt x="314" y="686" on="1"/>
        <pt x="308" y="686" on="1"/>
        <pt x="268" y="566" on="1"/>
        <pt x="171" y="290" on="1"/>
      </contour>
      <contour>
        <pt x="197" y="819" on="1"/>
        <pt x="176" y="819" on="0"/>
        <pt x="152" y="841" on="0"/>
        <pt x="152" y="864" on="1"/>
        <pt x="152" y="887" on="0"/>
        <pt x="176" y="908" on="0"/>
        <pt x="197" y="908" on="1"/>
        <pt x="218" y="908" on="0"/>
        <pt x="243" y="887" on="0"/>
        <pt x="243" y="864" on="1"/>
        <pt x="243" y="840" on="0"/>
        <pt x="218" y="819" on="0"/>
      </contour>
      <contour>
        <pt x="427" y="819" on="1"/>
        <pt x="381" y="819" on="0"/>
        <pt x="381" y="864" on="1"/>
        <pt x="381" y="908" on="0"/>
        <pt x="427" y="908" on="1"/>
        <pt x="447" y="908" on="0"/>
        <pt x="472" y="887" on="0"/>
        <pt x="472" y="864" on="1"/>
        <pt x="472" y="840" on="0"/>
        <pt x="447" y="819" on="0"/>
      </contour>
    </TTGlyph>
    <TTGlyph name="Adieresis.sc" xMin="14" yMin="0" xMax="547" yMax="718">
      <contour>
        <pt x="179" y="638" on="1"/>
        <pt x="138" y="638" on="0"/>
        <pt x="138" y="678" on="1"/>
        <pt x="138" y="718" on="0"/>
        <pt x="179" y="718" on="1"/>
        <pt x="222" y="718" on="0"/>
        <pt x="222" y="678" on="1"/>
        <pt x="222" y="638" on="0"/>
      </contour>
      <contour>
        <pt x="383" y="638" on="1"/>
        <pt x="341" y="638" on="0"/>
        <pt x="341" y="678" on="1"/>
        <pt x="341" y="718" on="0"/>
        <pt x="383" y="718" on="1"/>
        <pt x="403" y="718" on="0"/>
        <pt x="425" y="699" on="0"/>
        <pt x="425" y="678" on="1"/>
        <pt x="425" y="657" on="0"/>
        <pt x="403" y="638" on="0"/>
      </contour>
      <contour>
        <pt x="14" y="5" on="1"/>
        <pt x="234" y="577" on="1"/>
        <pt x="328" y="577" on="1"/>
        <pt x="547" y="5" on="1"/>
        <pt x="547" y="0" on="1"/>
        <pt x="486" y="0" on="1"/>
        <pt x="417" y="174" on="1"/>
        <pt x="144" y="174" on="1"/>
        <pt x="76" y="0" on="1"/>
        <pt x="14" y="0" on="1"/>
      </contour>
      <contour>
        <pt x="401" y="224" on="1"/>
        <pt x="319" y="436" on="1"/>
        <pt x="283" y="528" on="1"/>
        <pt x="277" y="528" on="1"/>
        <pt x="243" y="435" on="1"/>
        <pt x="160" y="224" on="1"/>
      </contour>
    </TTGlyph>
    <TTGlyph name="Agrave" xMin="8" yMin="0" xMax="614" yMax="933">
      <contour>
        <pt x="8" y="6" on="1"/>
        <pt x="263" y="740" on="1"/>
        <pt x="359" y="740" on="1"/>
        <pt x="614" y="6" on="1"/>
        <pt x="614" y="0" on="1"/>
        <pt x="551" y="0" on="1"/>
        <pt x="469" y="233" on="1"/>
        <pt x="153" y="233" on="1"/>
        <pt x="72" y="0" on="1"/>
        <pt x="8" y="0" on="1"/>
      </contour>
      <contour>
        <pt x="451" y="290" on="1"/>
        <pt x="355" y="566" on="1"/>
        <pt x="314" y="686" on="1"/>
        <pt x="308" y="686" on="1"/>
        <pt x="268" y="566" on="1"/>
        <pt x="171" y="290" on="1"/>
      </contour>
      <contour>
        <pt x="283" y="795" on="1"/>
        <pt x="191" y="933" on="1"/>
        <pt x="259" y="933" on="1"/>
        <pt x="335" y="808" on="1"/>
      </contour>
    </TTGlyph>
    <TTGlyph name="Agrave.sc" xMin="14" yMin="0" xMax="547" yMax="734">
      <contour>
        <pt x="14" y="5" on="1"/>
        <pt x="234" y="577" on="1"/>
        <pt x="328" y="577" on="1"/>
        <pt x="547" y="5" on="1"/>
        <pt x="547" y="0" on="1"/>
        <pt x="486" y="0" on="1"/>
        <pt x="417" y="174" on="1"/>
        <pt x="144" y="174" on="1"/>
        <pt x="76" y="0" on="1"/>
        <pt x="14" y="0" on="1"/>
      </contour>
      <contour>
        <pt x="401" y="224" on="1"/>
        <pt x="319" y="436" on="1"/>
        <pt x="283" y="528" on="1"/>
        <pt x="277" y="528" on="1"/>
        <pt x="243" y="435" on="1"/>
        <pt x="160" y="224" on="1"/>
      </contour>
      <contour>
        <pt x="255" y="621" on="1"/>
        <pt x="173" y="734" on="1"/>
        <pt x="239" y="734" on="1"/>
        <pt x="304" y="631" on="1"/>
      </contour>
    </TTGlyph>
    <TTGlyph name="Ainvertedbreve" xMin="8" yMin="0" xMax="614" yMax="961">
      <contour>
        <pt x="8" y="6" on="1"/>
        <pt x="263" y="740" on="1"/>
        <pt x="359" y="740" on="1"/>
        <pt x="614" y="6" on="1"/>
        <pt x="614" y="0" on="1"/>
        <pt x="551" y="0" on="1"/>
        <pt x="469" y="233" on="1"/>
        <pt x="153" y="233" on="1"/>
        <pt x="72" y="0" on="1"/>
        <pt x="8" y="0" on="1"/>
      </contour>
      <contour>
        <pt x="451" y="290" on="1"/>
        <pt x="355" y="566" on="1"/>
        <pt x="314" y="686" on="1"/>
        <pt x="308" y="686" on="1"/>
        <pt x="268" y="566" on="1"/>
        <pt x="171" y="290" on="1"/>
      </contour>
      <contour>
        <pt x="422" y="819" on="1"/>
        <pt x="422" y="866" on="0"/>
        <pt x="366" y="917" on="0"/>
        <pt x="312" y="917" on="1"/>
        <pt x="258" y="917" on="0"/>
        <pt x="201" y="866" on="0"/>
        <pt x="201" y="819" on="1"/>
        <pt x="149" y="819" on="1"/>
        <pt x="149" y="885" on="0"/>
        <pt x="233" y="961" on="0"/>
        <pt x="312" y="961" on="1"/>
        <pt x="390" y="961" on="0"/>
        <pt x="474" y="885" on="0"/>
        <pt x="474" y="819" on="1"/>
      </contour>
    </TTGlyph>
    <TTGlyph name="Ainvertedbreve.sc" xMin="14" yMin="0" xMax="547" yMax="753">
      <contour>
        <pt x="137" y="638" on="1"/>
        <pt x="137" y="691" on="0"/>
        <pt x="210" y="753" on="0"/>
        <pt x="281" y="753" on="1"/>
        <pt x="352" y="753" on="0"/>
        <pt x="425" y="691" on="0"/>
        <pt x="425" y="638" on="1"/>
        <pt x="376" y="638" on="1"/>
        <pt x="376" y="714" on="0"/>
        <pt x="281" y="714" on="1"/>
        <pt x="186" y="714" on="0"/>
        <pt x="186" y="638" on="1"/>
      </contour>
      <contour>
        <pt x="14" y="5" on="1"/>
        <pt x="234" y="577" on="1"/>
        <pt x="328" y="577" on="1"/>
        <pt x="547" y="5" on="1"/>
        <pt x="547" y="0" on="1"/>
        <pt x="486" y="0" on="1"/>
        <pt x="417" y="174" on="1"/>
        <pt x="144" y="174" on="1"/>
        <pt x="76" y="0" on="1"/>
        <pt x="14" y="0" on="1"/>
      </contour>
      <contour>
        <pt x="401" y="224" on="1"/>
        <pt x="319" y="436" on="1"/>
        <pt x="283" y="528" on="1"/>
        <pt x="277" y="528" on="1"/>
        <pt x="243" y="435" on="1"/>
        <pt x="160" y="224" on="1"/>
      </contour>
    </TTGlyph>
    <TTGlyph name="Amacron" xMin="8" yMin="0" xMax="614" yMax="893">
      <contour>
        <pt x="8" y="6" on="1"/>
        <pt x="263" y="740" on="1"/>
        <pt x="359" y="740" on="1"/>
        <pt x="614" y="6" on="1"/>
        <pt x="614" y="0" on="1"/>
        <pt x="551" y="0" on="1"/>
        <pt x="469" y="233" on="1"/>
        <pt x="153" y="233" on="1"/>
        <pt x="72" y="0" on="1"/>
        <pt x="8" y="0" on="1"/>
      </contour>
      <contour>
        <pt x="451" y="290" on="1"/>
        <pt x="355" y="566" on="1"/>
        <pt x="314" y="686" on="1"/>
        <pt x="308" y="686" on="1"/>
        <pt x="268" y="566" on="1"/>
        <pt x="171" y="290" on="1"/>
      </contour>
      <contour>
        <pt x="169" y="893" on="1"/>
        <pt x="448" y="893" on="1"/>
        <pt x="448" y="841" on="1"/>
        <pt x="169" y="841" on="1"/>
      </contour>
    </TTGlyph>
    <TTGlyph name="Amacron.sc" xMin="14" yMin="0" xMax="547" yMax="703">
      <contour>
        <pt x="14" y="5" on="1"/>
        <pt x="234" y="577" on="1"/>
        <pt x="328" y="577" on="1"/>
        <pt x="547" y="5" on="1"/>
        <pt x="547" y="0" on="1"/>
        <pt x="486" y="0" on="1"/>
        <pt x="417" y="174" on="1"/>
        <pt x="144" y="174" on="1"/>
        <pt x="76" y="0" on="1"/>
        <pt x="14" y="0" on="1"/>
      </contour>
      <contour>
        <pt x="401" y="224" on="1"/>
        <pt x="319" y="436" on="1"/>
        <pt x="283" y="528" on="1"/>
        <pt x="277" y="528" on="1"/>
        <pt x="243" y="435" on="1"/>
        <pt x="160" y="224" on="1"/>
      </contour>
      <contour>
        <pt x="154" y="703" on="1"/>
        <pt x="403" y="703" on="1"/>
        <pt x="403" y="656" on="1"/>
        <pt x="154" y="656" on="1"/>
      </contour>
    </TTGlyph>
    <TTGlyph name="Aogonek" xMin="8" yMin="-220" xMax="614" yMax="740">
      <contour>
        <pt x="548" y="-220" on="1"/>
        <pt x="455" y="-220" on="0"/>
        <pt x="455" y="-138" on="1"/>
        <pt x="455" y="-99" on="0"/>
        <pt x="503" y="-35" on="0"/>
        <pt x="560" y="0" on="1"/>
        <pt x="551" y="0" on="1"/>
        <pt x="469" y="233" on="1"/>
        <pt x="153" y="233" on="1"/>
        <pt x="72" y="0" on="1"/>
        <pt x="8" y="0" on="1"/>
        <pt x="8" y="6" on="1"/>
        <pt x="263" y="740" on="1"/>
        <pt x="359" y="740" on="1"/>
        <pt x="614" y="6" on="1"/>
        <pt x="614" y="-19" on="1"/>
        <pt x="557" y="-45" on="0"/>
        <pt x="506" y="-102" on="0"/>
        <pt x="506" y="-134" on="1"/>
        <pt x="506" y="-175" on="0"/>
        <pt x="554" y="-175" on="1"/>
        <pt x="582" y="-175" on="0"/>
        <pt x="613" y="-164" on="1"/>
        <pt x="613" y="-208" on="1"/>
        <pt x="584" y="-220" on="0"/>
      </contour>
      <contour>
        <pt x="451" y="290" on="1"/>
        <pt x="355" y="566" on="1"/>
        <pt x="314" y="686" on="1"/>
        <pt x="308" y="686" on="1"/>
        <pt x="268" y="566" on="1"/>
        <pt x="171" y="290" on="1"/>
      </contour>
    </TTGlyph>
    <TTGlyph name="Aogonek.sc" xMin="13" yMin="-170" xMax="547" yMax="577">
      <contour>
        <pt x="488" y="-170" on="1"/>
        <pt x="405" y="-170" on="0"/>
        <pt x="405" y="-104" on="1"/>
        <pt x="405" y="-75" on="0"/>
        <pt x="444" y="-26" on="0"/>
        <pt x="490" y="0" on="1"/>
        <pt x="484" y="0" on="1"/>
        <pt x="416" y="174" on="1"/>
        <pt x="143" y="174" on="1"/>
        <pt x="75" y="0" on="1"/>
        <pt x="13" y="0" on="1"/>
        <pt x="13" y="5" on="1"/>
        <pt x="233" y="577" on="1"/>
        <pt x="327" y="577" on="1"/>
        <pt x="547" y="5" on="1"/>
        <pt x="547" y="-12" on="1"/>
        <pt x="452" y="-48" on="0"/>
        <pt x="452" y="-98" on="1"/>
        <pt x="452" y="-115" on="0"/>
        <pt x="473" y="-128" on="0"/>
        <pt x="493" y="-128" on="1"/>
        <pt x="506" y="-128" on="0"/>
        <pt x="534" y="-125" on="0"/>
        <pt x="546" y="-120" on="1"/>
        <pt x="546" y="-160" on="1"/>
        <pt x="518" y="-170" on="0"/>
      </contour>
      <contour>
        <pt x="400" y="224" on="1"/>
        <pt x="318" y="440" on="1"/>
        <pt x="282" y="528" on="1"/>
        <pt x="276" y="528" on="1"/>
        <pt x="242" y="439" on="1"/>
        <pt x="158" y="224" on="1"/>
      </contour>
    </TTGlyph>
    <TTGlyph name="Aring" xMin="8" yMin="0" xMax="614" yMax="970">
      <contour>
        <pt x="8" y="6" on="1"/>
        <pt x="263" y="740" on="1"/>
        <pt x="359" y="740" on="1"/>
        <pt x="614" y="6" on="1"/>
        <pt x="614" y="0" on="1"/>
        <pt x="551" y="0" on="1"/>
        <pt x="469" y="233" on="1"/>
        <pt x="153" y="233" on="1"/>
        <pt x="72" y="0" on="1"/>
        <pt x="8" y="0" on="1"/>
      </contour>
      <contour>
        <pt x="451" y="290" on="1"/>
        <pt x="355" y="566" on="1"/>
        <pt x="314" y="686" on="1"/>
        <pt x="308" y="686" on="1"/>
        <pt x="268" y="566" on="1"/>
        <pt x="171" y="290" on="1"/>
      </contour>
      <contour>
        <pt x="312" y="759" on="1"/>
        <pt x="263" y="759" on="0"/>
        <pt x="203" y="819" on="0"/>
        <pt x="203" y="864" on="1"/>
        <pt x="203" y="909" on="0"/>
        <pt x="263" y="970" on="0"/>
        <pt x="312" y="970" on="1"/>
        <pt x="361" y="970" on="0"/>
        <pt x="421" y="909" on="0"/>
        <pt x="421" y="864" on="1"/>
        <pt x="421" y="819" on="0"/>
        <pt x="361" y="759" on="0"/>
      </contour>
      <contour>
        <pt x="312" y="798" on="1"/>
        <pt x="344" y="798" on="0"/>
        <pt x="379" y="834" on="0"/>
        <pt x="379" y="864" on="1"/>
        <pt x="379" y="894" on="0"/>
        <pt x="345" y="930" on="0"/>
        <pt x="312" y="930" on="1"/>
        <pt x="279" y="930" on="0"/>
        <pt x="244" y="894" on="0"/>
        <pt x="244" y="864" on="1"/>
        <pt x="244" y="834" on="0"/>
        <pt x="279" y="798" on="0"/>
      </contour>
    </TTGlyph>
    <TTGlyph name="Aring.sc" xMin="14" yMin="0" xMax="547" yMax="786">
      <contour>
        <pt x="14" y="5" on="1"/>
        <pt x="234" y="577" on="1"/>
        <pt x="328" y="577" on="1"/>
        <pt x="547" y="5" on="1"/>
        <pt x="547" y="0" on="1"/>
        <pt x="486" y="0" on="1"/>
        <pt x="417" y="174" on="1"/>
        <pt x="144" y="174" on="1"/>
        <pt x="76" y="0" on="1"/>
        <pt x="14" y="0" on="1"/>
      </contour>
      <contour>
        <pt x="401" y="224" on="1"/>
        <pt x="319" y="436" on="1"/>
        <pt x="283" y="528" on="1"/>
        <pt x="277" y="528" on="1"/>
        <pt x="243" y="435" on="1"/>
        <pt x="160" y="224" on="1"/>
      </contour>
      <contour>
        <pt x="281" y="619" on="1"/>
        <pt x="238" y="619" on="0"/>
        <pt x="185" y="667" on="0"/>
        <pt x="185" y="702" on="1"/>
        <pt x="185" y="738" on="0"/>
        <pt x="238" y="786" on="0"/>
        <pt x="281" y="786" on="1"/>
        <pt x="324" y="786" on="0"/>
        <pt x="377" y="738" on="0"/>
        <pt x="377" y="702" on="1"/>
        <pt x="377" y="667" on="0"/>
        <pt x="324" y="619" on="0"/>
      </contour>
      <contour>
        <pt x="281" y="653" on="1"/>
        <pt x="310" y="653" on="0"/>
        <pt x="340" y="679" on="0"/>
        <pt x="340" y="702" on="1"/>
        <pt x="340" y="725" on="0"/>
        <pt x="310" y="753" on="0"/>
        <pt x="281" y="753" on="1"/>
        <pt x="252" y="753" on="0"/>
        <pt x="222" y="725" on="0"/>
        <pt x="222" y="702" on="1"/>
        <pt x="222" y="679" on="0"/>
        <pt x="252" y="653" on="0"/>
      </contour>
    </TTGlyph>
    <TTGlyph name="Aringacute" xMin="9" yMin="0" xMax="615" yMax="951">
      <contour>
        <pt x="9" y="6" on="1"/>
        <pt x="235" y="653" on="1"/>
        <pt x="191" y="683" on="0"/>
        <pt x="191" y="740" on="1"/>
        <pt x="191" y="783" on="0"/>
        <pt x="243" y="844" on="0"/>
        <pt x="288" y="851" on="1"/>
        <pt x="352" y="951" on="1"/>
        <pt x="420" y="951" on="1"/>
        <pt x="350" y="846" on="1"/>
        <pt x="387" y="836" on="0"/>
        <pt x="430" y="778" on="0"/>
        <pt x="430" y="740" on="1"/>
        <pt x="430" y="714" on="0"/>
        <pt x="408" y="669" on="0"/>
        <pt x="388" y="655" on="1"/>
        <pt x="615" y="6" on="1"/>
        <pt x="615" y="0" on="1"/>
        <pt x="551" y="0" on="1"/>
        <pt x="470" y="232" on="1"/>
        <pt x="154" y="232" on="1"/>
        <pt x="73" y="0" on="1"/>
        <pt x="9" y="0" on="1"/>
      </contour>
      <contour>
        <pt x="311" y="673" on="1"/>
        <pt x="343" y="673" on="0"/>
        <pt x="382" y="710" on="0"/>
        <pt x="382" y="740" on="1"/>
        <pt x="382" y="771" on="0"/>
        <pt x="344" y="808" on="0"/>
        <pt x="311" y="808" on="1"/>
        <pt x="277" y="808" on="0"/>
        <pt x="240" y="771" on="0"/>
        <pt x="240" y="740" on="1"/>
        <pt x="240" y="710" on="0"/>
        <pt x="278" y="673" on="0"/>
      </contour>
      <contour>
        <pt x="451" y="290" on="1"/>
        <pt x="356" y="566" on="1"/>
        <pt x="334" y="629" on="1"/>
        <pt x="289" y="628" on="1"/>
        <pt x="268" y="566" on="1"/>
        <pt x="172" y="290" on="1"/>
      </contour>
    </TTGlyph>
    <TTGlyph name="Aringacute.sc" xMin="15" yMin="0" xMax="548" yMax="750">
      <contour>
        <pt x="15" y="5" on="1"/>
        <pt x="210" y="512" on="1"/>
        <pt x="173" y="537" on="0"/>
        <pt x="173" y="580" on="1"/>
        <pt x="173" y="615" on="0"/>
        <pt x="218" y="664" on="0"/>
        <pt x="259" y="669" on="1"/>
        <pt x="313" y="750" on="1"/>
        <pt x="378" y="750" on="1"/>
        <pt x="317" y="665" on="1"/>
        <pt x="349" y="657" on="0"/>
        <pt x="388" y="611" on="0"/>
        <pt x="388" y="580" on="1"/>
        <pt x="388" y="559" on="0"/>
        <pt x="368" y="525" on="0"/>
        <pt x="351" y="513" on="1"/>
        <pt x="548" y="5" on="1"/>
        <pt x="548" y="0" on="1"/>
        <pt x="486" y="0" on="1"/>
        <pt x="417" y="174" on="1"/>
        <pt x="144" y="174" on="1"/>
        <pt x="76" y="0" on="1"/>
        <pt x="15" y="0" on="1"/>
      </contour>
      <contour>
        <pt x="280" y="528" on="1"/>
        <pt x="309" y="528" on="0"/>
        <pt x="342" y="557" on="0"/>
        <pt x="342" y="580" on="1"/>
        <pt x="342" y="604" on="0"/>
        <pt x="309" y="632" on="0"/>
        <pt x="280" y="632" on="1"/>
        <pt x="251" y="632" on="0"/>
        <pt x="218" y="604" on="0"/>
        <pt x="218" y="580" on="1"/>
        <pt x="218" y="557" on="0"/>
        <pt x="251" y="528" on="0"/>
      </contour>
      <contour>
        <pt x="401" y="224" on="1"/>
        <pt x="319" y="436" on="1"/>
        <pt x="300" y="488" on="1"/>
        <pt x="262" y="488" on="1"/>
        <pt x="244" y="435" on="1"/>
        <pt x="160" y="224" on="1"/>
      </contour>
    </TTGlyph>
    <TTGlyph name="Atilde" xMin="8" yMin="0" xMax="614" yMax="920">
      <contour>
        <pt x="8" y="6" on="1"/>
        <pt x="263" y="740" on="1"/>
        <pt x="359" y="740" on="1"/>
        <pt x="614" y="6" on="1"/>
        <pt x="614" y="0" on="1"/>
        <pt x="551" y="0" on="1"/>
        <pt x="469" y="233" on="1"/>
        <pt x="153" y="233" on="1"/>
        <pt x="72" y="0" on="1"/>
        <pt x="8" y="0" on="1"/>
      </contour>
      <contour>
        <pt x="451" y="290" on="1"/>
        <pt x="355" y="566" on="1"/>
        <pt x="314" y="686" on="1"/>
        <pt x="308" y="686" on="1"/>
        <pt x="268" y="566" on="1"/>
        <pt x="171" y="290" on="1"/>
      </contour>
      <contour>
        <pt x="138" y="857" on="1"/>
        <pt x="161" y="886" on="0"/>
        <pt x="220" y="920" on="0"/>
        <pt x="249" y="920" on="1"/>
        <pt x="271" y="920" on="0"/>
        <pt x="308" y="907" on="0"/>
        <pt x="343" y="891" on="0"/>
        <pt x="378" y="878" on="0"/>
        <pt x="398" y="878" on="1"/>
        <pt x="438" y="878" on="0"/>
        <pt x="475" y="917" on="1"/>
        <pt x="500" y="894" on="1"/>
        <pt x="480" y="863" on="0"/>
        <pt x="419" y="828" on="0"/>
        <pt x="388" y="828" on="1"/>
        <pt x="368" y="828" on="0"/>
        <pt x="331" y="841" on="0"/>
        <pt x="295" y="857" on="0"/>
        <pt x="260" y="870" on="0"/>
        <pt x="241" y="870" on="1"/>
        <pt x="221" y="870" on="0"/>
        <pt x="181" y="850" on="0"/>
        <pt x="162" y="832" on="1"/>
      </contour>
    </TTGlyph>
    <TTGlyph name="Atilde.sc" xMin="14" yMin="0" xMax="547" yMax="724">
      <contour>
        <pt x="14" y="5" on="1"/>
        <pt x="234" y="577" on="1"/>
        <pt x="328" y="577" on="1"/>
        <pt x="547" y="5" on="1"/>
        <pt x="547" y="0" on="1"/>
        <pt x="486" y="0" on="1"/>
        <pt x="417" y="174" on="1"/>
        <pt x="144" y="174" on="1"/>
        <pt x="76" y="0" on="1"/>
        <pt x="14" y="0" on="1"/>
      </contour>
      <contour>
        <pt x="401" y="224" on="1"/>
        <pt x="319" y="436" on="1"/>
        <pt x="283" y="528" on="1"/>
        <pt x="277" y="528" on="1"/>
        <pt x="243" y="435" on="1"/>
        <pt x="160" y="224" on="1"/>
      </contour>
      <contour>
        <pt x="128" y="669" on="1"/>
        <pt x="148" y="695" on="0"/>
        <pt x="200" y="724" on="0"/>
        <pt x="226" y="724" on="1"/>
        <pt x="245" y="724" on="0"/>
        <pt x="278" y="714" on="0"/>
        <pt x="309" y="702" on="0"/>
        <pt x="340" y="692" on="0"/>
        <pt x="358" y="692" on="1"/>
        <pt x="394" y="692" on="0"/>
        <pt x="427" y="722" on="1"/>
        <pt x="449" y="703" on="1"/>
        <pt x="429" y="676" on="0"/>
        <pt x="375" y="646" on="0"/>
        <pt x="348" y="646" on="1"/>
        <pt x="330" y="646" on="0"/>
        <pt x="297" y="656" on="0"/>
        <pt x="266" y="668" on="0"/>
        <pt x="234" y="678" on="0"/>
        <pt x="218" y="678" on="1"/>
        <pt x="181" y="678" on="0"/>
        <pt x="148" y="648" on="1"/>
      </contour>
    </TTGlyph>
    <TTGlyph name="B" xMin="88" yMin="-10" xMax="570" yMax="749">
      <contour>
        <pt x="301" y="-10" on="1"/>
        <pt x="252" y="-10" on="0"/>
        <pt x="138" y="-2" on="0"/>
        <pt x="88" y="5" on="1"/>
        <pt x="88" y="736" on="1"/>
        <pt x="122" y="739" on="0"/>
        <pt x="178" y="744" on="0"/>
        <pt x="226" y="747" on="0"/>
        <pt x="269" y="749" on="0"/>
        <pt x="290" y="749" on="1"/>
        <pt x="425" y="749" on="0"/>
        <pt x="546" y="655" on="0"/>
        <pt x="546" y="551" on="1"/>
        <pt x="546" y="482" on="0"/>
        <pt x="480" y="391" on="0"/>
        <pt x="422" y="379" on="1"/>
        <pt x="422" y="375" on="1"/>
        <pt x="493" y="363" on="0"/>
        <pt x="570" y="269" on="0"/>
        <pt x="570" y="193" on="1"/>
        <pt x="570" y="-10" on="0"/>
      </contour>
      <contour>
        <pt x="302" y="43" on="1"/>
        <pt x="405" y="43" on="0"/>
        <pt x="504" y="118" on="0"/>
        <pt x="504" y="196" on="1"/>
        <pt x="504" y="275" on="0"/>
        <pt x="409" y="349" on="0"/>
        <pt x="305" y="349" on="1"/>
        <pt x="150" y="349" on="1"/>
        <pt x="150" y="53" on="1"/>
        <pt x="172" y="48" on="0"/>
        <pt x="256" y="43" on="0"/>
      </contour>
      <contour>
        <pt x="303" y="401" on="1"/>
        <pt x="351" y="401" on="0"/>
        <pt x="419" y="417" on="0"/>
        <pt x="461" y="453" on="0"/>
        <pt x="480" y="509" on="0"/>
        <pt x="480" y="549" on="1"/>
        <pt x="480" y="627" on="0"/>
        <pt x="393" y="696" on="0"/>
        <pt x="293" y="696" on="1"/>
        <pt x="250" y="696" on="0"/>
        <pt x="182" y="692" on="0"/>
        <pt x="150" y="687" on="1"/>
        <pt x="150" y="401" on="1"/>
      </contour>
    </TTGlyph>
    <TTGlyph name="B.sc" xMin="82" yMin="-8" xMax="507" yMax="584">
      <contour>
        <pt x="270" y="-8" on="1"/>
        <pt x="227" y="-8" on="0"/>
        <pt x="128" y="-2" on="0"/>
        <pt x="82" y="4" on="1"/>
        <pt x="82" y="574" on="1"/>
        <pt x="142" y="579" on="0"/>
        <pt x="223" y="584" on="0"/>
        <pt x="261" y="584" on="1"/>
        <pt x="380" y="584" on="0"/>
        <pt x="486" y="510" on="0"/>
        <pt x="486" y="429" on="1"/>
        <pt x="486" y="375" on="0"/>
        <pt x="429" y="305" on="0"/>
        <pt x="378" y="296" on="1"/>
        <pt x="378" y="293" on="1"/>
        <pt x="440" y="282" on="0"/>
        <pt x="507" y="211" on="0"/>
        <pt x="507" y="152" on="1"/>
        <pt x="507" y="-8" on="0"/>
      </contour>
      <contour>
        <pt x="272" y="41" on="1"/>
        <pt x="360" y="41" on="0"/>
        <pt x="443" y="97" on="0"/>
        <pt x="443" y="155" on="1"/>
        <pt x="443" y="214" on="0"/>
        <pt x="364" y="269" on="0"/>
        <pt x="277" y="269" on="1"/>
        <pt x="143" y="269" on="1"/>
        <pt x="143" y="48" on="1"/>
        <pt x="161" y="45" on="0"/>
        <pt x="230" y="41" on="0"/>
      </contour>
      <contour>
        <pt x="274" y="315" on="1"/>
        <pt x="355" y="315" on="0"/>
        <pt x="423" y="366" on="0"/>
        <pt x="423" y="426" on="1"/>
        <pt x="423" y="485" on="0"/>
        <pt x="350" y="535" on="0"/>
        <pt x="264" y="535" on="1"/>
        <pt x="228" y="535" on="0"/>
        <pt x="170" y="532" on="0"/>
        <pt x="143" y="528" on="1"/>
        <pt x="143" y="315" on="1"/>
      </contour>
    </TTGlyph>
    <TTGlyph name="C" xMin="51" yMin="-9" xMax="514" yMax="749">
      <contour>
        <pt x="370" y="-9" on="1"/>
        <pt x="208" y="-8" on="0"/>
        <pt x="51" y="177" on="0"/>
        <pt x="51" y="369" on="1"/>
        <pt x="51" y="565" on="0"/>
        <pt x="207" y="749" on="0"/>
        <pt x="370" y="749" on="1"/>
        <pt x="400" y="749" on="0"/>
        <pt x="477" y="741" on="0"/>
        <pt x="514" y="734" on="1"/>
        <pt x="514" y="677" on="1"/>
        <pt x="478" y="684" on="0"/>
        <pt x="407" y="691" on="0"/>
        <pt x="377" y="691" on="1"/>
        <pt x="243" y="691" on="0"/>
        <pt x="118" y="538" on="0"/>
        <pt x="118" y="369" on="1"/>
        <pt x="118" y="204" on="0"/>
        <pt x="241" y="49" on="0"/>
        <pt x="370" y="49" on="1"/>
        <pt x="383" y="49" on="0"/>
        <pt x="420" y="51" on="0"/>
        <pt x="461" y="56" on="0"/>
        <pt x="499" y="62" on="0"/>
        <pt x="514" y="65" on="1"/>
        <pt x="514" y="9" on="1"/>
        <pt x="484" y="1" on="0"/>
        <pt x="405" y="-9" on="0"/>
      </contour>
    </TTGlyph>
    <TTGlyph name="C.sc" xMin="51" yMin="-8" xMax="456" yMax="585">
      <contour>
        <pt x="327" y="-8" on="1"/>
        <pt x="187" y="-7" on="0"/>
        <pt x="51" y="138" on="0"/>
        <pt x="51" y="288" on="1"/>
        <pt x="51" y="440" on="0"/>
        <pt x="186" y="585" on="0"/>
        <pt x="328" y="585" on="1"/>
        <pt x="355" y="585" on="0"/>
        <pt x="423" y="578" on="0"/>
        <pt x="456" y="572" on="1"/>
        <pt x="456" y="518" on="1"/>
        <pt x="424" y="524" on="0"/>
        <pt x="361" y="530" on="0"/>
        <pt x="334" y="530" on="1"/>
        <pt x="221" y="530" on="0"/>
        <pt x="116" y="415" on="0"/>
        <pt x="116" y="288" on="1"/>
        <pt x="116" y="163" on="0"/>
        <pt x="219" y="48" on="0"/>
        <pt x="329" y="48" on="1"/>
        <pt x="341" y="48" on="0"/>
        <pt x="374" y="50" on="0"/>
        <pt x="409" y="53" on="0"/>
        <pt x="443" y="58" on="0"/>
        <pt x="456" y="60" on="1"/>
        <pt x="456" y="8" on="1"/>
        <pt x="430" y="1" on="0"/>
        <pt x="359" y="-8" on="0"/>
      </contour>
    </TTGlyph>
    <TTGlyph name="Cacute" xMin="51" yMin="-9" xMax="514" yMax="933">
      <contour>
        <pt x="370" y="-9" on="1"/>
        <pt x="208" y="-8" on="0"/>
        <pt x="51" y="177" on="0"/>
        <pt x="51" y="369" on="1"/>
        <pt x="51" y="565" on="0"/>
        <pt x="207" y="749" on="0"/>
        <pt x="370" y="749" on="1"/>
        <pt x="400" y="749" on="0"/>
        <pt x="477" y="741" on="0"/>
        <pt x="514" y="734" on="1"/>
        <pt x="514" y="677" on="1"/>
        <pt x="478" y="684" on="0"/>
        <pt x="407" y="691" on="0"/>
        <pt x="377" y="691" on="1"/>
        <pt x="243" y="691" on="0"/>
        <pt x="118" y="538" on="0"/>
        <pt x="118" y="369" on="1"/>
        <pt x="118" y="204" on="0"/>
        <pt x="241" y="49" on="0"/>
        <pt x="370" y="49" on="1"/>
        <pt x="383" y="49" on="0"/>
        <pt x="420" y="51" on="0"/>
        <pt x="461" y="56" on="0"/>
        <pt x="499" y="62" on="0"/>
        <pt x="514" y="65" on="1"/>
        <pt x="514" y="9" on="1"/>
        <pt x="484" y="1" on="0"/>
        <pt x="405" y="-9" on="0"/>
      </contour>
      <contour>
        <pt x="300" y="800" on="1"/>
        <pt x="376" y="933" on="1"/>
        <pt x="444" y="933" on="1"/>
        <pt x="352" y="795" on="1"/>
      </contour>
    </TTGlyph>
    <TTGlyph name="Cacute.sc" xMin="51" yMin="-8" xMax="456" yMax="734">
      <contour>
        <pt x="327" y="-8" on="1"/>
        <pt x="187" y="-7" on="0"/>
        <pt x="51" y="138" on="0"/>
        <pt x="51" y="288" on="1"/>
        <pt x="51" y="440" on="0"/>
        <pt x="186" y="585" on="0"/>
        <pt x="328" y="585" on="1"/>
        <pt x="354" y="585" on="0"/>
        <pt x="422" y="578" on="0"/>
        <pt x="456" y="572" on="1"/>
        <pt x="456" y="518" on="1"/>
        <pt x="422" y="524" on="0"/>
        <pt x="360" y="530" on="0"/>
        <pt x="334" y="530" on="1"/>
        <pt x="220" y="530" on="0"/>
        <pt x="116" y="416" on="0"/>
        <pt x="116" y="288" on="1"/>
        <pt x="116" y="163" on="0"/>
        <pt x="219" y="48" on="0"/>
        <pt x="329" y="48" on="1"/>
        <pt x="341" y="48" on="0"/>
        <pt x="374" y="50" on="0"/>
        <pt x="409" y="53" on="0"/>
        <pt x="443" y="58" on="0"/>
        <pt x="456" y="60" on="1"/>
        <pt x="456" y="8" on="1"/>
        <pt x="429" y="1" on="0"/>
        <pt x="358" y="-8" on="0"/>
      </contour>
      <contour>
        <pt x="264" y="626" on="1"/>
        <pt x="329" y="734" on="1"/>
        <pt x="395" y="734" on="1"/>
        <pt x="313" y="621" on="1"/>
      </contour>
    </TTGlyph>
    <TTGlyph name="Ccaron" xMin="51" yMin="-9" xMax="514" yMax="936">
      <contour>
        <pt x="370" y="-9" on="1"/>
        <pt x="208" y="-8" on="0"/>
        <pt x="51" y="177" on="0"/>
        <pt x="51" y="369" on="1"/>
        <pt x="51" y="565" on="0"/>
        <pt x="207" y="749" on="0"/>
        <pt x="370" y="749" on="1"/>
        <pt x="400" y="749" on="0"/>
        <pt x="477" y="741" on="0"/>
        <pt x="514" y="734" on="1"/>
        <pt x="514" y="677" on="1"/>
        <pt x="478" y="684" on="0"/>
        <pt x="407" y="691" on="0"/>
        <pt x="377" y="691" on="1"/>
        <pt x="243" y="691" on="0"/>
        <pt x="118" y="538" on="0"/>
        <pt x="118" y="369" on="1"/>
        <pt x="118" y="204" on="0"/>
        <pt x="241" y="49" on="0"/>
        <pt x="370" y="49" on="1"/>
        <pt x="383" y="49" on="0"/>
        <pt x="420" y="51" on="0"/>
        <pt x="461" y="56" on="0"/>
        <pt x="499" y="62" on="0"/>
        <pt x="514" y="65" on="1"/>
        <pt x="514" y="9" on="1"/>
        <pt x="484" y="1" on="0"/>
        <pt x="405" y="-9" on="0"/>
      </contour>
      <contour>
        <pt x="186" y="936" on="1"/>
        <pt x="333" y="863" on="1"/>
        <pt x="481" y="936" on="1"/>
        <pt x="481" y="879" on="1"/>
        <pt x="333" y="806" on="1"/>
        <pt x="186" y="879" on="1"/>
      </contour>
    </TTGlyph>
    <TTGlyph name="Ccaron.sc" xMin="51" yMin="-8" xMax="456" yMax="736">
      <contour>
        <pt x="327" y="-8" on="1"/>
        <pt x="187" y="-7" on="0"/>
        <pt x="51" y="138" on="0"/>
        <pt x="51" y="288" on="1"/>
        <pt x="51" y="440" on="0"/>
        <pt x="186" y="585" on="0"/>
        <pt x="328" y="585" on="1"/>
        <pt x="354" y="585" on="0"/>
        <pt x="422" y="578" on="0"/>
        <pt x="456" y="572" on="1"/>
        <pt x="456" y="518" on="1"/>
        <pt x="422" y="524" on="0"/>
        <pt x="360" y="530" on="0"/>
        <pt x="334" y="530" on="1"/>
        <pt x="220" y="530" on="0"/>
        <pt x="116" y="416" on="0"/>
        <pt x="116" y="288" on="1"/>
        <pt x="116" y="163" on="0"/>
        <pt x="219" y="48" on="0"/>
        <pt x="329" y="48" on="1"/>
        <pt x="341" y="48" on="0"/>
        <pt x="374" y="50" on="0"/>
        <pt x="409" y="53" on="0"/>
        <pt x="443" y="58" on="0"/>
        <pt x="456" y="60" on="1"/>
        <pt x="456" y="8" on="1"/>
        <pt x="429" y="1" on="0"/>
        <pt x="358" y="-8" on="0"/>
      </contour>
      <contour>
        <pt x="165" y="736" on="1"/>
        <pt x="296" y="679" on="1"/>
        <pt x="426" y="736" on="1"/>
        <pt x="426" y="686" on="1"/>
        <pt x="295" y="628" on="1"/>
        <pt x="165" y="686" on="1"/>
      </contour>
    </TTGlyph>
    <TTGlyph name="Ccedilla" xMin="51" yMin="-220" xMax="514" yMax="749">
      <contour>
        <pt x="291" y="-220" on="1"/>
        <pt x="274" y="-220" on="0"/>
        <pt x="233" y="-214" on="0"/>
        <pt x="214" y="-209" on="1"/>
        <pt x="214" y="-160" on="1"/>
        <pt x="249" y="-171" on="0"/>
        <pt x="279" y="-171" on="1"/>
        <pt x="317" y="-171" on="0"/>
        <pt x="352" y="-139" on="0"/>
        <pt x="352" y="-104" on="1"/>
        <pt x="352" y="-63" on="0"/>
        <pt x="320" y="-6" on="1"/>
        <pt x="183" y="8" on="0"/>
        <pt x="51" y="192" on="0"/>
        <pt x="51" y="369" on="1"/>
        <pt x="51" y="565" on="0"/>
        <pt x="207" y="749" on="0"/>
        <pt x="370" y="749" on="1"/>
        <pt x="400" y="749" on="0"/>
        <pt x="477" y="741" on="0"/>
        <pt x="514" y="734" on="1"/>
        <pt x="514" y="677" on="1"/>
        <pt x="478" y="684" on="0"/>
        <pt x="407" y="691" on="0"/>
        <pt x="377" y="691" on="1"/>
        <pt x="243" y="691" on="0"/>
        <pt x="118" y="538" on="0"/>
        <pt x="118" y="369" on="1"/>
        <pt x="118" y="204" on="0"/>
        <pt x="241" y="49" on="0"/>
        <pt x="370" y="49" on="1"/>
        <pt x="383" y="49" on="0"/>
        <pt x="420" y="51" on="0"/>
        <pt x="461" y="56" on="0"/>
        <pt x="499" y="62" on="0"/>
        <pt x="514" y="65" on="1"/>
        <pt x="514" y="9" on="1"/>
        <pt x="485" y="1" on="0"/>
        <pt x="409" y="-8" on="0"/>
        <pt x="374" y="-9" on="1"/>
        <pt x="391" y="-41" on="0"/>
        <pt x="405" y="-86" on="0"/>
        <pt x="405" y="-109" on="1"/>
        <pt x="405" y="-163" on="0"/>
        <pt x="346" y="-220" on="0"/>
      </contour>
    </TTGlyph>
    <TTGlyph name="Ccedilla.sc" xMin="51" yMin="-172" xMax="456" yMax="585">
      <contour>
        <pt x="261" y="-172" on="1"/>
        <pt x="247" y="-172" on="0"/>
        <pt x="211" y="-168" on="0"/>
        <pt x="193" y="-163" on="1"/>
        <pt x="193" y="-119" on="1"/>
        <pt x="222" y="-127" on="0"/>
        <pt x="250" y="-127" on="1"/>
        <pt x="284" y="-127" on="0"/>
        <pt x="312" y="-102" on="0"/>
        <pt x="312" y="-76" on="1"/>
        <pt x="312" y="-62" on="0"/>
        <pt x="300" y="-28" on="0"/>
        <pt x="286" y="-5" on="1"/>
        <pt x="51" y="13" on="0"/>
        <pt x="51" y="288" on="1"/>
        <pt x="51" y="440" on="0"/>
        <pt x="186" y="585" on="0"/>
        <pt x="328" y="585" on="1"/>
        <pt x="354" y="585" on="0"/>
        <pt x="422" y="578" on="0"/>
        <pt x="456" y="572" on="1"/>
        <pt x="456" y="518" on="1"/>
        <pt x="422" y="524" on="0"/>
        <pt x="360" y="530" on="0"/>
        <pt x="334" y="530" on="1"/>
        <pt x="220" y="530" on="0"/>
        <pt x="116" y="416" on="0"/>
        <pt x="116" y="288" on="1"/>
        <pt x="116" y="163" on="0"/>
        <pt x="219" y="48" on="0"/>
        <pt x="329" y="48" on="1"/>
        <pt x="341" y="48" on="0"/>
        <pt x="374" y="50" on="0"/>
        <pt x="409" y="53" on="0"/>
        <pt x="443" y="58" on="0"/>
        <pt x="456" y="60" on="1"/>
        <pt x="456" y="8" on="1"/>
        <pt x="430" y="1" on="0"/>
        <pt x="365" y="-7" on="0"/>
        <pt x="336" y="-7" on="1"/>
        <pt x="349" y="-31" on="0"/>
        <pt x="361" y="-67" on="0"/>
        <pt x="361" y="-84" on="1"/>
        <pt x="361" y="-126" on="0"/>
        <pt x="310" y="-172" on="0"/>
      </contour>
    </TTGlyph>
    <TTGlyph name="Ccircumflex" xMin="51" yMin="-9" xMax="514" yMax="944">
      <contour>
        <pt x="370" y="-9" on="1"/>
        <pt x="208" y="-8" on="0"/>
        <pt x="51" y="177" on="0"/>
        <pt x="51" y="369" on="1"/>
        <pt x="51" y="565" on="0"/>
        <pt x="207" y="749" on="0"/>
        <pt x="370" y="749" on="1"/>
        <pt x="400" y="749" on="0"/>
        <pt x="477" y="741" on="0"/>
        <pt x="514" y="734" on="1"/>
        <pt x="514" y="677" on="1"/>
        <pt x="478" y="684" on="0"/>
        <pt x="407" y="691" on="0"/>
        <pt x="377" y="691" on="1"/>
        <pt x="243" y="691" on="0"/>
        <pt x="118" y="538" on="0"/>
        <pt x="118" y="369" on="1"/>
        <pt x="118" y="204" on="0"/>
        <pt x="241" y="49" on="0"/>
        <pt x="370" y="49" on="1"/>
        <pt x="383" y="49" on="0"/>
        <pt x="420" y="51" on="0"/>
        <pt x="461" y="56" on="0"/>
        <pt x="499" y="62" on="0"/>
        <pt x="514" y="65" on="1"/>
        <pt x="514" y="9" on="1"/>
        <pt x="484" y="1" on="0"/>
        <pt x="405" y="-9" on="0"/>
      </contour>
      <contour>
        <pt x="183" y="872" on="1"/>
        <pt x="330" y="944" on="1"/>
        <pt x="478" y="872" on="1"/>
        <pt x="478" y="814" on="1"/>
        <pt x="330" y="887" on="1"/>
        <pt x="183" y="814" on="1"/>
      </contour>
    </TTGlyph>
    <TTGlyph name="Ccircumflex.sc" xMin="51" yMin="-8" xMax="456" yMax="742">
      <contour>
        <pt x="327" y="-8" on="1"/>
        <pt x="187" y="-7" on="0"/>
        <pt x="51" y="138" on="0"/>
        <pt x="51" y="288" on="1"/>
        <pt x="51" y="440" on="0"/>
        <pt x="186" y="585" on="0"/>
        <pt x="328" y="585" on="1"/>
        <pt x="354" y="585" on="0"/>
        <pt x="422" y="578" on="0"/>
        <pt x="456" y="572" on="1"/>
        <pt x="456" y="518" on="1"/>
        <pt x="422" y="524" on="0"/>
        <pt x="360" y="530" on="0"/>
        <pt x="334" y="530" on="1"/>
        <pt x="220" y="530" on="0"/>
        <pt x="116" y="416" on="0"/>
        <pt x="116" y="288" on="1"/>
        <pt x="116" y="163" on="0"/>
        <pt x="219" y="48" on="0"/>
        <pt x="329" y="48" on="1"/>
        <pt x="341" y="48" on="0"/>
        <pt x="374" y="50" on="0"/>
        <pt x="409" y="53" on="0"/>
        <pt x="443" y="58" on="0"/>
        <pt x="456" y="60" on="1"/>
        <pt x="456" y="8" on="1"/>
        <pt x="429" y="1" on="0"/>
        <pt x="358" y="-8" on="0"/>
      </contour>
      <contour>
        <pt x="162" y="684" on="1"/>
        <pt x="293" y="742" on="1"/>
        <pt x="425" y="684" on="1"/>
        <pt x="425" y="633" on="1"/>
        <pt x="294" y="690" on="1"/>
        <pt x="162" y="633" on="1"/>
      </contour>
    </TTGlyph>
    <TTGlyph name="Cdotaccent" xMin="51" yMin="-9" xMax="514" yMax="899">
      <contour>
        <pt x="333" y="811" on="1"/>
        <pt x="312" y="811" on="0"/>
        <pt x="288" y="832" on="0"/>
        <pt x="288" y="855" on="1"/>
        <pt x="288" y="878" on="0"/>
        <pt x="312" y="899" on="0"/>
        <pt x="333" y="899" on="1"/>
        <pt x="354" y="899" on="0"/>
        <pt x="379" y="878" on="0"/>
        <pt x="379" y="855" on="1"/>
        <pt x="379" y="832" on="0"/>
        <pt x="354" y="811" on="0"/>
      </contour>
      <contour>
        <pt x="370" y="-9" on="1"/>
        <pt x="208" y="-8" on="0"/>
        <pt x="51" y="177" on="0"/>
        <pt x="51" y="369" on="1"/>
        <pt x="51" y="565" on="0"/>
        <pt x="207" y="749" on="0"/>
        <pt x="370" y="749" on="1"/>
        <pt x="400" y="749" on="0"/>
        <pt x="477" y="741" on="0"/>
        <pt x="514" y="734" on="1"/>
        <pt x="514" y="677" on="1"/>
        <pt x="478" y="684" on="0"/>
        <pt x="407" y="691" on="0"/>
        <pt x="377" y="691" on="1"/>
        <pt x="243" y="691" on="0"/>
        <pt x="118" y="538" on="0"/>
        <pt x="118" y="369" on="1"/>
        <pt x="118" y="204" on="0"/>
        <pt x="241" y="49" on="0"/>
        <pt x="370" y="49" on="1"/>
        <pt x="383" y="49" on="0"/>
        <pt x="420" y="51" on="0"/>
        <pt x="461" y="56" on="0"/>
        <pt x="499" y="62" on="0"/>
        <pt x="514" y="65" on="1"/>
        <pt x="514" y="9" on="1"/>
        <pt x="484" y="1" on="0"/>
        <pt x="405" y="-9" on="0"/>
      </contour>
    </TTGlyph>
    <TTGlyph name="Cdotaccent.sc" xMin="51" yMin="-8" xMax="456" yMax="712">
      <contour>
        <pt x="327" y="-8" on="1"/>
        <pt x="187" y="-7" on="0"/>
        <pt x="51" y="138" on="0"/>
        <pt x="51" y="288" on="1"/>
        <pt x="51" y="440" on="0"/>
        <pt x="186" y="585" on="0"/>
        <pt x="328" y="585" on="1"/>
        <pt x="354" y="585" on="0"/>
        <pt x="422" y="578" on="0"/>
        <pt x="456" y="572" on="1"/>
        <pt x="456" y="518" on="1"/>
        <pt x="422" y="524" on="0"/>
        <pt x="360" y="530" on="0"/>
        <pt x="334" y="530" on="1"/>
        <pt x="220" y="530" on="0"/>
        <pt x="116" y="416" on="0"/>
        <pt x="116" y="288" on="1"/>
        <pt x="116" y="163" on="0"/>
        <pt x="219" y="48" on="0"/>
        <pt x="329" y="48" on="1"/>
        <pt x="341" y="48" on="0"/>
        <pt x="374" y="50" on="0"/>
        <pt x="409" y="53" on="0"/>
        <pt x="443" y="58" on="0"/>
        <pt x="456" y="60" on="1"/>
        <pt x="456" y="8" on="1"/>
        <pt x="429" y="1" on="0"/>
        <pt x="358" y="-8" on="0"/>
      </contour>
      <contour>
        <pt x="296" y="632" on="1"/>
        <pt x="255" y="632" on="0"/>
        <pt x="255" y="672" on="1"/>
        <pt x="255" y="712" on="0"/>
        <pt x="296" y="712" on="1"/>
        <pt x="316" y="712" on="0"/>
        <pt x="339" y="693" on="0"/>
        <pt x="339" y="672" on="1"/>
        <pt x="339" y="651" on="0"/>
        <pt x="316" y="632" on="0"/>
      </contour>
    </TTGlyph>
    <TTGlyph name="D" xMin="88" yMin="-13" xMax="619" yMax="749">
      <contour>
        <pt x="246" y="-13" on="1"/>
        <pt x="198" y="-13" on="0"/>
        <pt x="115" y="-7" on="0"/>
        <pt x="88" y="-1" on="1"/>
        <pt x="88" y="736" on="1"/>
        <pt x="110" y="739" on="0"/>
        <pt x="160" y="744" on="0"/>
        <pt x="208" y="747" on="0"/>
        <pt x="252" y="749" on="0"/>
        <pt x="269" y="749" on="1"/>
        <pt x="450" y="749" on="0"/>
        <pt x="619" y="565" on="0"/>
        <pt x="619" y="370" on="1"/>
        <pt x="619" y="271" on="0"/>
        <pt x="575" y="126" on="0"/>
        <pt x="484" y="32" on="0"/>
        <pt x="343" y="-13" on="0"/>
      </contour>
      <contour>
        <pt x="262" y="44" on="1"/>
        <pt x="411" y="44" on="0"/>
        <pt x="552" y="201" on="0"/>
        <pt x="552" y="370" on="1"/>
        <pt x="552" y="538" on="0"/>
        <pt x="418" y="692" on="0"/>
        <pt x="273" y="692" on="1"/>
        <pt x="247" y="692" on="0"/>
        <pt x="180" y="688" on="0"/>
        <pt x="152" y="684" on="1"/>
        <pt x="152" y="52" on="1"/>
        <pt x="185" y="47" on="0"/>
        <pt x="233" y="44" on="0"/>
      </contour>
    </TTGlyph>
    <TTGlyph name="D.sc" xMin="82" yMin="-10" xMax="551" yMax="584">
      <contour>
        <pt x="230" y="-10" on="1"/>
        <pt x="186" y="-10" on="0"/>
        <pt x="108" y="-4" on="0"/>
        <pt x="82" y="1" on="1"/>
        <pt x="82" y="575" on="1"/>
        <pt x="123" y="580" on="0"/>
        <pt x="212" y="584" on="0"/>
        <pt x="244" y="584" on="1"/>
        <pt x="402" y="584" on="0"/>
        <pt x="551" y="441" on="0"/>
        <pt x="551" y="288" on="1"/>
        <pt x="551" y="133" on="0"/>
        <pt x="396" y="-10" on="0"/>
      </contour>
      <contour>
        <pt x="241" y="44" on="1"/>
        <pt x="368" y="44" on="0"/>
        <pt x="487" y="161" on="0"/>
        <pt x="487" y="288" on="1"/>
        <pt x="487" y="416" on="0"/>
        <pt x="374" y="530" on="0"/>
        <pt x="249" y="530" on="1"/>
        <pt x="226" y="530" on="0"/>
        <pt x="169" y="527" on="0"/>
        <pt x="144" y="524" on="1"/>
        <pt x="144" y="51" on="1"/>
        <pt x="173" y="47" on="0"/>
        <pt x="216" y="44" on="0"/>
      </contour>
    </TTGlyph>
    <TTGlyph name="Dcaron" xMin="88" yMin="-13" xMax="619" yMax="936">
      <contour>
        <pt x="160" y="936" on="1"/>
        <pt x="307" y="863" on="1"/>
        <pt x="455" y="936" on="1"/>
        <pt x="455" y="879" on="1"/>
        <pt x="307" y="806" on="1"/>
        <pt x="160" y="879" on="1"/>
      </contour>
      <contour>
        <pt x="246" y="-13" on="1"/>
        <pt x="198" y="-13" on="0"/>
        <pt x="115" y="-7" on="0"/>
        <pt x="88" y="-1" on="1"/>
        <pt x="88" y="736" on="1"/>
        <pt x="110" y="739" on="0"/>
        <pt x="160" y="744" on="0"/>
        <pt x="208" y="747" on="0"/>
        <pt x="252" y="749" on="0"/>
        <pt x="269" y="749" on="1"/>
        <pt x="450" y="749" on="0"/>
        <pt x="619" y="565" on="0"/>
        <pt x="619" y="370" on="1"/>
        <pt x="619" y="271" on="0"/>
        <pt x="575" y="126" on="0"/>
        <pt x="484" y="32" on="0"/>
        <pt x="343" y="-13" on="0"/>
      </contour>
      <contour>
        <pt x="262" y="44" on="1"/>
        <pt x="411" y="44" on="0"/>
        <pt x="552" y="201" on="0"/>
        <pt x="552" y="370" on="1"/>
        <pt x="552" y="538" on="0"/>
        <pt x="418" y="692" on="0"/>
        <pt x="273" y="692" on="1"/>
        <pt x="247" y="692" on="0"/>
        <pt x="180" y="688" on="0"/>
        <pt x="152" y="684" on="1"/>
        <pt x="152" y="52" on="1"/>
        <pt x="185" y="47" on="0"/>
        <pt x="233" y="44" on="0"/>
      </contour>
    </TTGlyph>
    <TTGlyph name="Dcaron.sc" xMin="82" yMin="-10" xMax="551" yMax="736">
      <contour>
        <pt x="230" y="-10" on="1"/>
        <pt x="186" y="-10" on="0"/>
        <pt x="108" y="-4" on="0"/>
        <pt x="82" y="1" on="1"/>
        <pt x="82" y="575" on="1"/>
        <pt x="123" y="580" on="0"/>
        <pt x="212" y="584" on="0"/>
        <pt x="244" y="584" on="1"/>
        <pt x="402" y="584" on="0"/>
        <pt x="551" y="441" on="0"/>
        <pt x="551" y="288" on="1"/>
        <pt x="551" y="133" on="0"/>
        <pt x="396" y="-10" on="0"/>
      </contour>
      <contour>
        <pt x="241" y="44" on="1"/>
        <pt x="368" y="44" on="0"/>
        <pt x="487" y="161" on="0"/>
        <pt x="487" y="288" on="1"/>
        <pt x="487" y="416" on="0"/>
        <pt x="374" y="530" on="0"/>
        <pt x="249" y="530" on="1"/>
        <pt x="226" y="530" on="0"/>
        <pt x="169" y="527" on="0"/>
        <pt x="144" y="524" on="1"/>
        <pt x="144" y="51" on="1"/>
        <pt x="173" y="47" on="0"/>
        <pt x="216" y="44" on="0"/>
      </contour>
      <contour>
        <pt x="148" y="686" on="1"/>
        <pt x="148" y="736" on="1"/>
        <pt x="279" y="679" on="1"/>
        <pt x="409" y="736" on="1"/>
        <pt x="409" y="686" on="1"/>
        <pt x="278" y="628" on="1"/>
      </contour>
    </TTGlyph>
    <TTGlyph name="Dcroat" xMin="3" yMin="-13" xMax="629" yMax="749">
      <contour>
        <pt x="3" y="397" on="1"/>
        <pt x="98" y="397" on="1"/>
        <pt x="98" y="736" on="1"/>
        <pt x="120" y="739" on="0"/>
        <pt x="170" y="744" on="0"/>
        <pt x="218" y="747" on="0"/>
        <pt x="262" y="749" on="0"/>
        <pt x="279" y="749" on="1"/>
        <pt x="460" y="749" on="0"/>
        <pt x="629" y="565" on="0"/>
        <pt x="629" y="370" on="1"/>
        <pt x="629" y="271" on="0"/>
        <pt x="585" y="126" on="0"/>
        <pt x="494" y="32" on="0"/>
        <pt x="353" y="-13" on="0"/>
        <pt x="256" y="-13" on="1"/>
        <pt x="208" y="-13" on="0"/>
        <pt x="125" y="-7" on="0"/>
        <pt x="98" y="-1" on="1"/>
        <pt x="98" y="341" on="1"/>
        <pt x="3" y="341" on="1"/>
      </contour>
      <contour>
        <pt x="272" y="44" on="1"/>
        <pt x="421" y="44" on="0"/>
        <pt x="562" y="201" on="0"/>
        <pt x="562" y="370" on="1"/>
        <pt x="562" y="538" on="0"/>
        <pt x="428" y="692" on="0"/>
        <pt x="283" y="692" on="1"/>
        <pt x="257" y="692" on="0"/>
        <pt x="190" y="688" on="0"/>
        <pt x="162" y="684" on="1"/>
        <pt x="162" y="397" on="1"/>
        <pt x="341" y="397" on="1"/>
        <pt x="341" y="341" on="1"/>
        <pt x="162" y="341" on="1"/>
        <pt x="162" y="52" on="1"/>
        <pt x="195" y="47" on="0"/>
        <pt x="243" y="44" on="0"/>
      </contour>
    </TTGlyph>
    <TTGlyph name="Dcroat.sc" xMin="11" yMin="-10" xMax="561" yMax="584">
      <contour>
        <pt x="11" y="314" on="1"/>
        <pt x="92" y="314" on="1"/>
        <pt x="92" y="575" on="1"/>
        <pt x="133" y="580" on="0"/>
        <pt x="223" y="584" on="0"/>
        <pt x="253" y="584" on="1"/>
        <pt x="412" y="584" on="0"/>
        <pt x="561" y="441" on="0"/>
        <pt x="561" y="288" on="1"/>
        <pt x="561" y="133" on="0"/>
        <pt x="405" y="-10" on="0"/>
        <pt x="234" y="-10" on="1"/>
        <pt x="192" y="-10" on="0"/>
        <pt x="116" y="-4" on="0"/>
        <pt x="92" y="1" on="1"/>
        <pt x="92" y="262" on="1"/>
        <pt x="11" y="262" on="1"/>
      </contour>
      <contour>
        <pt x="251" y="44" on="1"/>
        <pt x="377" y="44" on="0"/>
        <pt x="496" y="161" on="0"/>
        <pt x="496" y="288" on="1"/>
        <pt x="496" y="416" on="0"/>
        <pt x="382" y="530" on="0"/>
        <pt x="258" y="530" on="1"/>
        <pt x="235" y="530" on="0"/>
        <pt x="179" y="527" on="0"/>
        <pt x="154" y="524" on="1"/>
        <pt x="154" y="314" on="1"/>
        <pt x="306" y="314" on="1"/>
        <pt x="306" y="262" on="1"/>
        <pt x="154" y="262" on="1"/>
        <pt x="154" y="51" on="1"/>
        <pt x="183" y="47" on="0"/>
        <pt x="226" y="44" on="0"/>
      </contour>
    </TTGlyph>
    <TTGlyph name="Ddotbelow" xMin="88" yMin="-174" xMax="619" yMax="749">
      <contour>
        <pt x="314" y="-174" on="1"/>
        <pt x="293" y="-174" on="0"/>
        <pt x="270" y="-154" on="0"/>
        <pt x="270" y="-130" on="1"/>
        <pt x="270" y="-86" on="0"/>
        <pt x="314" y="-86" on="1"/>
        <pt x="335" y="-86" on="0"/>
        <pt x="359" y="-107" on="0"/>
        <pt x="359" y="-130" on="1"/>
        <pt x="359" y="-154" on="0"/>
        <pt x="335" y="-174" on="0"/>
      </contour>
      <contour>
        <pt x="246" y="-13" on="1"/>
        <pt x="198" y="-13" on="0"/>
        <pt x="115" y="-7" on="0"/>
        <pt x="88" y="-1" on="1"/>
        <pt x="88" y="736" on="1"/>
        <pt x="110" y="739" on="0"/>
        <pt x="160" y="744" on="0"/>
        <pt x="208" y="747" on="0"/>
        <pt x="252" y="749" on="0"/>
        <pt x="269" y="749" on="1"/>
        <pt x="450" y="749" on="0"/>
        <pt x="619" y="565" on="0"/>
        <pt x="619" y="370" on="1"/>
        <pt x="619" y="271" on="0"/>
        <pt x="575" y="126" on="0"/>
        <pt x="484" y="32" on="0"/>
        <pt x="343" y="-13" on="0"/>
      </contour>
      <contour>
        <pt x="262" y="44" on="1"/>
        <pt x="411" y="44" on="0"/>
        <pt x="552" y="201" on="0"/>
        <pt x="552" y="370" on="1"/>
        <pt x="552" y="538" on="0"/>
        <pt x="418" y="692" on="0"/>
        <pt x="273" y="692" on="1"/>
        <pt x="247" y="692" on="0"/>
        <pt x="180" y="688" on="0"/>
        <pt x="152" y="684" on="1"/>
        <pt x="152" y="52" on="1"/>
        <pt x="185" y="47" on="0"/>
        <pt x="233" y="44" on="0"/>
      </contour>
    </TTGlyph>
    <TTGlyph name="Ddotbelow.sc" xMin="82" yMin="-140" xMax="551" yMax="584">
      <contour>
        <pt x="230" y="-10" on="1"/>
        <pt x="186" y="-10" on="0"/>
        <pt x="108" y="-4" on="0"/>
        <pt x="82" y="1" on="1"/>
        <pt x="82" y="575" on="1"/>
        <pt x="123" y="580" on="0"/>
        <pt x="212" y="584" on="0"/>
        <pt x="244" y="584" on="1"/>
        <pt x="402" y="584" on="0"/>
        <pt x="551" y="441" on="0"/>
        <pt x="551" y="288" on="1"/>
        <pt x="551" y="133" on="0"/>
        <pt x="396" y="-10" on="0"/>
      </contour>
      <contour>
        <pt x="241" y="44" on="1"/>
        <pt x="368" y="44" on="0"/>
        <pt x="487" y="161" on="0"/>
        <pt x="487" y="288" on="1"/>
        <pt x="487" y="416" on="0"/>
        <pt x="374" y="530" on="0"/>
        <pt x="249" y="530" on="1"/>
        <pt x="226" y="530" on="0"/>
        <pt x="169" y="527" on="0"/>
        <pt x="144" y="524" on="1"/>
        <pt x="144" y="51" on="1"/>
        <pt x="173" y="47" on="0"/>
        <pt x="216" y="44" on="0"/>
      </contour>
      <contour>
        <pt x="284" y="-140" on="1"/>
        <pt x="244" y="-140" on="0"/>
        <pt x="244" y="-103" on="1"/>
        <pt x="244" y="-65" on="0"/>
        <pt x="284" y="-65" on="1"/>
        <pt x="324" y="-65" on="0"/>
        <pt x="324" y="-103" on="1"/>
        <pt x="324" y="-140" on="0"/>
      </contour>
    </TTGlyph>
    <TTGlyph name="Delta" xMin="24" yMin="0" xMax="651" yMax="740">
      <contour>
        <pt x="297" y="740" on="1"/>
        <pt x="378" y="740" on="1"/>
        <pt x="651" y="0" on="1"/>
        <pt x="24" y="0" on="1"/>
      </contour>
      <contour>
        <pt x="567" y="57" on="1"/>
        <pt x="337" y="679" on="1"/>
        <pt x="107" y="57" on="1"/>
      </contour>
    </TTGlyph>
    <TTGlyph name="E" xMin="88" yMin="0" xMax="523" yMax="740">
      <contour>
        <pt x="88" y="740" on="1"/>
        <pt x="514" y="740" on="1"/>
        <pt x="514" y="683" on="1"/>
        <pt x="152" y="683" on="1"/>
        <pt x="152" y="404" on="1"/>
        <pt x="487" y="404" on="1"/>
        <pt x="487" y="347" on="1"/>
        <pt x="152" y="347" on="1"/>
        <pt x="152" y="57" on="1"/>
        <pt x="523" y="57" on="1"/>
        <pt x="523" y="0" on="1"/>
        <pt x="88" y="0" on="1"/>
      </contour>
    </TTGlyph>
    <TTGlyph name="E.sc" xMin="83" yMin="0" xMax="467" yMax="577">
      <contour>
        <pt x="83" y="577" on="1"/>
        <pt x="460" y="577" on="1"/>
        <pt x="460" y="525" on="1"/>
        <pt x="146" y="525" on="1"/>
        <pt x="146" y="318" on="1"/>
        <pt x="436" y="318" on="1"/>
        <pt x="436" y="268" on="1"/>
        <pt x="146" y="268" on="1"/>
        <pt x="146" y="53" on="1"/>
        <pt x="467" y="53" on="1"/>
        <pt x="467" y="0" on="1"/>
        <pt x="83" y="0" on="1"/>
      </contour>
    </TTGlyph>
    <TTGlyph name="Eacute" xMin="88" yMin="0" xMax="523" yMax="933">
      <contour>
        <pt x="270" y="800" on="1"/>
        <pt x="346" y="933" on="1"/>
        <pt x="414" y="933" on="1"/>
        <pt x="322" y="795" on="1"/>
      </contour>
      <contour>
        <pt x="88" y="740" on="1"/>
        <pt x="514" y="740" on="1"/>
        <pt x="514" y="683" on="1"/>
        <pt x="152" y="683" on="1"/>
        <pt x="152" y="404" on="1"/>
        <pt x="487" y="404" on="1"/>
        <pt x="487" y="347" on="1"/>
        <pt x="152" y="347" on="1"/>
        <pt x="152" y="57" on="1"/>
        <pt x="523" y="57" on="1"/>
        <pt x="523" y="0" on="1"/>
        <pt x="88" y="0" on="1"/>
      </contour>
    </TTGlyph>
    <TTGlyph name="Eacute.sc" xMin="83" yMin="0" xMax="467" yMax="734">
      <contour>
        <pt x="83" y="577" on="1"/>
        <pt x="460" y="577" on="1"/>
        <pt x="460" y="525" on="1"/>
        <pt x="146" y="525" on="1"/>
        <pt x="146" y="318" on="1"/>
        <pt x="436" y="318" on="1"/>
        <pt x="436" y="268" on="1"/>
        <pt x="146" y="268" on="1"/>
        <pt x="146" y="53" on="1"/>
        <pt x="467" y="53" on="1"/>
        <pt x="467" y="0" on="1"/>
        <pt x="83" y="0" on="1"/>
      </contour>
      <contour>
        <pt x="242" y="626" on="1"/>
        <pt x="306" y="734" on="1"/>
        <pt x="372" y="734" on="1"/>
        <pt x="291" y="621" on="1"/>
      </contour>
    </TTGlyph>
    <TTGlyph name="Ebreve" xMin="88" yMin="0" xMax="523" yMax="955">
      <contour>
        <pt x="301" y="813" on="1"/>
        <pt x="222" y="813" on="0"/>
        <pt x="139" y="889" on="0"/>
        <pt x="139" y="955" on="1"/>
        <pt x="190" y="955" on="1"/>
        <pt x="190" y="909" on="0"/>
        <pt x="247" y="858" on="0"/>
        <pt x="301" y="858" on="1"/>
        <pt x="355" y="858" on="0"/>
        <pt x="412" y="909" on="0"/>
        <pt x="412" y="955" on="1"/>
        <pt x="464" y="955" on="1"/>
        <pt x="464" y="889" on="0"/>
        <pt x="379" y="813" on="0"/>
      </contour>
      <contour>
        <pt x="88" y="740" on="1"/>
        <pt x="514" y="740" on="1"/>
        <pt x="514" y="683" on="1"/>
        <pt x="152" y="683" on="1"/>
        <pt x="152" y="404" on="1"/>
        <pt x="487" y="404" on="1"/>
        <pt x="487" y="347" on="1"/>
        <pt x="152" y="347" on="1"/>
        <pt x="152" y="57" on="1"/>
        <pt x="523" y="57" on="1"/>
        <pt x="523" y="0" on="1"/>
        <pt x="88" y="0" on="1"/>
      </contour>
    </TTGlyph>
    <TTGlyph name="Ebreve.sc" xMin="83" yMin="0" xMax="467" yMax="749">
      <contour>
        <pt x="271" y="633" on="1"/>
        <pt x="201" y="633" on="0"/>
        <pt x="128" y="696" on="0"/>
        <pt x="128" y="749" on="1"/>
        <pt x="176" y="749" on="1"/>
        <pt x="176" y="712" on="0"/>
        <pt x="225" y="673" on="0"/>
        <pt x="271" y="673" on="1"/>
        <pt x="318" y="673" on="0"/>
        <pt x="367" y="712" on="0"/>
        <pt x="367" y="749" on="1"/>
        <pt x="415" y="749" on="1"/>
        <pt x="415" y="695" on="0"/>
        <pt x="342" y="633" on="0"/>
      </contour>
      <contour>
        <pt x="83" y="577" on="1"/>
        <pt x="460" y="577" on="1"/>
        <pt x="460" y="525" on="1"/>
        <pt x="146" y="525" on="1"/>
        <pt x="146" y="318" on="1"/>
        <pt x="436" y="318" on="1"/>
        <pt x="436" y="268" on="1"/>
        <pt x="146" y="268" on="1"/>
        <pt x="146" y="53" on="1"/>
        <pt x="467" y="53" on="1"/>
        <pt x="467" y="0" on="1"/>
        <pt x="83" y="0" on="1"/>
      </contour>
    </TTGlyph>
    <TTGlyph name="Ecaron" xMin="88" yMin="0" xMax="523" yMax="936">
      <contour>
        <pt x="157" y="936" on="1"/>
        <pt x="304" y="863" on="1"/>
        <pt x="452" y="936" on="1"/>
        <pt x="452" y="879" on="1"/>
        <pt x="304" y="806" on="1"/>
        <pt x="157" y="879" on="1"/>
      </contour>
      <contour>
        <pt x="88" y="740" on="1"/>
        <pt x="514" y="740" on="1"/>
        <pt x="514" y="683" on="1"/>
        <pt x="152" y="683" on="1"/>
        <pt x="152" y="404" on="1"/>
        <pt x="487" y="404" on="1"/>
        <pt x="487" y="347" on="1"/>
        <pt x="152" y="347" on="1"/>
        <pt x="152" y="57" on="1"/>
        <pt x="523" y="57" on="1"/>
        <pt x="523" y="0" on="1"/>
        <pt x="88" y="0" on="1"/>
      </contour>
    </TTGlyph>
    <TTGlyph name="Ecaron.sc" xMin="83" yMin="0" xMax="467" yMax="736">
      <contour>
        <pt x="83" y="577" on="1"/>
        <pt x="460" y="577" on="1"/>
        <pt x="460" y="525" on="1"/>
        <pt x="146" y="525" on="1"/>
        <pt x="146" y="318" on="1"/>
        <pt x="436" y="318" on="1"/>
        <pt x="436" y="268" on="1"/>
        <pt x="146" y="268" on="1"/>
        <pt x="146" y="53" on="1"/>
        <pt x="467" y="53" on="1"/>
        <pt x="467" y="0" on="1"/>
        <pt x="83" y="0" on="1"/>
      </contour>
      <contour>
        <pt x="144" y="686" on="1"/>
        <pt x="144" y="736" on="1"/>
        <pt x="274" y="679" on="1"/>
        <pt x="405" y="736" on="1"/>
        <pt x="405" y="686" on="1"/>
        <pt x="274" y="628" on="1"/>
      </contour>
    </TTGlyph>
    <TTGlyph name="Ecircumflex" xMin="88" yMin="0" xMax="523" yMax="944">
      <contour>
        <pt x="88" y="740" on="1"/>
        <pt x="514" y="740" on="1"/>
        <pt x="514" y="683" on="1"/>
        <pt x="152" y="683" on="1"/>
        <pt x="152" y="404" on="1"/>
        <pt x="487" y="404" on="1"/>
        <pt x="487" y="347" on="1"/>
        <pt x="152" y="347" on="1"/>
        <pt x="152" y="57" on="1"/>
        <pt x="523" y="57" on="1"/>
        <pt x="523" y="0" on="1"/>
        <pt x="88" y="0" on="1"/>
      </contour>
      <contour>
        <pt x="156" y="872" on="1"/>
        <pt x="303" y="944" on="1"/>
        <pt x="451" y="872" on="1"/>
        <pt x="451" y="814" on="1"/>
        <pt x="303" y="887" on="1"/>
        <pt x="156" y="814" on="1"/>
      </contour>
    </TTGlyph>
    <TTGlyph name="Ecircumflex.sc" xMin="83" yMin="0" xMax="467" yMax="742">
      <contour>
        <pt x="83" y="577" on="1"/>
        <pt x="460" y="577" on="1"/>
        <pt x="460" y="525" on="1"/>
        <pt x="146" y="525" on="1"/>
        <pt x="146" y="318" on="1"/>
        <pt x="436" y="318" on="1"/>
        <pt x="436" y="268" on="1"/>
        <pt x="146" y="268" on="1"/>
        <pt x="146" y="53" on="1"/>
        <pt x="467" y="53" on="1"/>
        <pt x="467" y="0" on="1"/>
        <pt x="83" y="0" on="1"/>
      </contour>
      <contour>
        <pt x="143" y="684" on="1"/>
        <pt x="274" y="742" on="1"/>
        <pt x="405" y="684" on="1"/>
        <pt x="405" y="633" on="1"/>
        <pt x="274" y="690" on="1"/>
        <pt x="143" y="633" on="1"/>
      </contour>
    </TTGlyph>
    <TTGlyph name="Edblgrave" xMin="88" yMin="0" xMax="523" yMax="929">
      <contour>
        <pt x="88" y="740" on="1"/>
        <pt x="514" y="740" on="1"/>
        <pt x="514" y="683" on="1"/>
        <pt x="152" y="683" on="1"/>
        <pt x="152" y="404" on="1"/>
        <pt x="487" y="404" on="1"/>
        <pt x="487" y="347" on="1"/>
        <pt x="152" y="347" on="1"/>
        <pt x="152" y="57" on="1"/>
        <pt x="523" y="57" on="1"/>
        <pt x="523" y="0" on="1"/>
        <pt x="88" y="0" on="1"/>
      </contour>
      <contour>
        <pt x="207" y="791" on="1"/>
        <pt x="115" y="929" on="1"/>
        <pt x="179" y="929" on="1"/>
        <pt x="256" y="804" on="1"/>
      </contour>
      <contour>
        <pt x="351" y="791" on="1"/>
        <pt x="259" y="929" on="1"/>
        <pt x="323" y="929" on="1"/>
        <pt x="399" y="804" on="1"/>
      </contour>
    </TTGlyph>
    <TTGlyph name="Edblgrave.sc" xMin="83" yMin="0" xMax="467" yMax="731">
      <contour>
        <pt x="83" y="577" on="1"/>
        <pt x="460" y="577" on="1"/>
        <pt x="460" y="525" on="1"/>
        <pt x="146" y="525" on="1"/>
        <pt x="146" y="318" on="1"/>
        <pt x="436" y="318" on="1"/>
        <pt x="436" y="268" on="1"/>
        <pt x="146" y="268" on="1"/>
        <pt x="146" y="53" on="1"/>
        <pt x="467" y="53" on="1"/>
        <pt x="467" y="0" on="1"/>
        <pt x="83" y="0" on="1"/>
      </contour>
      <contour>
        <pt x="106" y="731" on="1"/>
        <pt x="168" y="731" on="1"/>
        <pt x="232" y="628" on="1"/>
        <pt x="186" y="618" on="1"/>
      </contour>
      <contour>
        <pt x="233" y="731" on="1"/>
        <pt x="295" y="731" on="1"/>
        <pt x="360" y="628" on="1"/>
        <pt x="314" y="618" on="1"/>
      </contour>
    </TTGlyph>
    <TTGlyph name="Edieresis" xMin="88" yMin="0" xMax="523" yMax="908">
      <contour>
        <pt x="188" y="819" on="1"/>
        <pt x="167" y="819" on="0"/>
        <pt x="143" y="841" on="0"/>
        <pt x="143" y="864" on="1"/>
        <pt x="143" y="887" on="0"/>
        <pt x="167" y="908" on="0"/>
        <pt x="188" y="908" on="1"/>
        <pt x="209" y="908" on="0"/>
        <pt x="234" y="887" on="0"/>
        <pt x="234" y="864" on="1"/>
        <pt x="234" y="840" on="0"/>
        <pt x="209" y="819" on="0"/>
      </contour>
      <contour>
        <pt x="418" y="819" on="1"/>
        <pt x="372" y="819" on="0"/>
        <pt x="372" y="864" on="1"/>
        <pt x="372" y="908" on="0"/>
        <pt x="418" y="908" on="1"/>
        <pt x="438" y="908" on="0"/>
        <pt x="463" y="887" on="0"/>
        <pt x="463" y="864" on="1"/>
        <pt x="463" y="840" on="0"/>
        <pt x="438" y="819" on="0"/>
      </contour>
      <contour>
        <pt x="88" y="740" on="1"/>
        <pt x="514" y="740" on="1"/>
        <pt x="514" y="683" on="1"/>
        <pt x="152" y="683" on="1"/>
        <pt x="152" y="404" on="1"/>
        <pt x="487" y="404" on="1"/>
        <pt x="487" y="347" on="1"/>
        <pt x="152" y="347" on="1"/>
        <pt x="152" y="57" on="1"/>
        <pt x="523" y="57" on="1"/>
        <pt x="523" y="0" on="1"/>
        <pt x="88" y="0" on="1"/>
      </contour>
    </TTGlyph>
    <TTGlyph name="Edieresis.sc" xMin="83" yMin="0" xMax="467" yMax="718">
      <contour>
        <pt x="171" y="638" on="1"/>
        <pt x="151" y="638" on="0"/>
        <pt x="129" y="657" on="0"/>
        <pt x="129" y="678" on="1"/>
        <pt x="129" y="699" on="0"/>
        <pt x="151" y="718" on="0"/>
        <pt x="171" y="718" on="1"/>
        <pt x="191" y="718" on="0"/>
        <pt x="214" y="699" on="0"/>
        <pt x="214" y="678" on="1"/>
        <pt x="214" y="657" on="0"/>
        <pt x="191" y="638" on="0"/>
      </contour>
      <contour>
        <pt x="375" y="638" on="1"/>
        <pt x="333" y="638" on="0"/>
        <pt x="333" y="678" on="1"/>
        <pt x="333" y="718" on="0"/>
        <pt x="375" y="718" on="1"/>
        <pt x="395" y="718" on="0"/>
        <pt x="417" y="699" on="0"/>
        <pt x="417" y="678" on="1"/>
        <pt x="417" y="657" on="0"/>
        <pt x="395" y="638" on="0"/>
      </contour>
      <contour>
        <pt x="83" y="577" on="1"/>
        <pt x="460" y="577" on="1"/>
        <pt x="460" y="525" on="1"/>
        <pt x="146" y="525" on="1"/>
        <pt x="146" y="318" on="1"/>
        <pt x="436" y="318" on="1"/>
        <pt x="436" y="268" on="1"/>
        <pt x="146" y="268" on="1"/>
        <pt x="146" y="53" on="1"/>
        <pt x="467" y="53" on="1"/>
        <pt x="467" y="0" on="1"/>
        <pt x="83" y="0" on="1"/>
      </contour>
    </TTGlyph>
    <TTGlyph name="Edotaccent" xMin="88" yMin="0" xMax="523" yMax="899">
      <contour>
        <pt x="301" y="811" on="1"/>
        <pt x="280" y="811" on="0"/>
        <pt x="256" y="832" on="0"/>
        <pt x="256" y="855" on="1"/>
        <pt x="256" y="878" on="0"/>
        <pt x="280" y="899" on="0"/>
        <pt x="301" y="899" on="1"/>
        <pt x="322" y="899" on="0"/>
        <pt x="347" y="878" on="0"/>
        <pt x="347" y="855" on="1"/>
        <pt x="347" y="832" on="0"/>
        <pt x="322" y="811" on="0"/>
      </contour>
      <contour>
        <pt x="88" y="740" on="1"/>
        <pt x="514" y="740" on="1"/>
        <pt x="514" y="683" on="1"/>
        <pt x="152" y="683" on="1"/>
        <pt x="152" y="404" on="1"/>
        <pt x="487" y="404" on="1"/>
        <pt x="487" y="347" on="1"/>
        <pt x="152" y="347" on="1"/>
        <pt x="152" y="57" on="1"/>
        <pt x="523" y="57" on="1"/>
        <pt x="523" y="0" on="1"/>
        <pt x="88" y="0" on="1"/>
      </contour>
    </TTGlyph>
    <TTGlyph name="Edotaccent.sc" xMin="83" yMin="0" xMax="467" yMax="712">
      <contour>
        <pt x="271" y="632" on="1"/>
        <pt x="230" y="632" on="0"/>
        <pt x="230" y="672" on="1"/>
        <pt x="230" y="712" on="0"/>
        <pt x="271" y="712" on="1"/>
        <pt x="291" y="712" on="0"/>
        <pt x="314" y="693" on="0"/>
        <pt x="314" y="672" on="1"/>
        <pt x="314" y="651" on="0"/>
        <pt x="291" y="632" on="0"/>
      </contour>
      <contour>
        <pt x="83" y="577" on="1"/>
        <pt x="460" y="577" on="1"/>
        <pt x="460" y="525" on="1"/>
        <pt x="146" y="525" on="1"/>
        <pt x="146" y="318" on="1"/>
        <pt x="436" y="318" on="1"/>
        <pt x="436" y="268" on="1"/>
        <pt x="146" y="268" on="1"/>
        <pt x="146" y="53" on="1"/>
        <pt x="467" y="53" on="1"/>
        <pt x="467" y="0" on="1"/>
        <pt x="83" y="0" on="1"/>
      </contour>
    </TTGlyph>
    <TTGlyph name="Edotbelow" xMin="88" yMin="-174" xMax="523" yMax="740">
      <contour>
        <pt x="88" y="740" on="1"/>
        <pt x="514" y="740" on="1"/>
        <pt x="514" y="683" on="1"/>
        <pt x="152" y="683" on="1"/>
        <pt x="152" y="404" on="1"/>
        <pt x="487" y="404" on="1"/>
        <pt x="487" y="347" on="1"/>
        <pt x="152" y="347" on="1"/>
        <pt x="152" y="57" on="1"/>
        <pt x="523" y="57" on="1"/>
        <pt x="523" y="0" on="1"/>
        <pt x="88" y="0" on="1"/>
      </contour>
      <contour>
        <pt x="319" y="-174" on="1"/>
        <pt x="298" y="-174" on="0"/>
        <pt x="275" y="-154" on="0"/>
        <pt x="275" y="-130" on="1"/>
        <pt x="275" y="-86" on="0"/>
        <pt x="319" y="-86" on="1"/>
        <pt x="340" y="-86" on="0"/>
        <pt x="364" y="-107" on="0"/>
        <pt x="364" y="-130" on="1"/>
        <pt x="364" y="-154" on="0"/>
        <pt x="340" y="-174" on="0"/>
      </contour>
    </TTGlyph>
    <TTGlyph name="Edotbelow.sc" xMin="83" yMin="-140" xMax="467" yMax="577">
      <contour>
        <pt x="287" y="-140" on="1"/>
        <pt x="247" y="-140" on="0"/>
        <pt x="247" y="-103" on="1"/>
        <pt x="247" y="-65" on="0"/>
        <pt x="287" y="-65" on="1"/>
        <pt x="306" y="-65" on="0"/>
        <pt x="328" y="-83" on="0"/>
        <pt x="328" y="-103" on="1"/>
        <pt x="328" y="-123" on="0"/>
        <pt x="306" y="-140" on="0"/>
      </contour>
      <contour>
        <pt x="83" y="577" on="1"/>
        <pt x="460" y="577" on="1"/>
        <pt x="460" y="525" on="1"/>
        <pt x="146" y="525" on="1"/>
        <pt x="146" y="318" on="1"/>
        <pt x="436" y="318" on="1"/>
        <pt x="436" y="268" on="1"/>
        <pt x="146" y="268" on="1"/>
        <pt x="146" y="53" on="1"/>
        <pt x="467" y="53" on="1"/>
        <pt x="467" y="0" on="1"/>
        <pt x="83" y="0" on="1"/>
      </contour>
    </TTGlyph>
    <TTGlyph name="Egrave" xMin="88" yMin="0" xMax="523" yMax="933">
      <contour>
        <pt x="278" y="795" on="1"/>
        <pt x="186" y="933" on="1"/>
        <pt x="254" y="933" on="1"/>
        <pt x="330" y="808" on="1"/>
      </contour>
      <contour>
        <pt x="88" y="740" on="1"/>
        <pt x="514" y="740" on="1"/>
        <pt x="514" y="683" on="1"/>
        <pt x="152" y="683" on="1"/>
        <pt x="152" y="404" on="1"/>
        <pt x="487" y="404" on="1"/>
        <pt x="487" y="347" on="1"/>
        <pt x="152" y="347" on="1"/>
        <pt x="152" y="57" on="1"/>
        <pt x="523" y="57" on="1"/>
        <pt x="523" y="0" on="1"/>
        <pt x="88" y="0" on="1"/>
      </contour>
    </TTGlyph>
    <TTGlyph name="Egrave.sc" xMin="83" yMin="0" xMax="467" yMax="734">
      <contour>
        <pt x="83" y="577" on="1"/>
        <pt x="460" y="577" on="1"/>
        <pt x="460" y="525" on="1"/>
        <pt x="146" y="525" on="1"/>
        <pt x="146" y="318" on="1"/>
        <pt x="436" y="318" on="1"/>
        <pt x="436" y="268" on="1"/>
        <pt x="146" y="268" on="1"/>
        <pt x="146" y="53" on="1"/>
        <pt x="467" y="53" on="1"/>
        <pt x="467" y="0" on="1"/>
        <pt x="83" y="0" on="1"/>
      </contour>
      <contour>
        <pt x="170" y="734" on="1"/>
        <pt x="235" y="734" on="1"/>
        <pt x="300" y="631" on="1"/>
        <pt x="250" y="621" on="1"/>
      </contour>
    </TTGlyph>
    <TTGlyph name="Einvertedbreve" xMin="88" yMin="0" xMax="523" yMax="961">
      <contour>
        <pt x="88" y="740" on="1"/>
        <pt x="514" y="740" on="1"/>
        <pt x="514" y="683" on="1"/>
        <pt x="152" y="683" on="1"/>
        <pt x="152" y="404" on="1"/>
        <pt x="487" y="404" on="1"/>
        <pt x="487" y="347" on="1"/>
        <pt x="152" y="347" on="1"/>
        <pt x="152" y="57" on="1"/>
        <pt x="523" y="57" on="1"/>
        <pt x="523" y="0" on="1"/>
        <pt x="88" y="0" on="1"/>
      </contour>
      <contour>
        <pt x="412" y="819" on="1"/>
        <pt x="412" y="866" on="0"/>
        <pt x="356" y="917" on="0"/>
        <pt x="302" y="917" on="1"/>
        <pt x="248" y="917" on="0"/>
        <pt x="191" y="866" on="0"/>
        <pt x="191" y="819" on="1"/>
        <pt x="139" y="819" on="1"/>
        <pt x="139" y="885" on="0"/>
        <pt x="223" y="961" on="0"/>
        <pt x="302" y="961" on="1"/>
        <pt x="380" y="961" on="0"/>
        <pt x="464" y="885" on="0"/>
        <pt x="464" y="819" on="1"/>
      </contour>
    </TTGlyph>
    <TTGlyph name="Einvertedbreve.sc" xMin="83" yMin="0" xMax="467" yMax="753">
      <contour>
        <pt x="128" y="638" on="1"/>
        <pt x="128" y="691" on="0"/>
        <pt x="201" y="753" on="0"/>
        <pt x="272" y="753" on="1"/>
        <pt x="342" y="753" on="0"/>
        <pt x="416" y="691" on="0"/>
        <pt x="416" y="638" on="1"/>
        <pt x="367" y="638" on="1"/>
        <pt x="367" y="714" on="0"/>
        <pt x="272" y="714" on="1"/>
        <pt x="177" y="714" on="0"/>
        <pt x="177" y="638" on="1"/>
      </contour>
      <contour>
        <pt x="83" y="577" on="1"/>
        <pt x="460" y="577" on="1"/>
        <pt x="460" y="525" on="1"/>
        <pt x="146" y="525" on="1"/>
        <pt x="146" y="318" on="1"/>
        <pt x="436" y="318" on="1"/>
        <pt x="436" y="268" on="1"/>
        <pt x="146" y="268" on="1"/>
        <pt x="146" y="53" on="1"/>
        <pt x="467" y="53" on="1"/>
        <pt x="467" y="0" on="1"/>
        <pt x="83" y="0" on="1"/>
      </contour>
    </TTGlyph>
    <TTGlyph name="Emacron" xMin="88" yMin="0" xMax="523" yMax="893">
      <contour>
        <pt x="159" y="893" on="1"/>
        <pt x="438" y="893" on="1"/>
        <pt x="438" y="841" on="1"/>
        <pt x="159" y="841" on="1"/>
      </contour>
      <contour>
        <pt x="88" y="740" on="1"/>
        <pt x="514" y="740" on="1"/>
        <pt x="514" y="683" on="1"/>
        <pt x="152" y="683" on="1"/>
        <pt x="152" y="404" on="1"/>
        <pt x="487" y="404" on="1"/>
        <pt x="487" y="347" on="1"/>
        <pt x="152" y="347" on="1"/>
        <pt x="152" y="57" on="1"/>
        <pt x="523" y="57" on="1"/>
        <pt x="523" y="0" on="1"/>
        <pt x="88" y="0" on="1"/>
      </contour>
    </TTGlyph>
    <TTGlyph name="Emacron.sc" xMin="83" yMin="0" xMax="467" yMax="703">
      <contour>
        <pt x="83" y="577" on="1"/>
        <pt x="460" y="577" on="1"/>
        <pt x="460" y="525" on="1"/>
        <pt x="146" y="525" on="1"/>
        <pt x="146" y="318" on="1"/>
        <pt x="436" y="318" on="1"/>
        <pt x="436" y="268" on="1"/>
        <pt x="146" y="268" on="1"/>
        <pt x="146" y="53" on="1"/>
        <pt x="467" y="53" on="1"/>
        <pt x="467" y="0" on="1"/>
        <pt x="83" y="0" on="1"/>
      </contour>
      <contour>
        <pt x="145" y="703" on="1"/>
        <pt x="394" y="703" on="1"/>
        <pt x="394" y="656" on="1"/>
        <pt x="145" y="656" on="1"/>
      </contour>
    </TTGlyph>
    <TTGlyph name="Eng" xMin="88" yMin="-185" xMax="643" yMax="740">
      <contour>
        <pt x="503" y="-171" on="1"/>
        <pt x="527" y="-124" on="0"/>
        <pt x="564" y="-24" on="0"/>
        <pt x="571" y="16" on="1"/>
        <pt x="207" y="548" on="1"/>
        <pt x="154" y="635" on="1"/>
        <pt x="148" y="634" on="1"/>
        <pt x="148" y="0" on="1"/>
        <pt x="88" y="0" on="1"/>
        <pt x="88" y="740" on="1"/>
        <pt x="146" y="740" on="1"/>
        <pt x="522" y="192" on="1"/>
        <pt x="577" y="104" on="1"/>
        <pt x="582" y="104" on="1"/>
        <pt x="582" y="740" on="1"/>
        <pt x="643" y="740" on="1"/>
        <pt x="643" y="72" on="1"/>
        <pt x="643" y="46" on="0"/>
        <pt x="629" y="-20" on="0"/>
        <pt x="604" y="-89" on="0"/>
        <pt x="571" y="-157" on="0"/>
        <pt x="552" y="-185" on="1"/>
      </contour>
    </TTGlyph>
    <TTGlyph name="Eng.sc" xMin="83" yMin="-147" xMax="568" yMax="577">
      <contour>
        <pt x="443" y="-134" on="1"/>
        <pt x="464" y="-96" on="0"/>
        <pt x="495" y="-17" on="0"/>
        <pt x="501" y="15" on="1"/>
        <pt x="193" y="410" on="1"/>
        <pt x="146" y="478" on="1"/>
        <pt x="141" y="478" on="1"/>
        <pt x="141" y="0" on="1"/>
        <pt x="83" y="0" on="1"/>
        <pt x="83" y="577" on="1"/>
        <pt x="138" y="577" on="1"/>
        <pt x="457" y="167" on="1"/>
        <pt x="505" y="98" on="1"/>
        <pt x="510" y="99" on="1"/>
        <pt x="510" y="577" on="1"/>
        <pt x="568" y="577" on="1"/>
        <pt x="568" y="62" on="1"/>
        <pt x="568" y="41" on="0"/>
        <pt x="556" y="-13" on="0"/>
        <pt x="534" y="-69" on="0"/>
        <pt x="505" y="-124" on="0"/>
        <pt x="488" y="-147" on="1"/>
      </contour>
    </TTGlyph>
    <TTGlyph name="Eogonek" xMin="88" yMin="-220" xMax="523" yMax="740">
      <contour>
        <pt x="88" y="740" on="1"/>
        <pt x="514" y="740" on="1"/>
        <pt x="514" y="683" on="1"/>
        <pt x="152" y="683" on="1"/>
        <pt x="152" y="404" on="1"/>
        <pt x="487" y="404" on="1"/>
        <pt x="487" y="347" on="1"/>
        <pt x="152" y="347" on="1"/>
        <pt x="152" y="57" on="1"/>
        <pt x="523" y="57" on="1"/>
        <pt x="523" y="-19" on="1"/>
        <pt x="466" y="-45" on="0"/>
        <pt x="415" y="-102" on="0"/>
        <pt x="415" y="-134" on="1"/>
        <pt x="415" y="-175" on="0"/>
        <pt x="463" y="-175" on="1"/>
        <pt x="491" y="-175" on="0"/>
        <pt x="522" y="-164" on="1"/>
        <pt x="522" y="-208" on="1"/>
        <pt x="493" y="-220" on="0"/>
        <pt x="457" y="-220" on="1"/>
        <pt x="364" y="-220" on="0"/>
        <pt x="364" y="-138" on="1"/>
        <pt x="364" y="-99" on="0"/>
        <pt x="412" y="-35" on="0"/>
        <pt x="469" y="0" on="1"/>
        <pt x="88" y="0" on="1"/>
      </contour>
    </TTGlyph>
    <TTGlyph name="Eogonek.sc" xMin="83" yMin="-172" xMax="467" yMax="577">
      <contour>
        <pt x="408" y="-172" on="1"/>
        <pt x="325" y="-172" on="0"/>
        <pt x="325" y="-106" on="1"/>
        <pt x="325" y="-76" on="0"/>
        <pt x="365" y="-28" on="0"/>
        <pt x="413" y="0" on="1"/>
        <pt x="83" y="0" on="1"/>
        <pt x="83" y="577" on="1"/>
        <pt x="460" y="577" on="1"/>
        <pt x="460" y="525" on="1"/>
        <pt x="146" y="525" on="1"/>
        <pt x="146" y="318" on="1"/>
        <pt x="436" y="318" on="1"/>
        <pt x="436" y="268" on="1"/>
        <pt x="146" y="268" on="1"/>
        <pt x="146" y="53" on="1"/>
        <pt x="467" y="53" on="1"/>
        <pt x="467" y="-13" on="1"/>
        <pt x="373" y="-51" on="0"/>
        <pt x="373" y="-101" on="1"/>
        <pt x="373" y="-118" on="0"/>
        <pt x="393" y="-131" on="0"/>
        <pt x="413" y="-131" on="1"/>
        <pt x="426" y="-131" on="0"/>
        <pt x="455" y="-127" on="0"/>
        <pt x="466" y="-123" on="1"/>
        <pt x="466" y="-162" on="1"/>
        <pt x="438" y="-172" on="0"/>
      </contour>
    </TTGlyph>
    <TTGlyph name="Eth" xMin="3" yMin="-13" xMax="629" yMax="749">
      <contour>
        <pt x="3" y="397" on="1"/>
        <pt x="98" y="397" on="1"/>
        <pt x="98" y="736" on="1"/>
        <pt x="120" y="739" on="0"/>
        <pt x="170" y="744" on="0"/>
        <pt x="218" y="747" on="0"/>
        <pt x="262" y="749" on="0"/>
        <pt x="279" y="749" on="1"/>
        <pt x="460" y="749" on="0"/>
        <pt x="629" y="565" on="0"/>
        <pt x="629" y="370" on="1"/>
        <pt x="629" y="271" on="0"/>
        <pt x="585" y="126" on="0"/>
        <pt x="494" y="32" on="0"/>
        <pt x="353" y="-13" on="0"/>
        <pt x="256" y="-13" on="1"/>
        <pt x="208" y="-13" on="0"/>
        <pt x="125" y="-7" on="0"/>
        <pt x="98" y="-1" on="1"/>
        <pt x="98" y="341" on="1"/>
        <pt x="3" y="341" on="1"/>
      </contour>
      <contour>
        <pt x="272" y="44" on="1"/>
        <pt x="421" y="44" on="0"/>
        <pt x="562" y="201" on="0"/>
        <pt x="562" y="370" on="1"/>
        <pt x="562" y="538" on="0"/>
        <pt x="428" y="692" on="0"/>
        <pt x="283" y="692" on="1"/>
        <pt x="257" y="692" on="0"/>
        <pt x="190" y="688" on="0"/>
        <pt x="162" y="684" on="1"/>
        <pt x="162" y="397" on="1"/>
        <pt x="341" y="397" on="1"/>
        <pt x="341" y="341" on="1"/>
        <pt x="162" y="341" on="1"/>
        <pt x="162" y="52" on="1"/>
        <pt x="195" y="47" on="0"/>
        <pt x="243" y="44" on="0"/>
      </contour>
    </TTGlyph>
    <TTGlyph name="Eth.sc" xMin="10" yMin="-10" xMax="560" yMax="584">
      <contour>
        <pt x="10" y="313" on="1"/>
        <pt x="92" y="313" on="1"/>
        <pt x="92" y="575" on="1"/>
        <pt x="132" y="580" on="0"/>
        <pt x="222" y="584" on="0"/>
        <pt x="253" y="584" on="1"/>
        <pt x="412" y="584" on="0"/>
        <pt x="560" y="441" on="0"/>
        <pt x="560" y="288" on="1"/>
        <pt x="560" y="133" on="0"/>
        <pt x="404" y="-10" on="0"/>
        <pt x="234" y="-10" on="1"/>
        <pt x="191" y="-10" on="0"/>
        <pt x="116" y="-4" on="0"/>
        <pt x="92" y="1" on="1"/>
        <pt x="92" y="263" on="1"/>
        <pt x="10" y="263" on="1"/>
      </contour>
      <contour>
        <pt x="251" y="44" on="1"/>
        <pt x="377" y="44" on="0"/>
        <pt x="496" y="161" on="0"/>
        <pt x="496" y="288" on="1"/>
        <pt x="496" y="416" on="0"/>
        <pt x="382" y="530" on="0"/>
        <pt x="258" y="530" on="1"/>
        <pt x="235" y="530" on="0"/>
        <pt x="179" y="527" on="0"/>
        <pt x="154" y="524" on="1"/>
        <pt x="154" y="313" on="1"/>
        <pt x="306" y="313" on="1"/>
        <pt x="306" y="263" on="1"/>
        <pt x="154" y="263" on="1"/>
        <pt x="154" y="51" on="1"/>
        <pt x="183" y="47" on="0"/>
        <pt x="225" y="44" on="0"/>
      </contour>
    </TTGlyph>
    <TTGlyph name="Etilde" xMin="88" yMin="0" xMax="523" yMax="920">
      <contour>
        <pt x="127" y="857" on="1"/>
        <pt x="150" y="886" on="0"/>
        <pt x="209" y="920" on="0"/>
        <pt x="238" y="920" on="1"/>
        <pt x="260" y="920" on="0"/>
        <pt x="297" y="907" on="0"/>
        <pt x="332" y="891" on="0"/>
        <pt x="367" y="878" on="0"/>
        <pt x="387" y="878" on="1"/>
        <pt x="427" y="878" on="0"/>
        <pt x="464" y="917" on="1"/>
        <pt x="489" y="894" on="1"/>
        <pt x="469" y="863" on="0"/>
        <pt x="408" y="828" on="0"/>
        <pt x="377" y="828" on="1"/>
        <pt x="357" y="828" on="0"/>
        <pt x="320" y="841" on="0"/>
        <pt x="284" y="857" on="0"/>
        <pt x="249" y="870" on="0"/>
        <pt x="230" y="870" on="1"/>
        <pt x="210" y="870" on="0"/>
        <pt x="170" y="850" on="0"/>
        <pt x="151" y="832" on="1"/>
      </contour>
      <contour>
        <pt x="88" y="740" on="1"/>
        <pt x="514" y="740" on="1"/>
        <pt x="514" y="683" on="1"/>
        <pt x="152" y="683" on="1"/>
        <pt x="152" y="404" on="1"/>
        <pt x="487" y="404" on="1"/>
        <pt x="487" y="347" on="1"/>
        <pt x="152" y="347" on="1"/>
        <pt x="152" y="57" on="1"/>
        <pt x="523" y="57" on="1"/>
        <pt x="523" y="0" on="1"/>
        <pt x="88" y="0" on="1"/>
      </contour>
    </TTGlyph>
    <TTGlyph name="Etilde.sc" xMin="83" yMin="0" xMax="467" yMax="724">
      <contour>
        <pt x="118" y="669" on="1"/>
        <pt x="139" y="695" on="0"/>
        <pt x="191" y="724" on="0"/>
        <pt x="217" y="724" on="1"/>
        <pt x="236" y="724" on="0"/>
        <pt x="269" y="714" on="0"/>
        <pt x="300" y="702" on="0"/>
        <pt x="331" y="692" on="0"/>
        <pt x="348" y="692" on="1"/>
        <pt x="385" y="692" on="0"/>
        <pt x="418" y="722" on="1"/>
        <pt x="439" y="703" on="1"/>
        <pt x="420" y="676" on="0"/>
        <pt x="366" y="646" on="0"/>
        <pt x="339" y="646" on="1"/>
        <pt x="321" y="646" on="0"/>
        <pt x="288" y="656" on="0"/>
        <pt x="256" y="668" on="0"/>
        <pt x="224" y="678" on="0"/>
        <pt x="208" y="678" on="1"/>
        <pt x="171" y="678" on="0"/>
        <pt x="138" y="648" on="1"/>
      </contour>
      <contour>
        <pt x="83" y="577" on="1"/>
        <pt x="460" y="577" on="1"/>
        <pt x="460" y="525" on="1"/>
        <pt x="146" y="525" on="1"/>
        <pt x="146" y="318" on="1"/>
        <pt x="436" y="318" on="1"/>
        <pt x="436" y="268" on="1"/>
        <pt x="146" y="268" on="1"/>
        <pt x="146" y="53" on="1"/>
        <pt x="467" y="53" on="1"/>
        <pt x="467" y="0" on="1"/>
        <pt x="83" y="0" on="1"/>
      </contour>
    </TTGlyph>
    <TTGlyph name="Euro" xMin="43" yMin="-10" xMax="536" yMax="749">
      <contour>
        <pt x="43" y="477" on="1"/>
        <pt x="129" y="477" on="1"/>
        <pt x="138" y="549" on="0"/>
        <pt x="186" y="652" on="0"/>
        <pt x="266" y="718" on="0"/>
        <pt x="380" y="749" on="0"/>
        <pt x="456" y="749" on="1"/>
        <pt x="483" y="749" on="0"/>
        <pt x="519" y="745" on="0"/>
        <pt x="536" y="743" on="1"/>
        <pt x="514" y="687" on="1"/>
        <pt x="496" y="690" on="0"/>
        <pt x="466" y="690" on="1"/>
        <pt x="402" y="690" on="0"/>
        <pt x="307" y="667" on="0"/>
        <pt x="242" y="616" on="0"/>
        <pt x="203" y="535" on="0"/>
        <pt x="195" y="477" on="1"/>
        <pt x="456" y="477" on="1"/>
        <pt x="437" y="430" on="1"/>
        <pt x="190" y="430" on="1"/>
        <pt x="189" y="416" on="0"/>
        <pt x="189" y="386" on="0"/>
        <pt x="189" y="370" on="1"/>
        <pt x="189" y="354" on="0"/>
        <pt x="189" y="324" on="0"/>
        <pt x="191" y="310" on="1"/>
        <pt x="420" y="310" on="1"/>
        <pt x="401" y="262" on="1"/>
        <pt x="196" y="262" on="1"/>
        <pt x="213" y="149" on="0"/>
        <pt x="339" y="48" on="0"/>
        <pt x="461" y="48" on="1"/>
        <pt x="472" y="48" on="0"/>
        <pt x="504" y="51" on="0"/>
        <pt x="522" y="53" on="1"/>
        <pt x="522" y="-6" on="1"/>
        <pt x="502" y="-10" on="0"/>
        <pt x="459" y="-10" on="1"/>
        <pt x="309" y="-8" on="0"/>
        <pt x="150" y="121" on="0"/>
        <pt x="130" y="262" on="1"/>
        <pt x="43" y="262" on="1"/>
        <pt x="43" y="310" on="1"/>
        <pt x="124" y="310" on="1"/>
        <pt x="123" y="324" on="0"/>
        <pt x="123" y="353" on="0"/>
        <pt x="123" y="369" on="1"/>
        <pt x="123" y="385" on="0"/>
        <pt x="123" y="415" on="0"/>
        <pt x="124" y="430" on="1"/>
        <pt x="43" y="430" on="1"/>
      </contour>
    </TTGlyph>
    <TTGlyph name="Euro.tab" xMin="26" yMin="-10" xMax="509" yMax="749">
      <contour>
        <pt x="26" y="477" on="1"/>
        <pt x="110" y="477" on="1"/>
        <pt x="119" y="549" on="0"/>
        <pt x="166" y="652" on="0"/>
        <pt x="244" y="718" on="0"/>
        <pt x="355" y="749" on="0"/>
        <pt x="429" y="749" on="1"/>
        <pt x="456" y="749" on="0"/>
        <pt x="492" y="745" on="0"/>
        <pt x="509" y="743" on="1"/>
        <pt x="487" y="687" on="1"/>
        <pt x="470" y="690" on="0"/>
        <pt x="439" y="690" on="1"/>
        <pt x="317" y="690" on="0"/>
        <pt x="193" y="592" on="0"/>
        <pt x="177" y="477" on="1"/>
        <pt x="430" y="477" on="1"/>
        <pt x="412" y="430" on="1"/>
        <pt x="171" y="430" on="1"/>
        <pt x="169" y="416" on="0"/>
        <pt x="169" y="385" on="0"/>
        <pt x="169" y="370" on="1"/>
        <pt x="169" y="354" on="0"/>
        <pt x="169" y="323" on="0"/>
        <pt x="171" y="310" on="1"/>
        <pt x="394" y="310" on="1"/>
        <pt x="377" y="262" on="1"/>
        <pt x="177" y="262" on="1"/>
        <pt x="194" y="150" on="0"/>
        <pt x="318" y="48" on="0"/>
        <pt x="435" y="48" on="1"/>
        <pt x="446" y="48" on="0"/>
        <pt x="478" y="51" on="0"/>
        <pt x="495" y="53" on="1"/>
        <pt x="495" y="-6" on="1"/>
        <pt x="475" y="-10" on="0"/>
        <pt x="432" y="-10" on="1"/>
        <pt x="285" y="-8" on="0"/>
        <pt x="130" y="121" on="0"/>
        <pt x="111" y="262" on="1"/>
        <pt x="26" y="262" on="1"/>
        <pt x="26" y="310" on="1"/>
        <pt x="105" y="310" on="1"/>
        <pt x="104" y="324" on="0"/>
        <pt x="104" y="354" on="0"/>
        <pt x="104" y="369" on="1"/>
        <pt x="104" y="385" on="0"/>
        <pt x="104" y="416" on="0"/>
        <pt x="105" y="430" on="1"/>
        <pt x="26" y="430" on="1"/>
      </contour>
    </TTGlyph>
    <TTGlyph name="F" xMin="88" yMin="0" xMax="505" yMax="740">
      <contour>
        <pt x="88" y="740" on="1"/>
        <pt x="505" y="740" on="1"/>
        <pt x="505" y="683" on="1"/>
        <pt x="152" y="683" on="1"/>
        <pt x="152" y="400" on="1"/>
        <pt x="477" y="400" on="1"/>
        <pt x="477" y="343" on="1"/>
        <pt x="152" y="343" on="1"/>
        <pt x="152" y="0" on="1"/>
        <pt x="88" y="0" on="1"/>
      </contour>
    </TTGlyph>
    <TTGlyph name="F.sc" xMin="83" yMin="0" xMax="452" yMax="577">
      <contour>
        <pt x="83" y="577" on="1"/>
        <pt x="452" y="577" on="1"/>
        <pt x="452" y="524" on="1"/>
        <pt x="146" y="524" on="1"/>
        <pt x="146" y="313" on="1"/>
        <pt x="427" y="313" on="1"/>
        <pt x="427" y="262" on="1"/>
        <pt x="146" y="262" on="1"/>
        <pt x="146" y="0" on="1"/>
        <pt x="83" y="0" on="1"/>
      </contour>
    </TTGlyph>
    <TTGlyph name="F_B.sc" xMin="83" yMin="-8" xMax="978" yMax="584">
      <contour>
        <pt x="83" y="577" on="1"/>
        <pt x="452" y="577" on="1"/>
        <pt x="452" y="524" on="1"/>
        <pt x="146" y="524" on="1"/>
        <pt x="146" y="313" on="1"/>
        <pt x="427" y="313" on="1"/>
        <pt x="427" y="262" on="1"/>
        <pt x="146" y="262" on="1"/>
        <pt x="146" y="0" on="1"/>
        <pt x="83" y="0" on="1"/>
      </contour>
      <contour>
        <pt x="741" y="-8" on="1"/>
        <pt x="698" y="-8" on="0"/>
        <pt x="599" y="-2" on="0"/>
        <pt x="553" y="4" on="1"/>
        <pt x="553" y="574" on="1"/>
        <pt x="613" y="579" on="0"/>
        <pt x="694" y="584" on="0"/>
        <pt x="732" y="584" on="1"/>
        <pt x="851" y="584" on="0"/>
        <pt x="957" y="510" on="0"/>
        <pt x="957" y="429" on="1"/>
        <pt x="957" y="375" on="0"/>
        <pt x="900" y="305" on="0"/>
        <pt x="849" y="296" on="1"/>
        <pt x="849" y="293" on="1"/>
        <pt x="911" y="282" on="0"/>
        <pt x="978" y="211" on="0"/>
        <pt x="978" y="152" on="1"/>
        <pt x="978" y="-8" on="0"/>
      </contour>
      <contour>
        <pt x="743" y="41" on="1"/>
        <pt x="831" y="41" on="0"/>
        <pt x="914" y="97" on="0"/>
        <pt x="914" y="155" on="1"/>
        <pt x="914" y="214" on="0"/>
        <pt x="835" y="269" on="0"/>
        <pt x="748" y="269" on="1"/>
        <pt x="614" y="269" on="1"/>
        <pt x="614" y="48" on="1"/>
        <pt x="632" y="45" on="0"/>
        <pt x="701" y="41" on="0"/>
      </contour>
      <contour>
        <pt x="745" y="315" on="1"/>
        <pt x="826" y="315" on="0"/>
        <pt x="894" y="366" on="0"/>
        <pt x="894" y="426" on="1"/>
        <pt x="894" y="485" on="0"/>
        <pt x="821" y="535" on="0"/>
        <pt x="735" y="535" on="1"/>
        <pt x="699" y="535" on="0"/>
        <pt x="641" y="532" on="0"/>
        <pt x="614" y="528" on="1"/>
        <pt x="614" y="315" on="1"/>
      </contour>
    </TTGlyph>
    <TTGlyph name="F_F.sc" xMin="83" yMin="0" xMax="922" yMax="577">
      <contour>
        <pt x="83" y="577" on="1"/>
        <pt x="452" y="577" on="1"/>
        <pt x="452" y="524" on="1"/>
        <pt x="146" y="524" on="1"/>
        <pt x="146" y="313" on="1"/>
        <pt x="427" y="313" on="1"/>
        <pt x="427" y="262" on="1"/>
        <pt x="146" y="262" on="1"/>
        <pt x="146" y="0" on="1"/>
        <pt x="83" y="0" on="1"/>
      </contour>
      <contour>
        <pt x="553" y="577" on="1"/>
        <pt x="922" y="577" on="1"/>
        <pt x="922" y="524" on="1"/>
        <pt x="616" y="524" on="1"/>
        <pt x="616" y="313" on="1"/>
        <pt x="897" y="313" on="1"/>
        <pt x="897" y="262" on="1"/>
        <pt x="616" y="262" on="1"/>
        <pt x="616" y="0" on="1"/>
        <pt x="553" y="0" on="1"/>
      </contour>
    </TTGlyph>
    <TTGlyph name="F_F_B.sc" xMin="83" yMin="-8" xMax="1447" yMax="584">
      <contour>
        <pt x="83" y="577" on="1"/>
        <pt x="452" y="577" on="1"/>
        <pt x="452" y="524" on="1"/>
        <pt x="146" y="524" on="1"/>
        <pt x="146" y="313" on="1"/>
        <pt x="427" y="313" on="1"/>
        <pt x="427" y="262" on="1"/>
        <pt x="146" y="262" on="1"/>
        <pt x="146" y="0" on="1"/>
        <pt x="83" y="0" on="1"/>
      </contour>
      <contour>
        <pt x="553" y="577" on="1"/>
        <pt x="922" y="577" on="1"/>
        <pt x="922" y="524" on="1"/>
        <pt x="616" y="524" on="1"/>
        <pt x="616" y="313" on="1"/>
        <pt x="897" y="313" on="1"/>
        <pt x="897" y="262" on="1"/>
        <pt x="616" y="262" on="1"/>
        <pt x="616" y="0" on="1"/>
        <pt x="553" y="0" on="1"/>
      </contour>
      <contour>
        <pt x="1210" y="-8" on="1"/>
        <pt x="1167" y="-8" on="0"/>
        <pt x="1068" y="-2" on="0"/>
        <pt x="1022" y="4" on="1"/>
        <pt x="1022" y="574" on="1"/>
        <pt x="1082" y="579" on="0"/>
        <pt x="1163" y="584" on="0"/>
        <pt x="1201" y="584" on="1"/>
        <pt x="1320" y="584" on="0"/>
        <pt x="1426" y="510" on="0"/>
        <pt x="1426" y="429" on="1"/>
        <pt x="1426" y="375" on="0"/>
        <pt x="1369" y="305" on="0"/>
        <pt x="1318" y="296" on="1"/>
        <pt x="1318" y="293" on="1"/>
        <pt x="1380" y="282" on="0"/>
        <pt x="1447" y="211" on="0"/>
        <pt x="1447" y="152" on="1"/>
        <pt x="1447" y="-8" on="0"/>
      </contour>
      <contour>
        <pt x="1212" y="41" on="1"/>
        <pt x="1300" y="41" on="0"/>
        <pt x="1383" y="97" on="0"/>
        <pt x="1383" y="155" on="1"/>
        <pt x="1383" y="214" on="0"/>
        <pt x="1304" y="269" on="0"/>
        <pt x="1217" y="269" on="1"/>
        <pt x="1083" y="269" on="1"/>
        <pt x="1083" y="48" on="1"/>
        <pt x="1101" y="45" on="0"/>
        <pt x="1170" y="41" on="0"/>
      </contour>
      <contour>
        <pt x="1214" y="315" on="1"/>
        <pt x="1295" y="315" on="0"/>
        <pt x="1363" y="366" on="0"/>
        <pt x="1363" y="426" on="1"/>
        <pt x="1363" y="485" on="0"/>
        <pt x="1290" y="535" on="0"/>
        <pt x="1204" y="535" on="1"/>
        <pt x="1168" y="535" on="0"/>
        <pt x="1110" y="532" on="0"/>
        <pt x="1083" y="528" on="1"/>
        <pt x="1083" y="315" on="1"/>
      </contour>
    </TTGlyph>
    <TTGlyph name="F_F_H.sc" xMin="83" yMin="0" xMax="1492" yMax="577">
      <contour>
        <pt x="83" y="577" on="1"/>
        <pt x="452" y="577" on="1"/>
        <pt x="452" y="524" on="1"/>
        <pt x="146" y="524" on="1"/>
        <pt x="146" y="313" on="1"/>
        <pt x="427" y="313" on="1"/>
        <pt x="427" y="262" on="1"/>
        <pt x="146" y="262" on="1"/>
        <pt x="146" y="0" on="1"/>
        <pt x="83" y="0" on="1"/>
      </contour>
      <contour>
        <pt x="553" y="577" on="1"/>
        <pt x="922" y="577" on="1"/>
        <pt x="922" y="524" on="1"/>
        <pt x="616" y="524" on="1"/>
        <pt x="616" y="313" on="1"/>
        <pt x="897" y="313" on="1"/>
        <pt x="897" y="262" on="1"/>
        <pt x="616" y="262" on="1"/>
        <pt x="616" y="0" on="1"/>
        <pt x="553" y="0" on="1"/>
      </contour>
      <contour>
        <pt x="1022" y="577" on="1"/>
        <pt x="1085" y="577" on="1"/>
        <pt x="1085" y="322" on="1"/>
        <pt x="1429" y="322" on="1"/>
        <pt x="1429" y="577" on="1"/>
        <pt x="1492" y="577" on="1"/>
        <pt x="1492" y="0" on="1"/>
        <pt x="1429" y="0" on="1"/>
        <pt x="1429" y="269" on="1"/>
        <pt x="1085" y="269" on="1"/>
        <pt x="1085" y="0" on="1"/>
        <pt x="1022" y="0" on="1"/>
      </contour>
    </TTGlyph>
    <TTGlyph name="F_F_I.sc" xMin="83" yMin="0" xMax="1085" yMax="577">
      <contour>
        <pt x="83" y="577" on="1"/>
        <pt x="452" y="577" on="1"/>
        <pt x="452" y="524" on="1"/>
        <pt x="146" y="524" on="1"/>
        <pt x="146" y="313" on="1"/>
        <pt x="427" y="313" on="1"/>
        <pt x="427" y="262" on="1"/>
        <pt x="146" y="262" on="1"/>
        <pt x="146" y="0" on="1"/>
        <pt x="83" y="0" on="1"/>
      </contour>
      <contour>
        <pt x="553" y="577" on="1"/>
        <pt x="922" y="577" on="1"/>
        <pt x="922" y="524" on="1"/>
        <pt x="616" y="524" on="1"/>
        <pt x="616" y="313" on="1"/>
        <pt x="897" y="313" on="1"/>
        <pt x="897" y="262" on="1"/>
        <pt x="616" y="262" on="1"/>
        <pt x="616" y="0" on="1"/>
        <pt x="553" y="0" on="1"/>
      </contour>
      <contour>
        <pt x="1022" y="577" on="1"/>
        <pt x="1085" y="577" on="1"/>
        <pt x="1085" y="0" on="1"/>
        <pt x="1022" y="0" on="1"/>
      </contour>
    </TTGlyph>
    <TTGlyph name="F_F_J.sc" xMin="83" yMin="-146" xMax="1096" yMax="577">
      <contour>
        <pt x="83" y="577" on="1"/>
        <pt x="452" y="577" on="1"/>
        <pt x="452" y="524" on="1"/>
        <pt x="146" y="524" on="1"/>
        <pt x="146" y="313" on="1"/>
        <pt x="427" y="313" on="1"/>
        <pt x="427" y="262" on="1"/>
        <pt x="146" y="262" on="1"/>
        <pt x="146" y="0" on="1"/>
        <pt x="83" y="0" on="1"/>
      </contour>
      <contour>
        <pt x="553" y="577" on="1"/>
        <pt x="922" y="577" on="1"/>
        <pt x="922" y="524" on="1"/>
        <pt x="616" y="524" on="1"/>
        <pt x="616" y="313" on="1"/>
        <pt x="897" y="313" on="1"/>
        <pt x="897" y="262" on="1"/>
        <pt x="616" y="262" on="1"/>
        <pt x="616" y="0" on="1"/>
        <pt x="553" y="0" on="1"/>
      </contour>
      <contour>
        <pt x="964" y="-124" on="1"/>
        <pt x="984" y="-85" on="0"/>
        <pt x="1011" y="-22" on="0"/>
        <pt x="1027" y="40" on="0"/>
        <pt x="1033" y="105" on="0"/>
        <pt x="1033" y="144" on="1"/>
        <pt x="1033" y="577" on="1"/>
        <pt x="1096" y="577" on="1"/>
        <pt x="1096" y="141" on="1"/>
        <pt x="1096" y="103" on="0"/>
        <pt x="1087" y="35" on="0"/>
        <pt x="1066" y="-33" on="0"/>
        <pt x="1032" y="-104" on="0"/>
        <pt x="1007" y="-146" on="1"/>
      </contour>
    </TTGlyph>
    <TTGlyph name="F_F_K.sc" xMin="83" yMin="0" xMax="1484" yMax="577">
      <contour>
        <pt x="83" y="577" on="1"/>
        <pt x="452" y="577" on="1"/>
        <pt x="452" y="524" on="1"/>
        <pt x="146" y="524" on="1"/>
        <pt x="146" y="313" on="1"/>
        <pt x="427" y="313" on="1"/>
        <pt x="427" y="262" on="1"/>
        <pt x="146" y="262" on="1"/>
        <pt x="146" y="0" on="1"/>
        <pt x="83" y="0" on="1"/>
      </contour>
      <contour>
        <pt x="553" y="577" on="1"/>
        <pt x="922" y="577" on="1"/>
        <pt x="922" y="524" on="1"/>
        <pt x="616" y="524" on="1"/>
        <pt x="616" y="313" on="1"/>
        <pt x="897" y="313" on="1"/>
        <pt x="897" y="262" on="1"/>
        <pt x="616" y="262" on="1"/>
        <pt x="616" y="0" on="1"/>
        <pt x="553" y="0" on="1"/>
      </contour>
      <contour>
        <pt x="1022" y="577" on="1"/>
        <pt x="1085" y="577" on="1"/>
        <pt x="1085" y="320" on="1"/>
        <pt x="1196" y="320" on="1"/>
        <pt x="1395" y="577" on="1"/>
        <pt x="1468" y="577" on="1"/>
        <pt x="1268" y="318" on="1"/>
        <pt x="1240" y="299" on="1"/>
        <pt x="1240" y="294" on="1"/>
        <pt x="1270" y="275" on="1"/>
        <pt x="1484" y="0" on="1"/>
        <pt x="1411" y="0" on="1"/>
        <pt x="1202" y="267" on="1"/>
        <pt x="1085" y="267" on="1"/>
        <pt x="1085" y="0" on="1"/>
        <pt x="1022" y="0" on="1"/>
      </contour>
    </TTGlyph>
    <TTGlyph name="F_F_L.sc" xMin="83" yMin="0" xMax="1357" yMax="577">
      <contour>
        <pt x="1022" y="577" on="1"/>
        <pt x="1085" y="577" on="1"/>
        <pt x="1085" y="54" on="1"/>
        <pt x="1357" y="54" on="1"/>
        <pt x="1357" y="0" on="1"/>
        <pt x="1022" y="0" on="1"/>
      </contour>
      <contour>
        <pt x="83" y="577" on="1"/>
        <pt x="452" y="577" on="1"/>
        <pt x="452" y="524" on="1"/>
        <pt x="146" y="524" on="1"/>
        <pt x="146" y="313" on="1"/>
        <pt x="427" y="313" on="1"/>
        <pt x="427" y="262" on="1"/>
        <pt x="146" y="262" on="1"/>
        <pt x="146" y="0" on="1"/>
        <pt x="83" y="0" on="1"/>
      </contour>
      <contour>
        <pt x="553" y="577" on="1"/>
        <pt x="922" y="577" on="1"/>
        <pt x="922" y="524" on="1"/>
        <pt x="616" y="524" on="1"/>
        <pt x="616" y="313" on="1"/>
        <pt x="897" y="313" on="1"/>
        <pt x="897" y="262" on="1"/>
        <pt x="616" y="262" on="1"/>
        <pt x="616" y="0" on="1"/>
        <pt x="553" y="0" on="1"/>
      </contour>
    </TTGlyph>
    <TTGlyph name="F_F_T.sc" xMin="83" yMin="0" xMax="1401" yMax="577">
      <contour>
        <pt x="1143" y="523" on="1"/>
        <pt x="947" y="523" on="1"/>
        <pt x="947" y="577" on="1"/>
        <pt x="1401" y="577" on="1"/>
        <pt x="1401" y="523" on="1"/>
        <pt x="1206" y="523" on="1"/>
        <pt x="1206" y="0" on="1"/>
        <pt x="1143" y="0" on="1"/>
      </contour>
      <contour>
        <pt x="83" y="577" on="1"/>
        <pt x="452" y="577" on="1"/>
        <pt x="452" y="524" on="1"/>
        <pt x="146" y="524" on="1"/>
        <pt x="146" y="313" on="1"/>
        <pt x="427" y="313" on="1"/>
        <pt x="427" y="262" on="1"/>
        <pt x="146" y="262" on="1"/>
        <pt x="146" y="0" on="1"/>
        <pt x="83" y="0" on="1"/>
      </contour>
      <contour>
        <pt x="553" y="577" on="1"/>
        <pt x="922" y="577" on="1"/>
        <pt x="922" y="524" on="1"/>
        <pt x="616" y="524" on="1"/>
        <pt x="616" y="313" on="1"/>
        <pt x="897" y="313" on="1"/>
        <pt x="897" y="262" on="1"/>
        <pt x="616" y="262" on="1"/>
        <pt x="616" y="0" on="1"/>
        <pt x="553" y="0" on="1"/>
      </contour>
    </TTGlyph>
    <TTGlyph name="F_H.sc" xMin="83" yMin="0" xMax="1023" yMax="577">
      <contour>
        <pt x="83" y="577" on="1"/>
        <pt x="452" y="577" on="1"/>
        <pt x="452" y="524" on="1"/>
        <pt x="146" y="524" on="1"/>
        <pt x="146" y="313" on="1"/>
        <pt x="427" y="313" on="1"/>
        <pt x="427" y="262" on="1"/>
        <pt x="146" y="262" on="1"/>
        <pt x="146" y="0" on="1"/>
        <pt x="83" y="0" on="1"/>
      </contour>
      <contour>
        <pt x="553" y="577" on="1"/>
        <pt x="616" y="577" on="1"/>
        <pt x="616" y="322" on="1"/>
        <pt x="960" y="322" on="1"/>
        <pt x="960" y="577" on="1"/>
        <pt x="1023" y="577" on="1"/>
        <pt x="1023" y="0" on="1"/>
        <pt x="960" y="0" on="1"/>
        <pt x="960" y="269" on="1"/>
        <pt x="616" y="269" on="1"/>
        <pt x="616" y="0" on="1"/>
        <pt x="553" y="0" on="1"/>
      </contour>
    </TTGlyph>
    <TTGlyph name="F_I.sc" xMin="83" yMin="0" xMax="616" yMax="577">
      <contour>
        <pt x="83" y="577" on="1"/>
        <pt x="452" y="577" on="1"/>
        <pt x="452" y="524" on="1"/>
        <pt x="146" y="524" on="1"/>
        <pt x="146" y="313" on="1"/>
        <pt x="427" y="313" on="1"/>
        <pt x="427" y="262" on="1"/>
        <pt x="146" y="262" on="1"/>
        <pt x="146" y="0" on="1"/>
        <pt x="83" y="0" on="1"/>
      </contour>
      <contour>
        <pt x="553" y="577" on="1"/>
        <pt x="616" y="577" on="1"/>
        <pt x="616" y="0" on="1"/>
        <pt x="553" y="0" on="1"/>
      </contour>
    </TTGlyph>
    <TTGlyph name="F_J.sc" xMin="83" yMin="-146" xMax="627" yMax="577">
      <contour>
        <pt x="83" y="577" on="1"/>
        <pt x="452" y="577" on="1"/>
        <pt x="452" y="524" on="1"/>
        <pt x="146" y="524" on="1"/>
        <pt x="146" y="313" on="1"/>
        <pt x="427" y="313" on="1"/>
        <pt x="427" y="262" on="1"/>
        <pt x="146" y="262" on="1"/>
        <pt x="146" y="0" on="1"/>
        <pt x="83" y="0" on="1"/>
      </contour>
      <contour>
        <pt x="495" y="-124" on="1"/>
        <pt x="515" y="-85" on="0"/>
        <pt x="542" y="-22" on="0"/>
        <pt x="558" y="40" on="0"/>
        <pt x="564" y="105" on="0"/>
        <pt x="564" y="144" on="1"/>
        <pt x="564" y="577" on="1"/>
        <pt x="627" y="577" on="1"/>
        <pt x="627" y="141" on="1"/>
        <pt x="627" y="103" on="0"/>
        <pt x="618" y="35" on="0"/>
        <pt x="597" y="-33" on="0"/>
        <pt x="563" y="-104" on="0"/>
        <pt x="538" y="-146" on="1"/>
      </contour>
    </TTGlyph>
    <TTGlyph name="F_K.sc" xMin="83" yMin="0" xMax="1015" yMax="577">
      <contour>
        <pt x="83" y="577" on="1"/>
        <pt x="452" y="577" on="1"/>
        <pt x="452" y="524" on="1"/>
        <pt x="146" y="524" on="1"/>
        <pt x="146" y="313" on="1"/>
        <pt x="427" y="313" on="1"/>
        <pt x="427" y="262" on="1"/>
        <pt x="146" y="262" on="1"/>
        <pt x="146" y="0" on="1"/>
        <pt x="83" y="0" on="1"/>
      </contour>
      <contour>
        <pt x="553" y="577" on="1"/>
        <pt x="616" y="577" on="1"/>
        <pt x="616" y="320" on="1"/>
        <pt x="727" y="320" on="1"/>
        <pt x="926" y="577" on="1"/>
        <pt x="999" y="577" on="1"/>
        <pt x="799" y="318" on="1"/>
        <pt x="771" y="299" on="1"/>
        <pt x="771" y="294" on="1"/>
        <pt x="801" y="275" on="1"/>
        <pt x="1015" y="0" on="1"/>
        <pt x="942" y="0" on="1"/>
        <pt x="733" y="267" on="1"/>
        <pt x="616" y="267" on="1"/>
        <pt x="616" y="0" on="1"/>
        <pt x="553" y="0" on="1"/>
      </contour>
    </TTGlyph>
    <TTGlyph name="F_L.sc" xMin="83" yMin="0" xMax="888" yMax="577">
      <contour>
        <pt x="553" y="577" on="1"/>
        <pt x="616" y="577" on="1"/>
        <pt x="616" y="54" on="1"/>
        <pt x="888" y="54" on="1"/>
        <pt x="888" y="0" on="1"/>
        <pt x="553" y="0" on="1"/>
      </contour>
      <contour>
        <pt x="83" y="577" on="1"/>
        <pt x="452" y="577" on="1"/>
        <pt x="452" y="524" on="1"/>
        <pt x="146" y="524" on="1"/>
        <pt x="146" y="313" on="1"/>
        <pt x="427" y="313" on="1"/>
        <pt x="427" y="262" on="1"/>
        <pt x="146" y="262" on="1"/>
        <pt x="146" y="0" on="1"/>
        <pt x="83" y="0" on="1"/>
      </contour>
    </TTGlyph>
    <TTGlyph name="F_T.sc" xMin="83" yMin="0" xMax="931" yMax="577">
      <contour>
        <pt x="673" y="523" on="1"/>
        <pt x="477" y="523" on="1"/>
        <pt x="477" y="577" on="1"/>
        <pt x="931" y="577" on="1"/>
        <pt x="931" y="523" on="1"/>
        <pt x="736" y="523" on="1"/>
        <pt x="736" y="0" on="1"/>
        <pt x="673" y="0" on="1"/>
      </contour>
      <contour>
        <pt x="83" y="577" on="1"/>
        <pt x="452" y="577" on="1"/>
        <pt x="452" y="524" on="1"/>
        <pt x="146" y="524" on="1"/>
        <pt x="146" y="313" on="1"/>
        <pt x="427" y="313" on="1"/>
        <pt x="427" y="262" on="1"/>
        <pt x="146" y="262" on="1"/>
        <pt x="146" y="0" on="1"/>
        <pt x="83" y="0" on="1"/>
      </contour>
    </TTGlyph>
    <TTGlyph name="G" xMin="51" yMin="-9" xMax="554" yMax="749">
      <contour>
        <pt x="376" y="-9" on="1"/>
        <pt x="210" y="-8" on="0"/>
        <pt x="51" y="177" on="0"/>
        <pt x="51" y="369" on="1"/>
        <pt x="51" y="563" on="0"/>
        <pt x="214" y="749" on="0"/>
        <pt x="384" y="749" on="1"/>
        <pt x="419" y="749" on="0"/>
        <pt x="507" y="739" on="0"/>
        <pt x="551" y="728" on="1"/>
        <pt x="551" y="670" on="1"/>
        <pt x="499" y="682" on="0"/>
        <pt x="425" y="691" on="0"/>
        <pt x="389" y="691" on="1"/>
        <pt x="248" y="691" on="0"/>
        <pt x="118" y="536" on="0"/>
        <pt x="118" y="369" on="1"/>
        <pt x="118" y="204" on="0"/>
        <pt x="244" y="49" on="0"/>
        <pt x="377" y="49" on="1"/>
        <pt x="398" y="49" on="0"/>
        <pt x="462" y="55" on="0"/>
        <pt x="493" y="60" on="1"/>
        <pt x="493" y="376" on="1"/>
        <pt x="554" y="376" on="1"/>
        <pt x="554" y="15" on="1"/>
        <pt x="507" y="4" on="0"/>
        <pt x="414" y="-9" on="0"/>
      </contour>
    </TTGlyph>
    <TTGlyph name="G.sc" xMin="51" yMin="-8" xMax="492" yMax="585">
      <contour>
        <pt x="333" y="-8" on="1"/>
        <pt x="190" y="-7" on="0"/>
        <pt x="51" y="139" on="0"/>
        <pt x="51" y="288" on="1"/>
        <pt x="51" y="439" on="0"/>
        <pt x="192" y="585" on="0"/>
        <pt x="341" y="585" on="1"/>
        <pt x="373" y="585" on="0"/>
        <pt x="451" y="576" on="0"/>
        <pt x="489" y="567" on="1"/>
        <pt x="489" y="513" on="1"/>
        <pt x="442" y="522" on="0"/>
        <pt x="377" y="530" on="0"/>
        <pt x="346" y="530" on="1"/>
        <pt x="225" y="530" on="0"/>
        <pt x="116" y="414" on="0"/>
        <pt x="116" y="288" on="1"/>
        <pt x="116" y="164" on="0"/>
        <pt x="222" y="48" on="0"/>
        <pt x="335" y="48" on="1"/>
        <pt x="352" y="48" on="0"/>
        <pt x="410" y="53" on="0"/>
        <pt x="433" y="57" on="1"/>
        <pt x="433" y="293" on="1"/>
        <pt x="492" y="293" on="1"/>
        <pt x="492" y="13" on="1"/>
        <pt x="450" y="4" on="0"/>
        <pt x="367" y="-8" on="0"/>
      </contour>
    </TTGlyph>
    <TTGlyph name="Gacute" xMin="51" yMin="-9" xMax="554" yMax="933">
      <contour>
        <pt x="317" y="800" on="1"/>
        <pt x="393" y="933" on="1"/>
        <pt x="461" y="933" on="1"/>
        <pt x="369" y="795" on="1"/>
      </contour>
      <contour>
        <pt x="376" y="-9" on="1"/>
        <pt x="210" y="-8" on="0"/>
        <pt x="51" y="177" on="0"/>
        <pt x="51" y="369" on="1"/>
        <pt x="51" y="563" on="0"/>
        <pt x="214" y="749" on="0"/>
        <pt x="384" y="749" on="1"/>
        <pt x="419" y="749" on="0"/>
        <pt x="507" y="739" on="0"/>
        <pt x="551" y="728" on="1"/>
        <pt x="551" y="670" on="1"/>
        <pt x="499" y="682" on="0"/>
        <pt x="425" y="691" on="0"/>
        <pt x="389" y="691" on="1"/>
        <pt x="248" y="691" on="0"/>
        <pt x="118" y="536" on="0"/>
        <pt x="118" y="369" on="1"/>
        <pt x="118" y="204" on="0"/>
        <pt x="244" y="49" on="0"/>
        <pt x="377" y="49" on="1"/>
        <pt x="398" y="49" on="0"/>
        <pt x="462" y="55" on="0"/>
        <pt x="493" y="60" on="1"/>
        <pt x="493" y="376" on="1"/>
        <pt x="554" y="376" on="1"/>
        <pt x="554" y="15" on="1"/>
        <pt x="507" y="4" on="0"/>
        <pt x="414" y="-9" on="0"/>
      </contour>
    </TTGlyph>
    <TTGlyph name="Gacute.sc" xMin="51" yMin="-8" xMax="492" yMax="734">
      <contour>
        <pt x="333" y="-8" on="1"/>
        <pt x="190" y="-7" on="0"/>
        <pt x="51" y="139" on="0"/>
        <pt x="51" y="288" on="1"/>
        <pt x="51" y="440" on="0"/>
        <pt x="192" y="585" on="0"/>
        <pt x="341" y="585" on="1"/>
        <pt x="373" y="585" on="0"/>
        <pt x="451" y="576" on="0"/>
        <pt x="489" y="567" on="1"/>
        <pt x="489" y="513" on="1"/>
        <pt x="442" y="522" on="0"/>
        <pt x="377" y="530" on="0"/>
        <pt x="346" y="530" on="1"/>
        <pt x="226" y="530" on="0"/>
        <pt x="116" y="414" on="0"/>
        <pt x="116" y="288" on="1"/>
        <pt x="116" y="164" on="0"/>
        <pt x="222" y="48" on="0"/>
        <pt x="335" y="48" on="1"/>
        <pt x="352" y="48" on="0"/>
        <pt x="410" y="53" on="0"/>
        <pt x="433" y="57" on="1"/>
        <pt x="433" y="293" on="1"/>
        <pt x="492" y="293" on="1"/>
        <pt x="492" y="13" on="1"/>
        <pt x="451" y="4" on="0"/>
        <pt x="367" y="-8" on="0"/>
      </contour>
      <contour>
        <pt x="279" y="626" on="1"/>
        <pt x="344" y="734" on="1"/>
        <pt x="409" y="734" on="1"/>
        <pt x="328" y="621" on="1"/>
      </contour>
    </TTGlyph>
    <TTGlyph name="Gbreve" xMin="51" yMin="-9" xMax="554" yMax="955">
      <contour>
        <pt x="350" y="813" on="1"/>
        <pt x="271" y="813" on="0"/>
        <pt x="188" y="889" on="0"/>
        <pt x="188" y="955" on="1"/>
        <pt x="239" y="955" on="1"/>
        <pt x="239" y="909" on="0"/>
        <pt x="296" y="858" on="0"/>
        <pt x="350" y="858" on="1"/>
        <pt x="404" y="858" on="0"/>
        <pt x="461" y="909" on="0"/>
        <pt x="461" y="955" on="1"/>
        <pt x="513" y="955" on="1"/>
        <pt x="513" y="889" on="0"/>
        <pt x="428" y="813" on="0"/>
      </contour>
      <contour>
        <pt x="376" y="-9" on="1"/>
        <pt x="210" y="-8" on="0"/>
        <pt x="51" y="177" on="0"/>
        <pt x="51" y="369" on="1"/>
        <pt x="51" y="563" on="0"/>
        <pt x="214" y="749" on="0"/>
        <pt x="384" y="749" on="1"/>
        <pt x="419" y="749" on="0"/>
        <pt x="507" y="739" on="0"/>
        <pt x="551" y="728" on="1"/>
        <pt x="551" y="670" on="1"/>
        <pt x="499" y="682" on="0"/>
        <pt x="425" y="691" on="0"/>
        <pt x="389" y="691" on="1"/>
        <pt x="248" y="691" on="0"/>
        <pt x="118" y="536" on="0"/>
        <pt x="118" y="369" on="1"/>
        <pt x="118" y="204" on="0"/>
        <pt x="244" y="49" on="0"/>
        <pt x="377" y="49" on="1"/>
        <pt x="398" y="49" on="0"/>
        <pt x="462" y="55" on="0"/>
        <pt x="493" y="60" on="1"/>
        <pt x="493" y="376" on="1"/>
        <pt x="554" y="376" on="1"/>
        <pt x="554" y="15" on="1"/>
        <pt x="507" y="4" on="0"/>
        <pt x="414" y="-9" on="0"/>
      </contour>
    </TTGlyph>
    <TTGlyph name="Gbreve.sc" xMin="51" yMin="-8" xMax="492" yMax="749">
      <contour>
        <pt x="333" y="-8" on="1"/>
        <pt x="190" y="-7" on="0"/>
        <pt x="51" y="139" on="0"/>
        <pt x="51" y="288" on="1"/>
        <pt x="51" y="440" on="0"/>
        <pt x="192" y="585" on="0"/>
        <pt x="341" y="585" on="1"/>
        <pt x="373" y="585" on="0"/>
        <pt x="451" y="576" on="0"/>
        <pt x="489" y="567" on="1"/>
        <pt x="489" y="513" on="1"/>
        <pt x="442" y="522" on="0"/>
        <pt x="377" y="530" on="0"/>
        <pt x="346" y="530" on="1"/>
        <pt x="226" y="530" on="0"/>
        <pt x="116" y="414" on="0"/>
        <pt x="116" y="288" on="1"/>
        <pt x="116" y="164" on="0"/>
        <pt x="222" y="48" on="0"/>
        <pt x="335" y="48" on="1"/>
        <pt x="352" y="48" on="0"/>
        <pt x="410" y="53" on="0"/>
        <pt x="433" y="57" on="1"/>
        <pt x="433" y="293" on="1"/>
        <pt x="492" y="293" on="1"/>
        <pt x="492" y="13" on="1"/>
        <pt x="451" y="4" on="0"/>
        <pt x="367" y="-8" on="0"/>
      </contour>
      <contour>
        <pt x="311" y="633" on="1"/>
        <pt x="240" y="633" on="0"/>
        <pt x="167" y="696" on="0"/>
        <pt x="167" y="749" on="1"/>
        <pt x="216" y="749" on="1"/>
        <pt x="216" y="673" on="0"/>
        <pt x="311" y="673" on="1"/>
        <pt x="406" y="673" on="0"/>
        <pt x="406" y="749" on="1"/>
        <pt x="455" y="749" on="1"/>
        <pt x="455" y="695" on="0"/>
        <pt x="381" y="633" on="0"/>
      </contour>
    </TTGlyph>
    <TTGlyph name="Gcircumflex" xMin="51" yMin="-9" xMax="554" yMax="944">
      <contour>
        <pt x="376" y="-9" on="1"/>
        <pt x="210" y="-8" on="0"/>
        <pt x="51" y="177" on="0"/>
        <pt x="51" y="369" on="1"/>
        <pt x="51" y="563" on="0"/>
        <pt x="214" y="749" on="0"/>
        <pt x="384" y="749" on="1"/>
        <pt x="419" y="749" on="0"/>
        <pt x="507" y="739" on="0"/>
        <pt x="551" y="728" on="1"/>
        <pt x="551" y="670" on="1"/>
        <pt x="499" y="682" on="0"/>
        <pt x="425" y="691" on="0"/>
        <pt x="389" y="691" on="1"/>
        <pt x="248" y="691" on="0"/>
        <pt x="118" y="536" on="0"/>
        <pt x="118" y="369" on="1"/>
        <pt x="118" y="204" on="0"/>
        <pt x="244" y="49" on="0"/>
        <pt x="377" y="49" on="1"/>
        <pt x="398" y="49" on="0"/>
        <pt x="462" y="55" on="0"/>
        <pt x="493" y="60" on="1"/>
        <pt x="493" y="376" on="1"/>
        <pt x="554" y="376" on="1"/>
        <pt x="554" y="15" on="1"/>
        <pt x="507" y="4" on="0"/>
        <pt x="414" y="-9" on="0"/>
      </contour>
      <contour>
        <pt x="201" y="872" on="1"/>
        <pt x="348" y="944" on="1"/>
        <pt x="496" y="872" on="1"/>
        <pt x="496" y="814" on="1"/>
        <pt x="348" y="887" on="1"/>
        <pt x="201" y="814" on="1"/>
      </contour>
    </TTGlyph>
    <TTGlyph name="Gcircumflex.sc" xMin="51" yMin="-8" xMax="492" yMax="742">
      <contour>
        <pt x="333" y="-8" on="1"/>
        <pt x="190" y="-7" on="0"/>
        <pt x="51" y="139" on="0"/>
        <pt x="51" y="288" on="1"/>
        <pt x="51" y="440" on="0"/>
        <pt x="192" y="585" on="0"/>
        <pt x="341" y="585" on="1"/>
        <pt x="373" y="585" on="0"/>
        <pt x="451" y="576" on="0"/>
        <pt x="489" y="567" on="1"/>
        <pt x="489" y="513" on="1"/>
        <pt x="442" y="522" on="0"/>
        <pt x="377" y="530" on="0"/>
        <pt x="346" y="530" on="1"/>
        <pt x="226" y="530" on="0"/>
        <pt x="116" y="414" on="0"/>
        <pt x="116" y="288" on="1"/>
        <pt x="116" y="164" on="0"/>
        <pt x="222" y="48" on="0"/>
        <pt x="335" y="48" on="1"/>
        <pt x="352" y="48" on="0"/>
        <pt x="410" y="53" on="0"/>
        <pt x="433" y="57" on="1"/>
        <pt x="433" y="293" on="1"/>
        <pt x="492" y="293" on="1"/>
        <pt x="492" y="13" on="1"/>
        <pt x="451" y="4" on="0"/>
        <pt x="367" y="-8" on="0"/>
      </contour>
      <contour>
        <pt x="178" y="684" on="1"/>
        <pt x="309" y="742" on="1"/>
        <pt x="439" y="684" on="1"/>
        <pt x="439" y="633" on="1"/>
        <pt x="309" y="690" on="1"/>
        <pt x="178" y="633" on="1"/>
      </contour>
    </TTGlyph>
    <TTGlyph name="Gcommaaccent" xMin="51" yMin="-220" xMax="554" yMax="749">
      <contour>
        <pt x="327" y="-68" on="1"/>
        <pt x="394" y="-68" on="1"/>
        <pt x="333" y="-220" on="1"/>
        <pt x="277" y="-220" on="1"/>
      </contour>
      <contour>
        <pt x="376" y="-9" on="1"/>
        <pt x="210" y="-8" on="0"/>
        <pt x="51" y="177" on="0"/>
        <pt x="51" y="369" on="1"/>
        <pt x="51" y="563" on="0"/>
        <pt x="214" y="749" on="0"/>
        <pt x="384" y="749" on="1"/>
        <pt x="419" y="749" on="0"/>
        <pt x="507" y="739" on="0"/>
        <pt x="551" y="728" on="1"/>
        <pt x="551" y="670" on="1"/>
        <pt x="499" y="682" on="0"/>
        <pt x="425" y="691" on="0"/>
        <pt x="389" y="691" on="1"/>
        <pt x="248" y="691" on="0"/>
        <pt x="118" y="536" on="0"/>
        <pt x="118" y="369" on="1"/>
        <pt x="118" y="204" on="0"/>
        <pt x="244" y="49" on="0"/>
        <pt x="377" y="49" on="1"/>
        <pt x="398" y="49" on="0"/>
        <pt x="462" y="55" on="0"/>
        <pt x="493" y="60" on="1"/>
        <pt x="493" y="376" on="1"/>
        <pt x="554" y="376" on="1"/>
        <pt x="554" y="15" on="1"/>
        <pt x="507" y="4" on="0"/>
        <pt x="414" y="-9" on="0"/>
      </contour>
    </TTGlyph>
    <TTGlyph name="Gcommaaccent.sc" xMin="51" yMin="-172" xMax="492" yMax="585">
      <contour>
        <pt x="333" y="-8" on="1"/>
        <pt x="190" y="-7" on="0"/>
        <pt x="51" y="139" on="0"/>
        <pt x="51" y="288" on="1"/>
        <pt x="51" y="440" on="0"/>
        <pt x="192" y="585" on="0"/>
        <pt x="341" y="585" on="1"/>
        <pt x="373" y="585" on="0"/>
        <pt x="451" y="576" on="0"/>
        <pt x="489" y="567" on="1"/>
        <pt x="489" y="513" on="1"/>
        <pt x="442" y="522" on="0"/>
        <pt x="377" y="530" on="0"/>
        <pt x="346" y="530" on="1"/>
        <pt x="226" y="530" on="0"/>
        <pt x="116" y="414" on="0"/>
        <pt x="116" y="288" on="1"/>
        <pt x="116" y="164" on="0"/>
        <pt x="222" y="48" on="0"/>
        <pt x="335" y="48" on="1"/>
        <pt x="352" y="48" on="0"/>
        <pt x="410" y="53" on="0"/>
        <pt x="433" y="57" on="1"/>
        <pt x="433" y="293" on="1"/>
        <pt x="492" y="293" on="1"/>
        <pt x="492" y="13" on="1"/>
        <pt x="451" y="4" on="0"/>
        <pt x="367" y="-8" on="0"/>
      </contour>
      <contour>
        <pt x="287" y="-54" on="1"/>
        <pt x="351" y="-54" on="1"/>
        <pt x="297" y="-172" on="1"/>
        <pt x="245" y="-172" on="1"/>
      </contour>
    </TTGlyph>
    <TTGlyph name="Gdotaccent" xMin="51" yMin="-9" xMax="554" yMax="899">
      <contour>
        <pt x="350" y="811" on="1"/>
        <pt x="329" y="811" on="0"/>
        <pt x="305" y="832" on="0"/>
        <pt x="305" y="855" on="1"/>
        <pt x="305" y="878" on="0"/>
        <pt x="329" y="899" on="0"/>
        <pt x="350" y="899" on="1"/>
        <pt x="371" y="899" on="0"/>
        <pt x="396" y="878" on="0"/>
        <pt x="396" y="855" on="1"/>
        <pt x="396" y="832" on="0"/>
        <pt x="371" y="811" on="0"/>
      </contour>
      <contour>
        <pt x="376" y="-9" on="1"/>
        <pt x="210" y="-8" on="0"/>
        <pt x="51" y="177" on="0"/>
        <pt x="51" y="369" on="1"/>
        <pt x="51" y="563" on="0"/>
        <pt x="214" y="749" on="0"/>
        <pt x="384" y="749" on="1"/>
        <pt x="419" y="749" on="0"/>
        <pt x="507" y="739" on="0"/>
        <pt x="551" y="728" on="1"/>
        <pt x="551" y="670" on="1"/>
        <pt x="499" y="682" on="0"/>
        <pt x="425" y="691" on="0"/>
        <pt x="389" y="691" on="1"/>
        <pt x="248" y="691" on="0"/>
        <pt x="118" y="536" on="0"/>
        <pt x="118" y="369" on="1"/>
        <pt x="118" y="204" on="0"/>
        <pt x="244" y="49" on="0"/>
        <pt x="377" y="49" on="1"/>
        <pt x="398" y="49" on="0"/>
        <pt x="462" y="55" on="0"/>
        <pt x="493" y="60" on="1"/>
        <pt x="493" y="376" on="1"/>
        <pt x="554" y="376" on="1"/>
        <pt x="554" y="15" on="1"/>
        <pt x="507" y="4" on="0"/>
        <pt x="414" y="-9" on="0"/>
      </contour>
    </TTGlyph>
    <TTGlyph name="Gdotaccent.sc" xMin="51" yMin="-8" xMax="492" yMax="712">
      <contour>
        <pt x="333" y="-8" on="1"/>
        <pt x="190" y="-7" on="0"/>
        <pt x="51" y="139" on="0"/>
        <pt x="51" y="288" on="1"/>
        <pt x="51" y="440" on="0"/>
        <pt x="192" y="585" on="0"/>
        <pt x="341" y="585" on="1"/>
        <pt x="373" y="585" on="0"/>
        <pt x="451" y="576" on="0"/>
        <pt x="489" y="567" on="1"/>
        <pt x="489" y="513" on="1"/>
        <pt x="442" y="522" on="0"/>
        <pt x="377" y="530" on="0"/>
        <pt x="346" y="530" on="1"/>
        <pt x="226" y="530" on="0"/>
        <pt x="116" y="414" on="0"/>
        <pt x="116" y="288" on="1"/>
        <pt x="116" y="164" on="0"/>
        <pt x="222" y="48" on="0"/>
        <pt x="335" y="48" on="1"/>
        <pt x="352" y="48" on="0"/>
        <pt x="410" y="53" on="0"/>
        <pt x="433" y="57" on="1"/>
        <pt x="433" y="293" on="1"/>
        <pt x="492" y="293" on="1"/>
        <pt x="492" y="13" on="1"/>
        <pt x="451" y="4" on="0"/>
        <pt x="367" y="-8" on="0"/>
      </contour>
      <contour>
        <pt x="311" y="632" on="1"/>
        <pt x="291" y="632" on="0"/>
        <pt x="269" y="651" on="0"/>
        <pt x="269" y="672" on="1"/>
        <pt x="269" y="693" on="0"/>
        <pt x="291" y="712" on="0"/>
        <pt x="311" y="712" on="1"/>
        <pt x="331" y="712" on="0"/>
        <pt x="354" y="693" on="0"/>
        <pt x="354" y="672" on="1"/>
        <pt x="354" y="651" on="0"/>
        <pt x="331" y="632" on="0"/>
      </contour>
    </TTGlyph>
    <TTGlyph name="H" xMin="88" yMin="0" xMax="620" yMax="740">
      <contour>
        <pt x="88" y="740" on="1"/>
        <pt x="152" y="740" on="1"/>
        <pt x="152" y="407" on="1"/>
        <pt x="556" y="407" on="1"/>
        <pt x="556" y="740" on="1"/>
        <pt x="620" y="740" on="1"/>
        <pt x="620" y="0" on="1"/>
        <pt x="556" y="0" on="1"/>
        <pt x="556" y="350" on="1"/>
        <pt x="152" y="350" on="1"/>
        <pt x="152" y="0" on="1"/>
        <pt x="88" y="0" on="1"/>
      </contour>
    </TTGlyph>
    <TTGlyph name="H.sc" xMin="83" yMin="0" xMax="553" yMax="577">
      <contour>
        <pt x="83" y="577" on="1"/>
        <pt x="146" y="577" on="1"/>
        <pt x="146" y="322" on="1"/>
        <pt x="490" y="322" on="1"/>
        <pt x="490" y="577" on="1"/>
        <pt x="553" y="577" on="1"/>
        <pt x="553" y="0" on="1"/>
        <pt x="490" y="0" on="1"/>
        <pt x="490" y="269" on="1"/>
        <pt x="146" y="269" on="1"/>
        <pt x="146" y="0" on="1"/>
        <pt x="83" y="0" on="1"/>
      </contour>
    </TTGlyph>
    <TTGlyph name="Hbar" xMin="5" yMin="0" xMax="726" yMax="740">
      <contour>
        <pt x="5" y="588" on="1"/>
        <pt x="99" y="588" on="1"/>
        <pt x="99" y="740" on="1"/>
        <pt x="163" y="740" on="1"/>
        <pt x="163" y="588" on="1"/>
        <pt x="567" y="588" on="1"/>
        <pt x="567" y="740" on="1"/>
        <pt x="631" y="740" on="1"/>
        <pt x="631" y="588" on="1"/>
        <pt x="726" y="588" on="1"/>
        <pt x="726" y="547" on="1"/>
        <pt x="631" y="547" on="1"/>
        <pt x="631" y="0" on="1"/>
        <pt x="567" y="0" on="1"/>
        <pt x="567" y="350" on="1"/>
        <pt x="163" y="350" on="1"/>
        <pt x="163" y="0" on="1"/>
        <pt x="99" y="0" on="1"/>
        <pt x="99" y="547" on="1"/>
        <pt x="5" y="547" on="1"/>
      </contour>
      <contour>
        <pt x="567" y="407" on="1"/>
        <pt x="567" y="547" on="1"/>
        <pt x="163" y="547" on="1"/>
        <pt x="163" y="407" on="1"/>
      </contour>
    </TTGlyph>
    <TTGlyph name="Hbar.sc" xMin="12" yMin="0" xMax="642" yMax="577">
      <contour>
        <pt x="12" y="463" on="1"/>
        <pt x="91" y="463" on="1"/>
        <pt x="91" y="577" on="1"/>
        <pt x="154" y="577" on="1"/>
        <pt x="154" y="463" on="1"/>
        <pt x="498" y="463" on="1"/>
        <pt x="498" y="577" on="1"/>
        <pt x="561" y="577" on="1"/>
        <pt x="561" y="463" on="1"/>
        <pt x="642" y="463" on="1"/>
        <pt x="642" y="426" on="1"/>
        <pt x="561" y="426" on="1"/>
        <pt x="561" y="0" on="1"/>
        <pt x="498" y="0" on="1"/>
        <pt x="498" y="267" on="1"/>
        <pt x="154" y="267" on="1"/>
        <pt x="154" y="0" on="1"/>
        <pt x="91" y="0" on="1"/>
        <pt x="91" y="426" on="1"/>
        <pt x="12" y="426" on="1"/>
      </contour>
      <contour>
        <pt x="498" y="321" on="1"/>
        <pt x="498" y="426" on="1"/>
        <pt x="154" y="426" on="1"/>
        <pt x="154" y="321" on="1"/>
      </contour>
    </TTGlyph>
    <TTGlyph name="Hcircumflex" xMin="88" yMin="0" xMax="620" yMax="944">
      <contour>
        <pt x="88" y="740" on="1"/>
        <pt x="152" y="740" on="1"/>
        <pt x="152" y="407" on="1"/>
        <pt x="556" y="407" on="1"/>
        <pt x="556" y="740" on="1"/>
        <pt x="620" y="740" on="1"/>
        <pt x="620" y="0" on="1"/>
        <pt x="556" y="0" on="1"/>
        <pt x="556" y="350" on="1"/>
        <pt x="152" y="350" on="1"/>
        <pt x="152" y="0" on="1"/>
        <pt x="88" y="0" on="1"/>
      </contour>
      <contour>
        <pt x="198" y="872" on="1"/>
        <pt x="345" y="944" on="1"/>
        <pt x="493" y="872" on="1"/>
        <pt x="493" y="814" on="1"/>
        <pt x="345" y="887" on="1"/>
        <pt x="198" y="814" on="1"/>
      </contour>
    </TTGlyph>
    <TTGlyph name="Hcircumflex.sc" xMin="83" yMin="0" xMax="553" yMax="742">
      <contour>
        <pt x="83" y="577" on="1"/>
        <pt x="146" y="577" on="1"/>
        <pt x="146" y="322" on="1"/>
        <pt x="490" y="322" on="1"/>
        <pt x="490" y="577" on="1"/>
        <pt x="553" y="577" on="1"/>
        <pt x="553" y="0" on="1"/>
        <pt x="490" y="0" on="1"/>
        <pt x="490" y="269" on="1"/>
        <pt x="146" y="269" on="1"/>
        <pt x="146" y="0" on="1"/>
        <pt x="83" y="0" on="1"/>
      </contour>
      <contour>
        <pt x="181" y="684" on="1"/>
        <pt x="311" y="742" on="1"/>
        <pt x="442" y="684" on="1"/>
        <pt x="442" y="633" on="1"/>
        <pt x="312" y="690" on="1"/>
        <pt x="181" y="633" on="1"/>
      </contour>
    </TTGlyph>
    <TTGlyph name="Hdotbelow" xMin="88" yMin="-174" xMax="620" yMax="740">
      <contour>
        <pt x="88" y="740" on="1"/>
        <pt x="152" y="740" on="1"/>
        <pt x="152" y="407" on="1"/>
        <pt x="556" y="407" on="1"/>
        <pt x="556" y="740" on="1"/>
        <pt x="620" y="740" on="1"/>
        <pt x="620" y="0" on="1"/>
        <pt x="556" y="0" on="1"/>
        <pt x="556" y="350" on="1"/>
        <pt x="152" y="350" on="1"/>
        <pt x="152" y="0" on="1"/>
        <pt x="88" y="0" on="1"/>
      </contour>
      <contour>
        <pt x="362" y="-174" on="1"/>
        <pt x="341" y="-174" on="0"/>
        <pt x="318" y="-154" on="0"/>
        <pt x="318" y="-130" on="1"/>
        <pt x="318" y="-86" on="0"/>
        <pt x="362" y="-86" on="1"/>
        <pt x="383" y="-86" on="0"/>
        <pt x="407" y="-107" on="0"/>
        <pt x="407" y="-130" on="1"/>
        <pt x="407" y="-154" on="0"/>
        <pt x="383" y="-174" on="0"/>
      </contour>
    </TTGlyph>
    <TTGlyph name="Hdotbelow.sc" xMin="83" yMin="-140" xMax="553" yMax="577">
      <contour>
        <pt x="83" y="577" on="1"/>
        <pt x="146" y="577" on="1"/>
        <pt x="146" y="322" on="1"/>
        <pt x="490" y="322" on="1"/>
        <pt x="490" y="577" on="1"/>
        <pt x="553" y="577" on="1"/>
        <pt x="553" y="0" on="1"/>
        <pt x="490" y="0" on="1"/>
        <pt x="490" y="269" on="1"/>
        <pt x="146" y="269" on="1"/>
        <pt x="146" y="0" on="1"/>
        <pt x="83" y="0" on="1"/>
      </contour>
      <contour>
        <pt x="325" y="-140" on="1"/>
        <pt x="285" y="-140" on="0"/>
        <pt x="285" y="-103" on="1"/>
        <pt x="285" y="-65" on="0"/>
        <pt x="325" y="-65" on="1"/>
        <pt x="365" y="-65" on="0"/>
        <pt x="365" y="-103" on="1"/>
        <pt x="365" y="-140" on="0"/>
      </contour>
    </TTGlyph>
    <TTGlyph name="I" xMin="88" yMin="0" xMax="152" yMax="740">
      <contour>
        <pt x="88" y="740" on="1"/>
        <pt x="152" y="740" on="1"/>
        <pt x="152" y="0" on="1"/>
        <pt x="88" y="0" on="1"/>
      </contour>
    </TTGlyph>
    <TTGlyph name="I.sc" xMin="83" yMin="0" xMax="146" yMax="577">
      <contour>
        <pt x="83" y="577" on="1"/>
        <pt x="146" y="577" on="1"/>
        <pt x="146" y="0" on="1"/>
        <pt x="83" y="0" on="1"/>
      </contour>
    </TTGlyph>
    <TTGlyph name="IJ" xMin="88" yMin="-183" xMax="394" yMax="740">
      <contour>
        <pt x="88" y="740" on="1"/>
        <pt x="152" y="740" on="1"/>
        <pt x="152" y="0" on="1"/>
        <pt x="88" y="0" on="1"/>
      </contour>
      <contour>
        <pt x="249" y="-160" on="1"/>
        <pt x="273" y="-110" on="0"/>
        <pt x="304" y="-28" on="0"/>
        <pt x="322" y="51" on="0"/>
        <pt x="330" y="133" on="0"/>
        <pt x="330" y="183" on="1"/>
        <pt x="330" y="740" on="1"/>
        <pt x="394" y="740" on="1"/>
        <pt x="394" y="180" on="1"/>
        <pt x="394" y="132" on="0"/>
        <pt x="384" y="45" on="0"/>
        <pt x="360" y="-41" on="0"/>
        <pt x="322" y="-131" on="0"/>
        <pt x="294" y="-183" on="1"/>
      </contour>
    </TTGlyph>
    <TTGlyph name="Iacute" xMin="88" yMin="0" xMax="235" yMax="933">
      <contour>
        <pt x="88" y="740" on="1"/>
        <pt x="152" y="740" on="1"/>
        <pt x="152" y="0" on="1"/>
        <pt x="88" y="0" on="1"/>
      </contour>
      <contour>
        <pt x="91" y="800" on="1"/>
        <pt x="167" y="933" on="1"/>
        <pt x="235" y="933" on="1"/>
        <pt x="143" y="795" on="1"/>
      </contour>
    </TTGlyph>
    <TTGlyph name="Iacute.sc" xMin="83" yMin="0" xMax="216" yMax="734">
      <contour>
        <pt x="83" y="577" on="1"/>
        <pt x="146" y="577" on="1"/>
        <pt x="146" y="0" on="1"/>
        <pt x="83" y="0" on="1"/>
      </contour>
      <contour>
        <pt x="86" y="626" on="1"/>
        <pt x="151" y="734" on="1"/>
        <pt x="216" y="734" on="1"/>
        <pt x="136" y="621" on="1"/>
      </contour>
    </TTGlyph>
    <TTGlyph name="Ibreve" xMin="-40" yMin="0" xMax="285" yMax="955">
      <contour>
        <pt x="88" y="740" on="1"/>
        <pt x="152" y="740" on="1"/>
        <pt x="152" y="0" on="1"/>
        <pt x="88" y="0" on="1"/>
      </contour>
      <contour>
        <pt x="122" y="813" on="1"/>
        <pt x="43" y="813" on="0"/>
        <pt x="-40" y="889" on="0"/>
        <pt x="-40" y="955" on="1"/>
        <pt x="11" y="955" on="1"/>
        <pt x="11" y="909" on="0"/>
        <pt x="68" y="858" on="0"/>
        <pt x="122" y="858" on="1"/>
        <pt x="176" y="858" on="0"/>
        <pt x="233" y="909" on="0"/>
        <pt x="233" y="955" on="1"/>
        <pt x="285" y="955" on="1"/>
        <pt x="285" y="889" on="0"/>
        <pt x="200" y="813" on="0"/>
      </contour>
    </TTGlyph>
    <TTGlyph name="Ibreve.sc" xMin="-28" yMin="0" xMax="259" yMax="749">
      <contour>
        <pt x="83" y="577" on="1"/>
        <pt x="146" y="577" on="1"/>
        <pt x="146" y="0" on="1"/>
        <pt x="83" y="0" on="1"/>
      </contour>
      <contour>
        <pt x="116" y="633" on="1"/>
        <pt x="45" y="633" on="0"/>
        <pt x="-28" y="696" on="0"/>
        <pt x="-28" y="749" on="1"/>
        <pt x="20" y="749" on="1"/>
        <pt x="20" y="712" on="0"/>
        <pt x="69" y="673" on="0"/>
        <pt x="116" y="673" on="1"/>
        <pt x="162" y="673" on="0"/>
        <pt x="211" y="712" on="0"/>
        <pt x="211" y="749" on="1"/>
        <pt x="259" y="749" on="1"/>
        <pt x="259" y="695" on="0"/>
        <pt x="186" y="633" on="0"/>
      </contour>
    </TTGlyph>
    <TTGlyph name="Icircumflex" xMin="-26" yMin="0" xMax="269" yMax="944">
      <contour>
        <pt x="88" y="740" on="1"/>
        <pt x="152" y="740" on="1"/>
        <pt x="152" y="0" on="1"/>
        <pt x="88" y="0" on="1"/>
      </contour>
      <contour>
        <pt x="-26" y="872" on="1"/>
        <pt x="121" y="944" on="1"/>
        <pt x="269" y="872" on="1"/>
        <pt x="269" y="814" on="1"/>
        <pt x="121" y="887" on="1"/>
        <pt x="-26" y="814" on="1"/>
      </contour>
    </TTGlyph>
    <TTGlyph name="Icircumflex.sc" xMin="-15" yMin="0" xMax="246" yMax="742">
      <contour>
        <pt x="83" y="577" on="1"/>
        <pt x="146" y="577" on="1"/>
        <pt x="146" y="0" on="1"/>
        <pt x="83" y="0" on="1"/>
      </contour>
      <contour>
        <pt x="-15" y="684" on="1"/>
        <pt x="116" y="742" on="1"/>
        <pt x="246" y="684" on="1"/>
        <pt x="246" y="633" on="1"/>
        <pt x="116" y="690" on="1"/>
        <pt x="-15" y="633" on="1"/>
      </contour>
    </TTGlyph>
    <TTGlyph name="Idblgrave" xMin="-63" yMin="0" xMax="221" yMax="929">
      <contour>
        <pt x="88" y="740" on="1"/>
        <pt x="152" y="740" on="1"/>
        <pt x="152" y="0" on="1"/>
        <pt x="88" y="0" on="1"/>
      </contour>
      <contour>
        <pt x="29" y="791" on="1"/>
        <pt x="-63" y="929" on="1"/>
        <pt x="1" y="929" on="1"/>
        <pt x="78" y="804" on="1"/>
      </contour>
      <contour>
        <pt x="173" y="791" on="1"/>
        <pt x="81" y="929" on="1"/>
        <pt x="145" y="929" on="1"/>
        <pt x="221" y="804" on="1"/>
      </contour>
    </TTGlyph>
    <TTGlyph name="Idblgrave.sc" xMin="-48" yMin="0" xMax="206" yMax="731">
      <contour>
        <pt x="83" y="577" on="1"/>
        <pt x="146" y="577" on="1"/>
        <pt x="146" y="0" on="1"/>
        <pt x="83" y="0" on="1"/>
      </contour>
      <contour>
        <pt x="33" y="618" on="1"/>
        <pt x="-48" y="731" on="1"/>
        <pt x="13" y="731" on="1"/>
        <pt x="78" y="628" on="1"/>
      </contour>
      <contour>
        <pt x="161" y="618" on="1"/>
        <pt x="79" y="731" on="1"/>
        <pt x="141" y="731" on="1"/>
        <pt x="206" y="628" on="1"/>
      </contour>
    </TTGlyph>
    <TTGlyph name="Idieresis" xMin="-38" yMin="0" xMax="282" yMax="908">
      <contour>
        <pt x="88" y="740" on="1"/>
        <pt x="152" y="740" on="1"/>
        <pt x="152" y="0" on="1"/>
        <pt x="88" y="0" on="1"/>
      </contour>
      <contour>
        <pt x="7" y="819" on="1"/>
        <pt x="-14" y="819" on="0"/>
        <pt x="-38" y="841" on="0"/>
        <pt x="-38" y="864" on="1"/>
        <pt x="-38" y="887" on="0"/>
        <pt x="-14" y="908" on="0"/>
        <pt x="7" y="908" on="1"/>
        <pt x="28" y="908" on="0"/>
        <pt x="53" y="887" on="0"/>
        <pt x="53" y="864" on="1"/>
        <pt x="53" y="840" on="0"/>
        <pt x="28" y="819" on="0"/>
      </contour>
      <contour>
        <pt x="237" y="819" on="1"/>
        <pt x="191" y="819" on="0"/>
        <pt x="191" y="864" on="1"/>
        <pt x="191" y="908" on="0"/>
        <pt x="237" y="908" on="1"/>
        <pt x="257" y="908" on="0"/>
        <pt x="282" y="887" on="0"/>
        <pt x="282" y="864" on="1"/>
        <pt x="282" y="840" on="0"/>
        <pt x="257" y="819" on="0"/>
      </contour>
    </TTGlyph>
    <TTGlyph name="Idieresis.sc" xMin="-28" yMin="0" xMax="260" yMax="718">
      <contour>
        <pt x="83" y="577" on="1"/>
        <pt x="146" y="577" on="1"/>
        <pt x="146" y="0" on="1"/>
        <pt x="83" y="0" on="1"/>
      </contour>
      <contour>
        <pt x="14" y="638" on="1"/>
        <pt x="-28" y="638" on="0"/>
        <pt x="-28" y="678" on="1"/>
        <pt x="-28" y="718" on="0"/>
        <pt x="14" y="718" on="1"/>
        <pt x="34" y="718" on="0"/>
        <pt x="56" y="699" on="0"/>
        <pt x="56" y="678" on="1"/>
        <pt x="56" y="657" on="0"/>
        <pt x="34" y="638" on="0"/>
      </contour>
      <contour>
        <pt x="218" y="638" on="1"/>
        <pt x="176" y="638" on="0"/>
        <pt x="176" y="678" on="1"/>
        <pt x="176" y="718" on="0"/>
        <pt x="218" y="718" on="1"/>
        <pt x="238" y="718" on="0"/>
        <pt x="260" y="699" on="0"/>
        <pt x="260" y="678" on="1"/>
        <pt x="260" y="657" on="0"/>
        <pt x="238" y="638" on="0"/>
      </contour>
    </TTGlyph>
    <TTGlyph name="Idotaccent" xMin="76" yMin="0" xMax="167" yMax="899">
      <contour>
        <pt x="88" y="740" on="1"/>
        <pt x="152" y="740" on="1"/>
        <pt x="152" y="0" on="1"/>
        <pt x="88" y="0" on="1"/>
      </contour>
      <contour>
        <pt x="121" y="811" on="1"/>
        <pt x="100" y="811" on="0"/>
        <pt x="76" y="832" on="0"/>
        <pt x="76" y="855" on="1"/>
        <pt x="76" y="878" on="0"/>
        <pt x="100" y="899" on="0"/>
        <pt x="121" y="899" on="1"/>
        <pt x="142" y="899" on="0"/>
        <pt x="167" y="878" on="0"/>
        <pt x="167" y="855" on="1"/>
        <pt x="167" y="832" on="0"/>
        <pt x="142" y="811" on="0"/>
      </contour>
    </TTGlyph>
    <TTGlyph name="Idotaccent.sc" xMin="74" yMin="0" xMax="158" yMax="712">
      <contour>
        <pt x="83" y="577" on="1"/>
        <pt x="146" y="577" on="1"/>
        <pt x="146" y="0" on="1"/>
        <pt x="83" y="0" on="1"/>
      </contour>
      <contour>
        <pt x="115" y="632" on="1"/>
        <pt x="74" y="632" on="0"/>
        <pt x="74" y="672" on="1"/>
        <pt x="74" y="712" on="0"/>
        <pt x="115" y="712" on="1"/>
        <pt x="158" y="712" on="0"/>
        <pt x="158" y="672" on="1"/>
        <pt x="158" y="632" on="0"/>
      </contour>
    </TTGlyph>
    <TTGlyph name="Idotbelow" xMin="77" yMin="-174" xMax="166" yMax="740">
      <contour>
        <pt x="88" y="740" on="1"/>
        <pt x="152" y="740" on="1"/>
        <pt x="152" y="0" on="1"/>
        <pt x="88" y="0" on="1"/>
      </contour>
      <contour>
        <pt x="121" y="-174" on="1"/>
        <pt x="100" y="-174" on="0"/>
        <pt x="77" y="-154" on="0"/>
        <pt x="77" y="-130" on="1"/>
        <pt x="77" y="-86" on="0"/>
        <pt x="121" y="-86" on="1"/>
        <pt x="142" y="-86" on="0"/>
        <pt x="166" y="-107" on="0"/>
        <pt x="166" y="-130" on="1"/>
        <pt x="166" y="-154" on="0"/>
        <pt x="142" y="-174" on="0"/>
      </contour>
    </TTGlyph>
    <TTGlyph name="Idotbelow.sc" xMin="76" yMin="-140" xMax="156" yMax="577">
      <contour>
        <pt x="83" y="577" on="1"/>
        <pt x="146" y="577" on="1"/>
        <pt x="146" y="0" on="1"/>
        <pt x="83" y="0" on="1"/>
      </contour>
      <contour>
        <pt x="115" y="-140" on="1"/>
        <pt x="76" y="-140" on="0"/>
        <pt x="76" y="-103" on="1"/>
        <pt x="76" y="-65" on="0"/>
        <pt x="115" y="-65" on="1"/>
        <pt x="156" y="-65" on="0"/>
        <pt x="156" y="-103" on="1"/>
        <pt x="156" y="-140" on="0"/>
      </contour>
    </TTGlyph>
    <TTGlyph name="Igrave" xMin="5" yMin="0" xMax="152" yMax="933">
      <contour>
        <pt x="88" y="740" on="1"/>
        <pt x="152" y="740" on="1"/>
        <pt x="152" y="0" on="1"/>
        <pt x="88" y="0" on="1"/>
      </contour>
      <contour>
        <pt x="97" y="795" on="1"/>
        <pt x="5" y="933" on="1"/>
        <pt x="73" y="933" on="1"/>
        <pt x="149" y="808" on="1"/>
      </contour>
    </TTGlyph>
    <TTGlyph name="Igrave.sc" xMin="12" yMin="0" xMax="146" yMax="734">
      <contour>
        <pt x="83" y="577" on="1"/>
        <pt x="146" y="577" on="1"/>
        <pt x="146" y="0" on="1"/>
        <pt x="83" y="0" on="1"/>
      </contour>
      <contour>
        <pt x="93" y="621" on="1"/>
        <pt x="12" y="734" on="1"/>
        <pt x="78" y="734" on="1"/>
        <pt x="143" y="631" on="1"/>
      </contour>
    </TTGlyph>
    <TTGlyph name="Iinvertedbreve" xMin="-41" yMin="0" xMax="284" yMax="961">
      <contour>
        <pt x="88" y="740" on="1"/>
        <pt x="152" y="740" on="1"/>
        <pt x="152" y="0" on="1"/>
        <pt x="88" y="0" on="1"/>
      </contour>
      <contour>
        <pt x="232" y="819" on="1"/>
        <pt x="232" y="866" on="0"/>
        <pt x="176" y="917" on="0"/>
        <pt x="122" y="917" on="1"/>
        <pt x="68" y="917" on="0"/>
        <pt x="11" y="866" on="0"/>
        <pt x="11" y="819" on="1"/>
        <pt x="-41" y="819" on="1"/>
        <pt x="-41" y="885" on="0"/>
        <pt x="43" y="961" on="0"/>
        <pt x="122" y="961" on="1"/>
        <pt x="200" y="961" on="0"/>
        <pt x="284" y="885" on="0"/>
        <pt x="284" y="819" on="1"/>
      </contour>
    </TTGlyph>
    <TTGlyph name="Iinvertedbreve.sc" xMin="-28" yMin="0" xMax="260" yMax="753">
      <contour>
        <pt x="83" y="577" on="1"/>
        <pt x="146" y="577" on="1"/>
        <pt x="146" y="0" on="1"/>
        <pt x="83" y="0" on="1"/>
      </contour>
      <contour>
        <pt x="211" y="638" on="1"/>
        <pt x="211" y="714" on="0"/>
        <pt x="116" y="714" on="1"/>
        <pt x="21" y="714" on="0"/>
        <pt x="21" y="638" on="1"/>
        <pt x="-28" y="638" on="1"/>
        <pt x="-28" y="691" on="0"/>
        <pt x="45" y="753" on="0"/>
        <pt x="116" y="753" on="1"/>
        <pt x="186" y="753" on="0"/>
        <pt x="260" y="691" on="0"/>
        <pt x="260" y="638" on="1"/>
      </contour>
    </TTGlyph>
    <TTGlyph name="Imacron" xMin="-21" yMin="0" xMax="258" yMax="893">
      <contour>
        <pt x="88" y="740" on="1"/>
        <pt x="152" y="740" on="1"/>
        <pt x="152" y="0" on="1"/>
        <pt x="88" y="0" on="1"/>
      </contour>
      <contour>
        <pt x="-21" y="893" on="1"/>
        <pt x="258" y="893" on="1"/>
        <pt x="258" y="841" on="1"/>
        <pt x="-21" y="841" on="1"/>
      </contour>
    </TTGlyph>
    <TTGlyph name="Imacron.sc" xMin="-11" yMin="0" xMax="238" yMax="703">
      <contour>
        <pt x="83" y="577" on="1"/>
        <pt x="146" y="577" on="1"/>
        <pt x="146" y="0" on="1"/>
        <pt x="83" y="0" on="1"/>
      </contour>
      <contour>
        <pt x="-11" y="703" on="1"/>
        <pt x="238" y="703" on="1"/>
        <pt x="238" y="656" on="1"/>
        <pt x="-11" y="656" on="1"/>
      </contour>
    </TTGlyph>
    <TTGlyph name="Iogonek" xMin="-7" yMin="-220" xMax="152" yMax="740">
      <contour>
        <pt x="88" y="740" on="1"/>
        <pt x="152" y="740" on="1"/>
        <pt x="152" y="-19" on="1"/>
        <pt x="95" y="-45" on="0"/>
        <pt x="44" y="-102" on="0"/>
        <pt x="44" y="-134" on="1"/>
        <pt x="44" y="-175" on="0"/>
        <pt x="92" y="-175" on="1"/>
        <pt x="120" y="-175" on="0"/>
        <pt x="151" y="-164" on="1"/>
        <pt x="151" y="-208" on="1"/>
        <pt x="122" y="-220" on="0"/>
        <pt x="86" y="-220" on="1"/>
        <pt x="-7" y="-220" on="0"/>
        <pt x="-7" y="-138" on="1"/>
        <pt x="-7" y="-99" on="0"/>
        <pt x="41" y="-35" on="0"/>
        <pt x="98" y="0" on="1"/>
        <pt x="88" y="0" on="1"/>
      </contour>
    </TTGlyph>
    <TTGlyph name="Iogonek.sc" xMin="4" yMin="-172" xMax="146" yMax="577">
      <contour>
        <pt x="83" y="577" on="1"/>
        <pt x="146" y="577" on="1"/>
        <pt x="146" y="-13" on="1"/>
        <pt x="51" y="-51" on="0"/>
        <pt x="51" y="-101" on="1"/>
        <pt x="51" y="-118" on="0"/>
        <pt x="72" y="-131" on="0"/>
        <pt x="92" y="-131" on="1"/>
        <pt x="119" y="-131" on="0"/>
        <pt x="145" y="-123" on="1"/>
        <pt x="145" y="-162" on="1"/>
        <pt x="117" y="-172" on="0"/>
        <pt x="87" y="-172" on="1"/>
        <pt x="4" y="-172" on="0"/>
        <pt x="4" y="-106" on="1"/>
        <pt x="4" y="-76" on="0"/>
        <pt x="44" y="-28" on="0"/>
        <pt x="92" y="0" on="1"/>
        <pt x="83" y="0" on="1"/>
      </contour>
    </TTGlyph>
    <TTGlyph name="Itilde" xMin="-53" yMin="0" xMax="309" yMax="920">
      <contour>
        <pt x="88" y="740" on="1"/>
        <pt x="152" y="740" on="1"/>
        <pt x="152" y="0" on="1"/>
        <pt x="88" y="0" on="1"/>
      </contour>
      <contour>
        <pt x="-53" y="857" on="1"/>
        <pt x="-30" y="886" on="0"/>
        <pt x="29" y="920" on="0"/>
        <pt x="58" y="920" on="1"/>
        <pt x="80" y="920" on="0"/>
        <pt x="117" y="907" on="0"/>
        <pt x="152" y="891" on="0"/>
        <pt x="187" y="878" on="0"/>
        <pt x="207" y="878" on="1"/>
        <pt x="247" y="878" on="0"/>
        <pt x="284" y="917" on="1"/>
        <pt x="309" y="894" on="1"/>
        <pt x="289" y="863" on="0"/>
        <pt x="228" y="828" on="0"/>
        <pt x="197" y="828" on="1"/>
        <pt x="177" y="828" on="0"/>
        <pt x="140" y="841" on="0"/>
        <pt x="104" y="857" on="0"/>
        <pt x="69" y="870" on="0"/>
        <pt x="50" y="870" on="1"/>
        <pt x="30" y="870" on="0"/>
        <pt x="-10" y="850" on="0"/>
        <pt x="-29" y="832" on="1"/>
      </contour>
    </TTGlyph>
    <TTGlyph name="Itilde.sc" xMin="-39" yMin="0" xMax="282" yMax="724">
      <contour>
        <pt x="83" y="577" on="1"/>
        <pt x="146" y="577" on="1"/>
        <pt x="146" y="0" on="1"/>
        <pt x="83" y="0" on="1"/>
      </contour>
      <contour>
        <pt x="-39" y="669" on="1"/>
        <pt x="-18" y="695" on="0"/>
        <pt x="34" y="724" on="0"/>
        <pt x="60" y="724" on="1"/>
        <pt x="79" y="724" on="0"/>
        <pt x="112" y="714" on="0"/>
        <pt x="143" y="702" on="0"/>
        <pt x="174" y="692" on="0"/>
        <pt x="192" y="692" on="1"/>
        <pt x="228" y="692" on="0"/>
        <pt x="261" y="722" on="1"/>
        <pt x="282" y="703" on="1"/>
        <pt x="262" y="676" on="0"/>
        <pt x="209" y="646" on="0"/>
        <pt x="182" y="646" on="1"/>
        <pt x="164" y="646" on="0"/>
        <pt x="131" y="656" on="0"/>
        <pt x="99" y="668" on="0"/>
        <pt x="67" y="678" on="0"/>
        <pt x="51" y="678" on="1"/>
        <pt x="15" y="678" on="0"/>
        <pt x="-19" y="648" on="1"/>
      </contour>
    </TTGlyph>
    <TTGlyph name="J" xMin="9" yMin="-183" xMax="154" yMax="740">
      <contour>
        <pt x="9" y="-160" on="1"/>
        <pt x="33" y="-110" on="0"/>
        <pt x="64" y="-28" on="0"/>
        <pt x="82" y="51" on="0"/>
        <pt x="90" y="133" on="0"/>
        <pt x="90" y="183" on="1"/>
        <pt x="90" y="740" on="1"/>
        <pt x="154" y="740" on="1"/>
        <pt x="154" y="180" on="1"/>
        <pt x="154" y="132" on="0"/>
        <pt x="144" y="45" on="0"/>
        <pt x="120" y="-41" on="0"/>
        <pt x="82" y="-131" on="0"/>
        <pt x="54" y="-183" on="1"/>
      </contour>
    </TTGlyph>
    <TTGlyph name="J.sc" xMin="16" yMin="-146" xMax="148" yMax="577">
      <contour>
        <pt x="16" y="-124" on="1"/>
        <pt x="36" y="-85" on="0"/>
        <pt x="63" y="-22" on="0"/>
        <pt x="79" y="40" on="0"/>
        <pt x="85" y="105" on="0"/>
        <pt x="85" y="144" on="1"/>
        <pt x="85" y="577" on="1"/>
        <pt x="148" y="577" on="1"/>
        <pt x="148" y="141" on="1"/>
        <pt x="148" y="103" on="0"/>
        <pt x="139" y="35" on="0"/>
        <pt x="118" y="-33" on="0"/>
        <pt x="84" y="-104" on="0"/>
        <pt x="59" y="-146" on="1"/>
      </contour>
    </TTGlyph>
    <TTGlyph name="Jcircumflex" xMin="-26" yMin="-183" xMax="269" yMax="944">
      <contour>
        <pt x="9" y="-160" on="1"/>
        <pt x="33" y="-110" on="0"/>
        <pt x="64" y="-28" on="0"/>
        <pt x="82" y="51" on="0"/>
        <pt x="90" y="133" on="0"/>
        <pt x="90" y="183" on="1"/>
        <pt x="90" y="740" on="1"/>
        <pt x="154" y="740" on="1"/>
        <pt x="154" y="180" on="1"/>
        <pt x="154" y="132" on="0"/>
        <pt x="144" y="45" on="0"/>
        <pt x="120" y="-41" on="0"/>
        <pt x="82" y="-131" on="0"/>
        <pt x="54" y="-183" on="1"/>
      </contour>
      <contour>
        <pt x="-26" y="872" on="1"/>
        <pt x="121" y="944" on="1"/>
        <pt x="269" y="872" on="1"/>
        <pt x="269" y="814" on="1"/>
        <pt x="121" y="887" on="1"/>
        <pt x="-26" y="814" on="1"/>
      </contour>
    </TTGlyph>
    <TTGlyph name="Jcircumflex.sc" xMin="-15" yMin="-146" xMax="247" yMax="742">
      <contour>
        <pt x="16" y="-124" on="1"/>
        <pt x="36" y="-85" on="0"/>
        <pt x="62" y="-22" on="0"/>
        <pt x="78" y="40" on="0"/>
        <pt x="84" y="105" on="0"/>
        <pt x="84" y="144" on="1"/>
        <pt x="84" y="577" on="1"/>
        <pt x="147" y="577" on="1"/>
        <pt x="147" y="141" on="1"/>
        <pt x="147" y="103" on="0"/>
        <pt x="138" y="35" on="0"/>
        <pt x="117" y="-33" on="0"/>
        <pt x="84" y="-104" on="0"/>
        <pt x="59" y="-146" on="1"/>
      </contour>
      <contour>
        <pt x="-15" y="684" on="1"/>
        <pt x="116" y="742" on="1"/>
        <pt x="247" y="684" on="1"/>
        <pt x="247" y="633" on="1"/>
        <pt x="116" y="690" on="1"/>
        <pt x="-15" y="633" on="1"/>
      </contour>
    </TTGlyph>
    <TTGlyph name="K" xMin="88" yMin="0" xMax="612" yMax="740">
      <contour>
        <pt x="88" y="740" on="1"/>
        <pt x="152" y="740" on="1"/>
        <pt x="152" y="406" on="1"/>
        <pt x="281" y="406" on="1"/>
        <pt x="518" y="740" on="1"/>
        <pt x="594" y="740" on="1"/>
        <pt x="357" y="407" on="1"/>
        <pt x="328" y="382" on="1"/>
        <pt x="328" y="377" on="1"/>
        <pt x="360" y="353" on="1"/>
        <pt x="612" y="0" on="1"/>
        <pt x="537" y="0" on="1"/>
        <pt x="287" y="348" on="1"/>
        <pt x="152" y="348" on="1"/>
        <pt x="152" y="0" on="1"/>
        <pt x="88" y="0" on="1"/>
      </contour>
    </TTGlyph>
    <TTGlyph name="K.sc" xMin="83" yMin="0" xMax="545" yMax="577">
      <contour>
        <pt x="83" y="577" on="1"/>
        <pt x="146" y="577" on="1"/>
        <pt x="146" y="320" on="1"/>
        <pt x="257" y="320" on="1"/>
        <pt x="456" y="577" on="1"/>
        <pt x="529" y="577" on="1"/>
        <pt x="329" y="318" on="1"/>
        <pt x="301" y="299" on="1"/>
        <pt x="301" y="294" on="1"/>
        <pt x="331" y="275" on="1"/>
        <pt x="545" y="0" on="1"/>
        <pt x="472" y="0" on="1"/>
        <pt x="263" y="267" on="1"/>
        <pt x="146" y="267" on="1"/>
        <pt x="146" y="0" on="1"/>
        <pt x="83" y="0" on="1"/>
      </contour>
    </TTGlyph>
    <TTGlyph name="Kcommaaccent" xMin="88" yMin="-220" xMax="612" yMax="740">
      <contour>
        <pt x="292" y="-68" on="1"/>
        <pt x="359" y="-68" on="1"/>
        <pt x="298" y="-220" on="1"/>
        <pt x="242" y="-220" on="1"/>
      </contour>
      <contour>
        <pt x="88" y="740" on="1"/>
        <pt x="152" y="740" on="1"/>
        <pt x="152" y="406" on="1"/>
        <pt x="281" y="406" on="1"/>
        <pt x="518" y="740" on="1"/>
        <pt x="594" y="740" on="1"/>
        <pt x="357" y="407" on="1"/>
        <pt x="328" y="382" on="1"/>
        <pt x="328" y="377" on="1"/>
        <pt x="360" y="353" on="1"/>
        <pt x="612" y="0" on="1"/>
        <pt x="537" y="0" on="1"/>
        <pt x="287" y="348" on="1"/>
        <pt x="152" y="348" on="1"/>
        <pt x="152" y="0" on="1"/>
        <pt x="88" y="0" on="1"/>
      </contour>
    </TTGlyph>
    <TTGlyph name="Kcommaaccent.sc" xMin="83" yMin="-172" xMax="545" yMax="577">
      <contour>
        <pt x="83" y="577" on="1"/>
        <pt x="146" y="577" on="1"/>
        <pt x="146" y="320" on="1"/>
        <pt x="257" y="320" on="1"/>
        <pt x="456" y="577" on="1"/>
        <pt x="529" y="577" on="1"/>
        <pt x="329" y="318" on="1"/>
        <pt x="301" y="299" on="1"/>
        <pt x="301" y="294" on="1"/>
        <pt x="331" y="275" on="1"/>
        <pt x="545" y="0" on="1"/>
        <pt x="472" y="0" on="1"/>
        <pt x="263" y="267" on="1"/>
        <pt x="146" y="267" on="1"/>
        <pt x="146" y="0" on="1"/>
        <pt x="83" y="0" on="1"/>
      </contour>
      <contour>
        <pt x="263" y="-54" on="1"/>
        <pt x="328" y="-54" on="1"/>
        <pt x="274" y="-172" on="1"/>
        <pt x="221" y="-172" on="1"/>
      </contour>
    </TTGlyph>
    <TTGlyph name="L" xMin="88" yMin="0" xMax="465" yMax="740">
      <contour>
        <pt x="88" y="740" on="1"/>
        <pt x="152" y="740" on="1"/>
        <pt x="152" y="57" on="1"/>
        <pt x="465" y="57" on="1"/>
        <pt x="465" y="0" on="1"/>
        <pt x="88" y="0" on="1"/>
      </contour>
    </TTGlyph>
    <TTGlyph name="L.sc" xMin="83" yMin="0" xMax="418" yMax="577">
      <contour>
        <pt x="83" y="577" on="1"/>
        <pt x="146" y="577" on="1"/>
        <pt x="146" y="54" on="1"/>
        <pt x="418" y="54" on="1"/>
        <pt x="418" y="0" on="1"/>
        <pt x="83" y="0" on="1"/>
      </contour>
    </TTGlyph>
    <TTGlyph name="Lacute" xMin="88" yMin="0" xMax="465" yMax="933">
      <contour>
        <pt x="98" y="800" on="1"/>
        <pt x="174" y="933" on="1"/>
        <pt x="242" y="933" on="1"/>
        <pt x="150" y="795" on="1"/>
      </contour>
      <contour>
        <pt x="88" y="740" on="1"/>
        <pt x="152" y="740" on="1"/>
        <pt x="152" y="57" on="1"/>
        <pt x="465" y="57" on="1"/>
        <pt x="465" y="0" on="1"/>
        <pt x="88" y="0" on="1"/>
      </contour>
    </TTGlyph>
    <TTGlyph name="Lacute.sc" xMin="83" yMin="0" xMax="419" yMax="734">
      <contour>
        <pt x="83" y="577" on="1"/>
        <pt x="146" y="577" on="1"/>
        <pt x="146" y="54" on="1"/>
        <pt x="419" y="54" on="1"/>
        <pt x="419" y="0" on="1"/>
        <pt x="83" y="0" on="1"/>
      </contour>
      <contour>
        <pt x="92" y="626" on="1"/>
        <pt x="157" y="734" on="1"/>
        <pt x="223" y="734" on="1"/>
        <pt x="142" y="621" on="1"/>
      </contour>
    </TTGlyph>
    <TTGlyph name="Lcaron" xMin="88" yMin="0" xMax="465" yMax="751">
      <contour>
        <pt x="365" y="751" on="1"/>
        <pt x="421" y="751" on="1"/>
        <pt x="396" y="523" on="1"/>
        <pt x="365" y="523" on="1"/>
      </contour>
      <contour>
        <pt x="88" y="740" on="1"/>
        <pt x="152" y="740" on="1"/>
        <pt x="152" y="57" on="1"/>
        <pt x="465" y="57" on="1"/>
        <pt x="465" y="0" on="1"/>
        <pt x="88" y="0" on="1"/>
      </contour>
    </TTGlyph>
    <TTGlyph name="Lcaron.sc" xMin="83" yMin="0" xMax="418" yMax="591">
      <contour>
        <pt x="83" y="577" on="1"/>
        <pt x="146" y="577" on="1"/>
        <pt x="146" y="54" on="1"/>
        <pt x="418" y="54" on="1"/>
        <pt x="418" y="0" on="1"/>
        <pt x="83" y="0" on="1"/>
      </contour>
      <contour>
        <pt x="328" y="591" on="1"/>
        <pt x="382" y="591" on="1"/>
        <pt x="359" y="413" on="1"/>
        <pt x="328" y="413" on="1"/>
      </contour>
    </TTGlyph>
    <TTGlyph name="Lcommaaccent" xMin="88" yMin="-220" xMax="465" yMax="740">
      <contour>
        <pt x="252" y="-68" on="1"/>
        <pt x="319" y="-68" on="1"/>
        <pt x="258" y="-220" on="1"/>
        <pt x="202" y="-220" on="1"/>
      </contour>
      <contour>
        <pt x="88" y="740" on="1"/>
        <pt x="152" y="740" on="1"/>
        <pt x="152" y="57" on="1"/>
        <pt x="465" y="57" on="1"/>
        <pt x="465" y="0" on="1"/>
        <pt x="88" y="0" on="1"/>
      </contour>
    </TTGlyph>
    <TTGlyph name="Lcommaaccent.sc" xMin="83" yMin="-172" xMax="418" yMax="577">
      <contour>
        <pt x="83" y="577" on="1"/>
        <pt x="146" y="577" on="1"/>
        <pt x="146" y="54" on="1"/>
        <pt x="418" y="54" on="1"/>
        <pt x="418" y="0" on="1"/>
        <pt x="83" y="0" on="1"/>
      </contour>
      <contour>
        <pt x="225" y="-54" on="1"/>
        <pt x="289" y="-54" on="1"/>
        <pt x="235" y="-172" on="1"/>
        <pt x="183" y="-172" on="1"/>
      </contour>
    </TTGlyph>
    <TTGlyph name="Ldot" xMin="88" yMin="0" xMax="465" yMax="740">
      <contour>
        <pt x="88" y="740" on="1"/>
        <pt x="152" y="740" on="1"/>
        <pt x="152" y="57" on="1"/>
        <pt x="465" y="57" on="1"/>
        <pt x="465" y="0" on="1"/>
        <pt x="88" y="0" on="1"/>
      </contour>
      <contour>
        <pt x="382" y="328" on="1"/>
        <pt x="361" y="328" on="0"/>
        <pt x="337" y="350" on="0"/>
        <pt x="337" y="373" on="1"/>
        <pt x="337" y="396" on="0"/>
        <pt x="361" y="418" on="0"/>
        <pt x="382" y="418" on="1"/>
        <pt x="402" y="418" on="0"/>
        <pt x="427" y="396" on="0"/>
        <pt x="427" y="373" on="1"/>
        <pt x="427" y="350" on="0"/>
        <pt x="402" y="328" on="0"/>
      </contour>
    </TTGlyph>
    <TTGlyph name="Ldot.sc" xMin="83" yMin="0" xMax="418" yMax="577">
      <contour>
        <pt x="83" y="577" on="1"/>
        <pt x="146" y="577" on="1"/>
        <pt x="146" y="54" on="1"/>
        <pt x="418" y="54" on="1"/>
        <pt x="418" y="0" on="1"/>
        <pt x="83" y="0" on="1"/>
      </contour>
      <contour>
        <pt x="347" y="252" on="1"/>
        <pt x="306" y="252" on="0"/>
        <pt x="306" y="293" on="1"/>
        <pt x="306" y="332" on="0"/>
        <pt x="347" y="332" on="1"/>
        <pt x="367" y="332" on="0"/>
        <pt x="390" y="314" on="0"/>
        <pt x="390" y="293" on="1"/>
        <pt x="390" y="271" on="0"/>
        <pt x="367" y="252" on="0"/>
      </contour>
    </TTGlyph>
    <TTGlyph name="Lslash" xMin="14" yMin="0" xMax="487" yMax="740">
      <contour>
        <pt x="14" y="284" on="1"/>
        <pt x="110" y="352" on="1"/>
        <pt x="110" y="740" on="1"/>
        <pt x="174" y="740" on="1"/>
        <pt x="174" y="398" on="1"/>
        <pt x="317" y="500" on="1"/>
        <pt x="317" y="439" on="1"/>
        <pt x="174" y="337" on="1"/>
        <pt x="174" y="57" on="1"/>
        <pt x="487" y="57" on="1"/>
        <pt x="487" y="0" on="1"/>
        <pt x="110" y="0" on="1"/>
        <pt x="110" y="291" on="1"/>
        <pt x="14" y="223" on="1"/>
      </contour>
    </TTGlyph>
    <TTGlyph name="Lslash.sc" xMin="21" yMin="0" xMax="438" yMax="577">
      <contour>
        <pt x="21" y="230" on="1"/>
        <pt x="102" y="283" on="1"/>
        <pt x="102" y="577" on="1"/>
        <pt x="165" y="577" on="1"/>
        <pt x="165" y="316" on="1"/>
        <pt x="290" y="395" on="1"/>
        <pt x="290" y="340" on="1"/>
        <pt x="165" y="262" on="1"/>
        <pt x="165" y="54" on="1"/>
        <pt x="438" y="54" on="1"/>
        <pt x="438" y="0" on="1"/>
        <pt x="102" y="0" on="1"/>
        <pt x="102" y="228" on="1"/>
        <pt x="21" y="175" on="1"/>
      </contour>
    </TTGlyph>
    <TTGlyph name="M" xMin="88" yMin="0" xMax="781" yMax="740">
      <contour>
        <pt x="88" y="740" on="1"/>
        <pt x="176" y="740" on="1"/>
        <pt x="378" y="242" on="1"/>
        <pt x="431" y="103" on="1"/>
        <pt x="437" y="103" on="1"/>
        <pt x="491" y="242" on="1"/>
        <pt x="693" y="740" on="1"/>
        <pt x="781" y="740" on="1"/>
        <pt x="781" y="0" on="1"/>
        <pt x="720" y="0" on="1"/>
        <pt x="720" y="642" on="1"/>
        <pt x="715" y="643" on="1"/>
        <pt x="646" y="469" on="1"/>
        <pt x="466" y="30" on="1"/>
        <pt x="402" y="30" on="1"/>
        <pt x="223" y="469" on="1"/>
        <pt x="153" y="643" on="1"/>
        <pt x="148" y="642" on="1"/>
        <pt x="148" y="0" on="1"/>
        <pt x="88" y="0" on="1"/>
      </contour>
    </TTGlyph>
    <TTGlyph name="M.sc" xMin="83" yMin="0" xMax="693" yMax="577">
      <contour>
        <pt x="83" y="577" on="1"/>
        <pt x="167" y="577" on="1"/>
        <pt x="338" y="204" on="1"/>
        <pt x="385" y="95" on="1"/>
        <pt x="390" y="95" on="1"/>
        <pt x="437" y="204" on="1"/>
        <pt x="609" y="577" on="1"/>
        <pt x="693" y="577" on="1"/>
        <pt x="693" y="0" on="1"/>
        <pt x="634" y="0" on="1"/>
        <pt x="634" y="492" on="1"/>
        <pt x="629" y="492" on="1"/>
        <pt x="566" y="349" on="1"/>
        <pt x="418" y="24" on="1"/>
        <pt x="357" y="24" on="1"/>
        <pt x="209" y="349" on="1"/>
        <pt x="146" y="492" on="1"/>
        <pt x="142" y="492" on="1"/>
        <pt x="142" y="0" on="1"/>
        <pt x="83" y="0" on="1"/>
      </contour>
    </TTGlyph>
    <TTGlyph name="N" xMin="88" yMin="0" xMax="643" yMax="740">
      <contour>
        <pt x="88" y="740" on="1"/>
        <pt x="147" y="740" on="1"/>
        <pt x="523" y="192" on="1"/>
        <pt x="577" y="105" on="1"/>
        <pt x="583" y="105" on="1"/>
        <pt x="583" y="740" on="1"/>
        <pt x="643" y="740" on="1"/>
        <pt x="643" y="0" on="1"/>
        <pt x="582" y="0" on="1"/>
        <pt x="206" y="548" on="1"/>
        <pt x="153" y="634" on="1"/>
        <pt x="148" y="634" on="1"/>
        <pt x="148" y="0" on="1"/>
        <pt x="88" y="0" on="1"/>
      </contour>
    </TTGlyph>
    <TTGlyph name="N.sc" xMin="83" yMin="0" xMax="568" yMax="577">
      <contour>
        <pt x="83" y="577" on="1"/>
        <pt x="138" y="577" on="1"/>
        <pt x="456" y="165" on="1"/>
        <pt x="505" y="97" on="1"/>
        <pt x="509" y="97" on="1"/>
        <pt x="509" y="577" on="1"/>
        <pt x="568" y="577" on="1"/>
        <pt x="568" y="0" on="1"/>
        <pt x="512" y="0" on="1"/>
        <pt x="194" y="412" on="1"/>
        <pt x="146" y="480" on="1"/>
        <pt x="141" y="480" on="1"/>
        <pt x="141" y="0" on="1"/>
        <pt x="83" y="0" on="1"/>
      </contour>
    </TTGlyph>
    <TTGlyph name="Nacute" xMin="88" yMin="0" xMax="643" yMax="933">
      <contour>
        <pt x="333" y="800" on="1"/>
        <pt x="409" y="933" on="1"/>
        <pt x="477" y="933" on="1"/>
        <pt x="385" y="795" on="1"/>
      </contour>
      <contour>
        <pt x="88" y="740" on="1"/>
        <pt x="147" y="740" on="1"/>
        <pt x="523" y="192" on="1"/>
        <pt x="577" y="105" on="1"/>
        <pt x="583" y="105" on="1"/>
        <pt x="583" y="740" on="1"/>
        <pt x="643" y="740" on="1"/>
        <pt x="643" y="0" on="1"/>
        <pt x="582" y="0" on="1"/>
        <pt x="206" y="548" on="1"/>
        <pt x="153" y="634" on="1"/>
        <pt x="148" y="634" on="1"/>
        <pt x="148" y="0" on="1"/>
        <pt x="88" y="0" on="1"/>
      </contour>
    </TTGlyph>
    <TTGlyph name="Nacute.sc" xMin="83" yMin="0" xMax="568" yMax="734">
      <contour>
        <pt x="83" y="577" on="1"/>
        <pt x="138" y="577" on="1"/>
        <pt x="456" y="165" on="1"/>
        <pt x="505" y="97" on="1"/>
        <pt x="509" y="97" on="1"/>
        <pt x="509" y="577" on="1"/>
        <pt x="568" y="577" on="1"/>
        <pt x="568" y="0" on="1"/>
        <pt x="512" y="0" on="1"/>
        <pt x="194" y="412" on="1"/>
        <pt x="146" y="480" on="1"/>
        <pt x="141" y="480" on="1"/>
        <pt x="141" y="0" on="1"/>
        <pt x="83" y="0" on="1"/>
      </contour>
      <contour>
        <pt x="294" y="626" on="1"/>
        <pt x="359" y="734" on="1"/>
        <pt x="424" y="734" on="1"/>
        <pt x="343" y="621" on="1"/>
      </contour>
    </TTGlyph>
    <TTGlyph name="Ncaron" xMin="88" yMin="0" xMax="643" yMax="936">
      <contour>
        <pt x="222" y="936" on="1"/>
        <pt x="369" y="863" on="1"/>
        <pt x="517" y="936" on="1"/>
        <pt x="517" y="879" on="1"/>
        <pt x="369" y="806" on="1"/>
        <pt x="222" y="879" on="1"/>
      </contour>
      <contour>
        <pt x="88" y="740" on="1"/>
        <pt x="147" y="740" on="1"/>
        <pt x="523" y="192" on="1"/>
        <pt x="577" y="105" on="1"/>
        <pt x="583" y="105" on="1"/>
        <pt x="583" y="740" on="1"/>
        <pt x="643" y="740" on="1"/>
        <pt x="643" y="0" on="1"/>
        <pt x="582" y="0" on="1"/>
        <pt x="206" y="548" on="1"/>
        <pt x="153" y="634" on="1"/>
        <pt x="148" y="634" on="1"/>
        <pt x="148" y="0" on="1"/>
        <pt x="88" y="0" on="1"/>
      </contour>
    </TTGlyph>
    <TTGlyph name="Ncaron.sc" xMin="83" yMin="0" xMax="568" yMax="736">
      <contour>
        <pt x="83" y="577" on="1"/>
        <pt x="138" y="577" on="1"/>
        <pt x="456" y="165" on="1"/>
        <pt x="505" y="97" on="1"/>
        <pt x="509" y="97" on="1"/>
        <pt x="509" y="577" on="1"/>
        <pt x="568" y="577" on="1"/>
        <pt x="568" y="0" on="1"/>
        <pt x="512" y="0" on="1"/>
        <pt x="194" y="412" on="1"/>
        <pt x="146" y="480" on="1"/>
        <pt x="141" y="480" on="1"/>
        <pt x="141" y="0" on="1"/>
        <pt x="83" y="0" on="1"/>
      </contour>
      <contour>
        <pt x="198" y="686" on="1"/>
        <pt x="198" y="736" on="1"/>
        <pt x="328" y="679" on="1"/>
        <pt x="459" y="736" on="1"/>
        <pt x="459" y="686" on="1"/>
        <pt x="328" y="628" on="1"/>
      </contour>
    </TTGlyph>
    <TTGlyph name="Ncommaaccent" xMin="88" yMin="-220" xMax="643" yMax="740">
      <contour>
        <pt x="354" y="-68" on="1"/>
        <pt x="421" y="-68" on="1"/>
        <pt x="360" y="-220" on="1"/>
        <pt x="304" y="-220" on="1"/>
      </contour>
      <contour>
        <pt x="88" y="740" on="1"/>
        <pt x="147" y="740" on="1"/>
        <pt x="523" y="192" on="1"/>
        <pt x="577" y="105" on="1"/>
        <pt x="583" y="105" on="1"/>
        <pt x="583" y="740" on="1"/>
        <pt x="643" y="740" on="1"/>
        <pt x="643" y="0" on="1"/>
        <pt x="582" y="0" on="1"/>
        <pt x="206" y="548" on="1"/>
        <pt x="153" y="634" on="1"/>
        <pt x="148" y="634" on="1"/>
        <pt x="148" y="0" on="1"/>
        <pt x="88" y="0" on="1"/>
      </contour>
    </TTGlyph>
    <TTGlyph name="Ncommaaccent.sc" xMin="83" yMin="-172" xMax="568" yMax="577">
      <contour>
        <pt x="83" y="577" on="1"/>
        <pt x="138" y="577" on="1"/>
        <pt x="456" y="165" on="1"/>
        <pt x="505" y="97" on="1"/>
        <pt x="509" y="97" on="1"/>
        <pt x="509" y="577" on="1"/>
        <pt x="568" y="577" on="1"/>
        <pt x="568" y="0" on="1"/>
        <pt x="512" y="0" on="1"/>
        <pt x="194" y="412" on="1"/>
        <pt x="146" y="480" on="1"/>
        <pt x="141" y="480" on="1"/>
        <pt x="141" y="0" on="1"/>
        <pt x="83" y="0" on="1"/>
      </contour>
      <contour>
        <pt x="311" y="-54" on="1"/>
        <pt x="376" y="-54" on="1"/>
        <pt x="321" y="-172" on="1"/>
        <pt x="269" y="-172" on="1"/>
      </contour>
    </TTGlyph>
    <TTGlyph name="Ndotaccent" xMin="88" yMin="0" xMax="643" yMax="899">
      <contour>
        <pt x="367" y="811" on="1"/>
        <pt x="346" y="811" on="0"/>
        <pt x="322" y="832" on="0"/>
        <pt x="322" y="855" on="1"/>
        <pt x="322" y="878" on="0"/>
        <pt x="346" y="899" on="0"/>
        <pt x="367" y="899" on="1"/>
        <pt x="388" y="899" on="0"/>
        <pt x="413" y="878" on="0"/>
        <pt x="413" y="855" on="1"/>
        <pt x="413" y="832" on="0"/>
        <pt x="388" y="811" on="0"/>
      </contour>
      <contour>
        <pt x="88" y="740" on="1"/>
        <pt x="147" y="740" on="1"/>
        <pt x="523" y="192" on="1"/>
        <pt x="577" y="105" on="1"/>
        <pt x="583" y="105" on="1"/>
        <pt x="583" y="740" on="1"/>
        <pt x="643" y="740" on="1"/>
        <pt x="643" y="0" on="1"/>
        <pt x="582" y="0" on="1"/>
        <pt x="206" y="548" on="1"/>
        <pt x="153" y="634" on="1"/>
        <pt x="148" y="634" on="1"/>
        <pt x="148" y="0" on="1"/>
        <pt x="88" y="0" on="1"/>
      </contour>
    </TTGlyph>
    <TTGlyph name="Ndotaccent.sc" xMin="83" yMin="0" xMax="568" yMax="712">
      <contour>
        <pt x="83" y="577" on="1"/>
        <pt x="138" y="577" on="1"/>
        <pt x="456" y="165" on="1"/>
        <pt x="505" y="97" on="1"/>
        <pt x="509" y="97" on="1"/>
        <pt x="509" y="577" on="1"/>
        <pt x="568" y="577" on="1"/>
        <pt x="568" y="0" on="1"/>
        <pt x="512" y="0" on="1"/>
        <pt x="194" y="412" on="1"/>
        <pt x="146" y="480" on="1"/>
        <pt x="141" y="480" on="1"/>
        <pt x="141" y="0" on="1"/>
        <pt x="83" y="0" on="1"/>
      </contour>
      <contour>
        <pt x="326" y="632" on="1"/>
        <pt x="285" y="632" on="0"/>
        <pt x="285" y="672" on="1"/>
        <pt x="285" y="712" on="0"/>
        <pt x="326" y="712" on="1"/>
        <pt x="369" y="712" on="0"/>
        <pt x="369" y="672" on="1"/>
        <pt x="369" y="632" on="0"/>
      </contour>
    </TTGlyph>
    <TTGlyph name="Ntilde" xMin="88" yMin="0" xMax="643" yMax="920">
      <contour>
        <pt x="192" y="857" on="1"/>
        <pt x="215" y="886" on="0"/>
        <pt x="274" y="920" on="0"/>
        <pt x="303" y="920" on="1"/>
        <pt x="325" y="920" on="0"/>
        <pt x="362" y="907" on="0"/>
        <pt x="397" y="891" on="0"/>
        <pt x="432" y="878" on="0"/>
        <pt x="452" y="878" on="1"/>
        <pt x="492" y="878" on="0"/>
        <pt x="529" y="917" on="1"/>
        <pt x="554" y="894" on="1"/>
        <pt x="534" y="863" on="0"/>
        <pt x="473" y="828" on="0"/>
        <pt x="442" y="828" on="1"/>
        <pt x="422" y="828" on="0"/>
        <pt x="385" y="841" on="0"/>
        <pt x="349" y="857" on="0"/>
        <pt x="314" y="870" on="0"/>
        <pt x="295" y="870" on="1"/>
        <pt x="275" y="870" on="0"/>
        <pt x="235" y="850" on="0"/>
        <pt x="216" y="832" on="1"/>
      </contour>
      <contour>
        <pt x="88" y="740" on="1"/>
        <pt x="147" y="740" on="1"/>
        <pt x="523" y="192" on="1"/>
        <pt x="577" y="105" on="1"/>
        <pt x="583" y="105" on="1"/>
        <pt x="583" y="740" on="1"/>
        <pt x="643" y="740" on="1"/>
        <pt x="643" y="0" on="1"/>
        <pt x="582" y="0" on="1"/>
        <pt x="206" y="548" on="1"/>
        <pt x="153" y="634" on="1"/>
        <pt x="148" y="634" on="1"/>
        <pt x="148" y="0" on="1"/>
        <pt x="88" y="0" on="1"/>
      </contour>
    </TTGlyph>
    <TTGlyph name="Ntilde.sc" xMin="83" yMin="0" xMax="568" yMax="724">
      <contour>
        <pt x="172" y="669" on="1"/>
        <pt x="193" y="695" on="0"/>
        <pt x="245" y="724" on="0"/>
        <pt x="271" y="724" on="1"/>
        <pt x="290" y="724" on="0"/>
        <pt x="323" y="714" on="0"/>
        <pt x="354" y="702" on="0"/>
        <pt x="385" y="692" on="0"/>
        <pt x="403" y="692" on="1"/>
        <pt x="439" y="692" on="0"/>
        <pt x="472" y="722" on="1"/>
        <pt x="493" y="703" on="1"/>
        <pt x="474" y="676" on="0"/>
        <pt x="420" y="646" on="0"/>
        <pt x="393" y="646" on="1"/>
        <pt x="375" y="646" on="0"/>
        <pt x="342" y="656" on="0"/>
        <pt x="310" y="668" on="0"/>
        <pt x="278" y="678" on="0"/>
        <pt x="262" y="678" on="1"/>
        <pt x="226" y="678" on="0"/>
        <pt x="192" y="648" on="1"/>
      </contour>
      <contour>
        <pt x="83" y="577" on="1"/>
        <pt x="138" y="577" on="1"/>
        <pt x="456" y="165" on="1"/>
        <pt x="505" y="97" on="1"/>
        <pt x="509" y="97" on="1"/>
        <pt x="509" y="577" on="1"/>
        <pt x="568" y="577" on="1"/>
        <pt x="568" y="0" on="1"/>
        <pt x="512" y="0" on="1"/>
        <pt x="194" y="412" on="1"/>
        <pt x="146" y="480" on="1"/>
        <pt x="141" y="480" on="1"/>
        <pt x="141" y="0" on="1"/>
        <pt x="83" y="0" on="1"/>
      </contour>
    </TTGlyph>
    <TTGlyph name="O" xMin="51" yMin="-10" xMax="639" yMax="750">
      <contour>
        <pt x="345" y="-10" on="1"/>
        <pt x="202" y="-10" on="0"/>
        <pt x="51" y="180" on="0"/>
        <pt x="51" y="369" on="1"/>
        <pt x="51" y="559" on="0"/>
        <pt x="202" y="750" on="0"/>
        <pt x="345" y="750" on="1"/>
        <pt x="488" y="750" on="0"/>
        <pt x="639" y="558" on="0"/>
        <pt x="639" y="369" on="1"/>
        <pt x="639" y="180" on="0"/>
        <pt x="488" y="-10" on="0"/>
      </contour>
      <contour>
        <pt x="345" y="47" on="1"/>
        <pt x="574" y="47" on="0"/>
        <pt x="574" y="369" on="1"/>
        <pt x="574" y="693" on="0"/>
        <pt x="345" y="693" on="1"/>
        <pt x="230" y="693" on="0"/>
        <pt x="117" y="534" on="0"/>
        <pt x="117" y="369" on="1"/>
        <pt x="117" y="205" on="0"/>
        <pt x="230" y="47" on="0"/>
      </contour>
    </TTGlyph>
    <TTGlyph name="O.sc" xMin="51" yMin="-8" xMax="568" yMax="585">
      <contour>
        <pt x="310" y="-8" on="1"/>
        <pt x="183" y="-8" on="0"/>
        <pt x="51" y="141" on="0"/>
        <pt x="51" y="288" on="1"/>
        <pt x="51" y="436" on="0"/>
        <pt x="183" y="585" on="0"/>
        <pt x="310" y="585" on="1"/>
        <pt x="435" y="585" on="0"/>
        <pt x="568" y="436" on="0"/>
        <pt x="568" y="288" on="1"/>
        <pt x="568" y="141" on="0"/>
        <pt x="435" y="-8" on="0"/>
      </contour>
      <contour>
        <pt x="310" y="46" on="1"/>
        <pt x="505" y="46" on="0"/>
        <pt x="505" y="288" on="1"/>
        <pt x="505" y="531" on="0"/>
        <pt x="310" y="531" on="1"/>
        <pt x="210" y="531" on="0"/>
        <pt x="114" y="413" on="0"/>
        <pt x="114" y="288" on="1"/>
        <pt x="114" y="164" on="0"/>
        <pt x="210" y="46" on="0"/>
      </contour>
    </TTGlyph>
    <TTGlyph name="OE" xMin="51" yMin="-7" xMax="847" yMax="747">
      <contour>
        <pt x="349" y="-7" on="1"/>
        <pt x="204" y="-7" on="0"/>
        <pt x="51" y="182" on="0"/>
        <pt x="51" y="369" on="1"/>
        <pt x="51" y="557" on="0"/>
        <pt x="204" y="747" on="0"/>
        <pt x="349" y="747" on="1"/>
        <pt x="374" y="747" on="0"/>
        <pt x="424" y="744" on="0"/>
        <pt x="444" y="740" on="1"/>
        <pt x="838" y="740" on="1"/>
        <pt x="838" y="683" on="1"/>
        <pt x="507" y="683" on="1"/>
        <pt x="507" y="404" on="1"/>
        <pt x="813" y="404" on="1"/>
        <pt x="813" y="348" on="1"/>
        <pt x="507" y="348" on="1"/>
        <pt x="507" y="57" on="1"/>
        <pt x="847" y="57" on="1"/>
        <pt x="847" y="0" on="1"/>
        <pt x="444" y="0" on="1"/>
        <pt x="424" y="-3" on="0"/>
        <pt x="373" y="-7" on="0"/>
      </contour>
      <contour>
        <pt x="351" y="51" on="1"/>
        <pt x="374" y="51" on="0"/>
        <pt x="423" y="53" on="0"/>
        <pt x="443" y="58" on="1"/>
        <pt x="443" y="681" on="1"/>
        <pt x="423" y="686" on="0"/>
        <pt x="374" y="689" on="0"/>
        <pt x="351" y="689" on="1"/>
        <pt x="233" y="689" on="0"/>
        <pt x="117" y="532" on="0"/>
        <pt x="117" y="369" on="1"/>
        <pt x="117" y="207" on="0"/>
        <pt x="232" y="51" on="0"/>
      </contour>
    </TTGlyph>
    <TTGlyph name="OE.sc" xMin="51" yMin="-6" xMax="754" yMax="583">
      <contour>
        <pt x="313" y="-6" on="1"/>
        <pt x="186" y="-6" on="0"/>
        <pt x="51" y="142" on="0"/>
        <pt x="51" y="288" on="1"/>
        <pt x="51" y="434" on="0"/>
        <pt x="186" y="583" on="0"/>
        <pt x="313" y="583" on="1"/>
        <pt x="359" y="583" on="0"/>
        <pt x="397" y="577" on="1"/>
        <pt x="747" y="577" on="1"/>
        <pt x="747" y="525" on="1"/>
        <pt x="458" y="525" on="1"/>
        <pt x="458" y="318" on="1"/>
        <pt x="726" y="318" on="1"/>
        <pt x="726" y="268" on="1"/>
        <pt x="458" y="268" on="1"/>
        <pt x="458" y="53" on="1"/>
        <pt x="754" y="53" on="1"/>
        <pt x="754" y="0" on="1"/>
        <pt x="397" y="0" on="1"/>
        <pt x="379" y="-3" on="0"/>
        <pt x="334" y="-6" on="0"/>
      </contour>
      <contour>
        <pt x="315" y="48" on="1"/>
        <pt x="336" y="48" on="0"/>
        <pt x="379" y="51" on="0"/>
        <pt x="396" y="55" on="1"/>
        <pt x="396" y="522" on="1"/>
        <pt x="378" y="526" on="0"/>
        <pt x="337" y="528" on="0"/>
        <pt x="315" y="528" on="1"/>
        <pt x="213" y="528" on="0"/>
        <pt x="114" y="411" on="0"/>
        <pt x="114" y="288" on="1"/>
        <pt x="114" y="165" on="0"/>
        <pt x="212" y="48" on="0"/>
      </contour>
    </TTGlyph>
    <TTGlyph name="Oacute" xMin="51" yMin="-10" xMax="639" yMax="933">
      <contour>
        <pt x="315" y="800" on="1"/>
        <pt x="391" y="933" on="1"/>
        <pt x="459" y="933" on="1"/>
        <pt x="367" y="795" on="1"/>
      </contour>
      <contour>
        <pt x="345" y="-10" on="1"/>
        <pt x="202" y="-10" on="0"/>
        <pt x="51" y="180" on="0"/>
        <pt x="51" y="369" on="1"/>
        <pt x="51" y="559" on="0"/>
        <pt x="202" y="750" on="0"/>
        <pt x="345" y="750" on="1"/>
        <pt x="488" y="750" on="0"/>
        <pt x="639" y="558" on="0"/>
        <pt x="639" y="369" on="1"/>
        <pt x="639" y="180" on="0"/>
        <pt x="488" y="-10" on="0"/>
      </contour>
      <contour>
        <pt x="345" y="47" on="1"/>
        <pt x="574" y="47" on="0"/>
        <pt x="574" y="369" on="1"/>
        <pt x="574" y="693" on="0"/>
        <pt x="345" y="693" on="1"/>
        <pt x="230" y="693" on="0"/>
        <pt x="117" y="534" on="0"/>
        <pt x="117" y="369" on="1"/>
        <pt x="117" y="205" on="0"/>
        <pt x="230" y="47" on="0"/>
      </contour>
    </TTGlyph>
    <TTGlyph name="Oacute.sc" xMin="51" yMin="-8" xMax="568" yMax="734">
      <contour>
        <pt x="310" y="-8" on="1"/>
        <pt x="183" y="-8" on="0"/>
        <pt x="51" y="141" on="0"/>
        <pt x="51" y="288" on="1"/>
        <pt x="51" y="436" on="0"/>
        <pt x="183" y="585" on="0"/>
        <pt x="310" y="585" on="1"/>
        <pt x="435" y="585" on="0"/>
        <pt x="568" y="436" on="0"/>
        <pt x="568" y="288" on="1"/>
        <pt x="568" y="141" on="0"/>
        <pt x="435" y="-8" on="0"/>
      </contour>
      <contour>
        <pt x="310" y="46" on="1"/>
        <pt x="505" y="46" on="0"/>
        <pt x="505" y="288" on="1"/>
        <pt x="505" y="531" on="0"/>
        <pt x="310" y="531" on="1"/>
        <pt x="210" y="531" on="0"/>
        <pt x="114" y="413" on="0"/>
        <pt x="114" y="288" on="1"/>
        <pt x="114" y="164" on="0"/>
        <pt x="210" y="46" on="0"/>
      </contour>
      <contour>
        <pt x="281" y="626" on="1"/>
        <pt x="345" y="734" on="1"/>
        <pt x="411" y="734" on="1"/>
        <pt x="330" y="621" on="1"/>
      </contour>
    </TTGlyph>
    <TTGlyph name="Obreve" xMin="51" yMin="-10" xMax="639" yMax="955">
      <contour>
        <pt x="345" y="813" on="1"/>
        <pt x="266" y="813" on="0"/>
        <pt x="183" y="889" on="0"/>
        <pt x="183" y="955" on="1"/>
        <pt x="234" y="955" on="1"/>
        <pt x="234" y="909" on="0"/>
        <pt x="291" y="858" on="0"/>
        <pt x="345" y="858" on="1"/>
        <pt x="399" y="858" on="0"/>
        <pt x="456" y="909" on="0"/>
        <pt x="456" y="955" on="1"/>
        <pt x="508" y="955" on="1"/>
        <pt x="508" y="889" on="0"/>
        <pt x="423" y="813" on="0"/>
      </contour>
      <contour>
        <pt x="345" y="-10" on="1"/>
        <pt x="202" y="-10" on="0"/>
        <pt x="51" y="180" on="0"/>
        <pt x="51" y="369" on="1"/>
        <pt x="51" y="559" on="0"/>
        <pt x="202" y="750" on="0"/>
        <pt x="345" y="750" on="1"/>
        <pt x="488" y="750" on="0"/>
        <pt x="639" y="558" on="0"/>
        <pt x="639" y="369" on="1"/>
        <pt x="639" y="180" on="0"/>
        <pt x="488" y="-10" on="0"/>
      </contour>
      <contour>
        <pt x="345" y="47" on="1"/>
        <pt x="574" y="47" on="0"/>
        <pt x="574" y="369" on="1"/>
        <pt x="574" y="693" on="0"/>
        <pt x="345" y="693" on="1"/>
        <pt x="230" y="693" on="0"/>
        <pt x="117" y="534" on="0"/>
        <pt x="117" y="369" on="1"/>
        <pt x="117" y="205" on="0"/>
        <pt x="230" y="47" on="0"/>
      </contour>
    </TTGlyph>
</ttFont>
